<?xml version="1.0" encoding="UTF-8"?>
<svg width="143px" height="143px" viewBox="0 0 143 143" version="1.1" xmlns="http://www.w3.org/2000/svg" xmlns:xlink="http://www.w3.org/1999/xlink">
    <!-- Generator: Sketch 47.1 (45422) - http://www.bohemiancoding.com/sketch -->
    <title>Group 6</title>
    <desc>Created with Sketch.</desc>
    <defs></defs>
    <g id="Page-1" stroke="none" stroke-width="1" fill="none" fill-rule="evenodd">
        <g id="Group-6">
            <path d="M71.393,0.273 C110.619,0.273 142.42,32.074 142.42,71.303 C142.42,110.53 110.619,142.331 71.393,142.331 C32.165,142.331 0.365,110.53 0.365,71.303 C0.365,32.074 32.165,0.273 71.393,0.273" id="Fill-19" fill="#FEC00F"></path>
            <path d="M110.313,69.788 C110.313,92.607 91.811,111.108 68.988,111.108 C46.168,111.108 27.666,92.607 27.666,69.788 C27.666,46.964 46.168,28.465 68.988,28.465 C91.811,28.465 110.313,46.964 110.313,69.788" id="Fill-383" fill="#174F78"></path>
            <path d="M99.545,69.788 C99.545,86.661 85.863,100.341 68.988,100.341 C52.113,100.341 38.434,86.661 38.434,69.788 C38.434,52.912 52.113,39.232 68.988,39.232 C85.863,39.232 99.545,52.912 99.545,69.788" id="Fill-384" fill="#FFFFFF"></path>
            <path d="M88.775,69.788 C88.775,80.716 79.916,89.573 68.988,89.573 C58.061,89.573 49.201,80.716 49.201,69.788 C49.201,58.858 58.061,49.999 68.988,49.999 C79.916,49.999 88.775,58.858 88.775,69.788" id="Fill-385" fill="#174F78"></path>
            <path d="M78.01,69.788 C78.01,74.768 73.969,78.805 68.988,78.805 C64.008,78.805 59.969,74.768 59.969,69.788 C59.969,64.806 64.008,60.767 68.988,60.767 C73.969,60.767 78.01,64.806 78.01,69.788" id="Fill-386" fill="#FFFFFF"></path>
            <path d="M68.988,60.767 C73.969,60.767 78.01,64.806 78.01,69.788 C78.01,74.768 73.969,78.805 68.988,78.805" id="Fill-388" fill="#FFFFFF"></path>
            <polyline id="Fill-392" fill="#1695A4" points="106.283 42.324 112.773 35.831 105.465 33.872 103.506 26.561 97.014 33.054 98.602 38.983 76.557 61.03 73.43 54.792 69.357 69.979 76.953 67.942 84.547 65.908 78.307 62.78 100.354 40.733 106.283 42.324"></polyline>
            <polyline id="Fill-393" fill="#15B0BF" points="105.465 33.872 103.506 26.561 97.014 33.054 98.604 38.983 76.553 61.03 73.43 54.792 69.357 69.979 105.465 33.872"></polyline>
        </g>
    </g>
</svg>