<svg enable-background="new 0 0 200 200" height="200" viewBox="0 0 200 200" width="200" xmlns="http://www.w3.org/2000/svg"><path d="m20.587 0c7.153 0 12.941 5.788 12.941 12.941v174.117c0 7.154 5.789 12.942 12.942 12.942h132.94v-187.059c0-3.313-1.264-6.623-3.791-9.15-2.523-2.528-5.837-3.791-9.147-3.791z" fill="#efefef"/><path d="m192.354 187.054c0-7.148-5.794-12.942-12.942-12.942h-132.941c7.152 0 12.939 5.789 12.939 12.942 0 7.152-5.788 12.939-12.939 12.939h132.94c7.149 0 12.943-5.791 12.943-12.939z" fill="#cccbca"/><path d="m20.587 0c-7.153 0-12.941 5.788-12.941 12.941s5.788 12.941 12.941 12.941h12.941v-12.941c.001-7.153-5.787-12.941-12.941-12.941z" fill="#cccbca"/><path d="m123.107 153.366h39.243v4.707h-39.243z" fill="#cccbca"/><path d="m50.591 52.51h111.76v4.706h-111.76z" fill="#cccbca"/><path d="m50.591 40.746h111.76v4.705h-111.76z" fill="#cccbca"/><path d="m50.591 28.981h55.881v4.706h-55.881z" fill="#3f4a5a"/><g fill="#cccbca"><path d="m162.468 143.13h-111.993v-75.68h111.993zm-108.934-3.059h105.874v-69.563h-105.874z"/><path d="m52.003 121.917h108.934v3.057h-108.934z"/><path d="m52.003 103.763h108.934v3.057h-108.934z"/><path d="m52.003 85.605h108.934v3.057h-108.934z"/><path d="m141.243 68.981h3.061v72.621h-3.061z"/><path d="m123.107 68.981h3.06v72.621h-3.06z"/><path d="m104.939 68.981h3.062v72.621h-3.062z"/><path d="m86.779 68.981h3.055v72.621h-3.055z"/><path d="m68.639 68.981h3.059v72.621h-3.059z"/></g><path d="m53.419 143.015-2.828-2.829 18.75-18.741h18.136l36.334-36.312h18.135l17.578-17.568 2.827 2.829-18.75 18.74h-18.137l-36.328 36.312h-18.138z" fill="#f67656"/><circle cx="52.004" cy="141.602" fill="#f67656" r="4.358"/><path d="m74.526 123.447c0 2.405-1.953 4.355-4.357 4.355-2.407 0-4.359-1.95-4.359-4.355s1.952-4.357 4.359-4.357c2.404 0 4.357 1.952 4.357 4.357z" fill="#f67656"/><circle cx="88.306" cy="123.447" fill="#f67656" r="4.36"/><circle cx="124.636" cy="87.135" fill="#f67656" r="4.355"/><circle cx="142.773" cy="87.135" fill="#f67656" r="4.358"/><circle cx="160.937" cy="68.981" fill="#f67656" r="4.358"/></svg>