<?xml version="1.0" encoding="UTF-8"?>
<svg width="143px" height="143px" viewBox="0 0 143 143" version="1.1" xmlns="http://www.w3.org/2000/svg" xmlns:xlink="http://www.w3.org/1999/xlink">
    <!-- Generator: Sketch 47.1 (45422) - http://www.bohemiancoding.com/sketch -->
    <title>Group 5</title>
    <desc>Created with Sketch.</desc>
    <defs></defs>
    <g id="Page-1" stroke="none" stroke-width="1" fill="none" fill-rule="evenodd">
        <g id="Group-5">
            <path d="M0,71.9364201 C0,32.7084201 31.8,0.908420052 71.027,0.908420052 C110.253,0.908420052 142.054,32.7084201 142.054,71.9364201 C142.054,111.16542 110.253,142.96542 71.027,142.96542 C31.8,142.96542 0,111.16542 0,71.9364201 Z" id="Fill-15" fill="#A6DAE9"></path>
            <g id="Group" transform="translate(35.000000, 64.000000)">
                <path d="M5.50036886,35.7488137 L14.3401532,35.7488137 L14.3401532,45.709 L36.0043982,35.7488137 L92.4314026,35.7488137 C94.9554982,35.7488137 97,34.561809 97,33.0949621 L97,2.95485153 C97,1.48800464 94.9554982,0.301 92.4314026,0.301 L5.50036886,0.301 C2.97938757,0.301 0.938,1.48800464 0.938,2.95485153 L0.938,33.0949621 C0.938,34.561809 2.97938757,35.7488137 5.50036886,35.7488137 Z" id="Fill-568" fill="#2C5871" transform="translate(48.969000, 23.005000) scale(-1, 1) translate(-48.969000, -23.005000) "></path>
                <polygon id="Star" stroke="#15B0BF" fill="#15B0BF" points="31.5 21.25 27.0916106 23.5676275 27.9335381 18.6588137 24.3670761 15.1823725 29.2958053 14.4661863 31.5 10 33.7041947 14.4661863 38.6329239 15.1823725 35.0664619 18.6588137 35.9083894 23.5676275"></polygon>
                <polygon id="Star-Copy" stroke="#15B0BF" fill="#15B0BF" points="49.5 21.25 45.0916106 23.5676275 45.9335381 18.6588137 42.3670761 15.1823725 47.2958053 14.4661863 49.5 10 51.7041947 14.4661863 56.6329239 15.1823725 53.0664619 18.6588137 53.9083894 23.5676275"></polygon>
                <polygon id="Star-Copy-2" stroke="#15B0BF" fill="#15B0BF" points="13.5 21.25 9.09161061 23.5676275 9.93353806 18.6588137 6.36707613 15.1823725 11.2958053 14.4661863 13.5 10 15.7041947 14.4661863 20.6329239 15.1823725 17.0664619 18.6588137 17.9083894 23.5676275"></polygon>
                <polygon id="Star-Copy-3" stroke="#15B0BF" fill="#15B0BF" points="67.5 21.25 63.0916106 23.5676275 63.9335381 18.6588137 60.3670761 15.1823725 65.2958053 14.4661863 67.5 10 69.7041947 14.4661863 74.6329239 15.1823725 71.0664619 18.6588137 71.9083894 23.5676275"></polygon>
                <polygon id="Star-Copy-4" stroke="#15B0BF" points="85.5 21.25 81.0916106 23.5676275 81.9335381 18.6588137 78.3670761 15.1823725 83.2958053 14.4661863 85.5 10 87.7041947 14.4661863 92.6329239 15.1823725 89.0664619 18.6588137 89.9083894 23.5676275"></polygon>
            </g>
            <g id="Group" transform="translate(12.000000, 45.000000)">
                <path d="M0.938,33.0949621 C0.938,34.561809 2.97938757,35.7488137 5.50036886,35.7488137 L14.3401532,35.7488137 L14.3401532,45.709 L36.0043982,35.7488137 L92.4314026,35.7488137 C94.9554982,35.7488137 97,34.561809 97,33.0949621 L97,2.95485153 C97,1.48800464 94.9554982,0.301 92.4314026,0.301 L5.50036886,0.301 C2.97938757,0.301 0.938,1.48800464 0.938,2.95485153 L0.938,33.0949621" id="Fill-568" fill="#FFFFFF"></path>
                <polygon id="Star" stroke="#15B0BF" fill="#15B0BF" points="31.5 21.25 27.0916106 23.5676275 27.9335381 18.6588137 24.3670761 15.1823725 29.2958053 14.4661863 31.5 10 33.7041947 14.4661863 38.6329239 15.1823725 35.0664619 18.6588137 35.9083894 23.5676275"></polygon>
                <polygon id="Star-Copy" stroke="#15B0BF" fill="#15B0BF" points="49.5 21.25 45.0916106 23.5676275 45.9335381 18.6588137 42.3670761 15.1823725 47.2958053 14.4661863 49.5 10 51.7041947 14.4661863 56.6329239 15.1823725 53.0664619 18.6588137 53.9083894 23.5676275"></polygon>
                <polygon id="Star-Copy-2" stroke="#15B0BF" fill="#15B0BF" points="13.5 21.25 9.09161061 23.5676275 9.93353806 18.6588137 6.36707613 15.1823725 11.2958053 14.4661863 13.5 10 15.7041947 14.4661863 20.6329239 15.1823725 17.0664619 18.6588137 17.9083894 23.5676275"></polygon>
                <polygon id="Star-Copy-3" stroke="#15B0BF" fill="#15B0BF" points="67.5 21.25 63.0916106 23.5676275 63.9335381 18.6588137 60.3670761 15.1823725 65.2958053 14.4661863 67.5 10 69.7041947 14.4661863 74.6329239 15.1823725 71.0664619 18.6588137 71.9083894 23.5676275"></polygon>
                <polygon id="Star-Copy-4" stroke="#15B0BF" fill="#15B0BF" points="85.5 21.25 81.0916106 23.5676275 81.9335381 18.6588137 78.3670761 15.1823725 83.2958053 14.4661863 85.5 10 87.7041947 14.4661863 92.6329239 15.1823725 89.0664619 18.6588137 89.9083894 23.5676275"></polygon>
            </g>
        </g>
    </g>
</svg>