<?xml version="1.0" encoding="UTF-8"?>
<svg width="144px" height="143px" viewBox="0 0 144 143" version="1.1" xmlns="http://www.w3.org/2000/svg" xmlns:xlink="http://www.w3.org/1999/xlink">
    <!-- Generator: Sketch 47.1 (45422) - http://www.bohemiancoding.com/sketch -->
    <title>Group 4</title>
    <desc>Created with Sketch.</desc>
    <defs></defs>
    <g id="Page-1" stroke="none" stroke-width="1" fill="none" fill-rule="evenodd">
        <g id="Group-4">
            <path d="M72,142.423 C32.773,142.423 0.973,110.622 0.973,71.394 C0.973,32.166 32.773,0.365 72,0.365 C111.226,0.365 143.027,32.166 143.027,71.394 C143.027,110.622 111.226,142.423 72,142.423" id="Fill-5" fill="#A6DAE9"></path>
            <path d="M75.365,92.462 C65.433,92.462 57.381,84.406 57.381,74.477 C57.381,64.544 65.433,56.49 75.365,56.49 C85.298,56.49 93.348,64.544 93.348,74.477 C93.348,84.406 85.298,92.462 75.365,92.462 Z M107.336,68.893 L103.2,68.893 C102.9,67.437 102.502,66.027 102,64.658 L105.457,62.664 C106.283,62.182 106.568,61.125 106.093,60.289 L102.627,54.289 C102.143,53.458 101.08,53.177 100.258,53.653 L96.665,55.728 C95.697,54.626 94.645,53.599 93.517,52.661 L95.518,49.199 C95.994,48.363 95.71,47.307 94.881,46.828 L88.88,43.358 C88.053,42.886 86.995,43.167 86.512,43.998 L84.442,47.587 C83.063,47.116 81.638,46.759 80.178,46.507 L80.178,42.503 C80.178,41.548 79.404,40.769 78.443,40.769 L71.518,40.769 C70.55,40.769 69.774,41.548 69.774,42.503 L69.774,46.644 C68.327,46.936 66.913,47.336 65.545,47.837 L63.554,44.381 C63.07,43.547 62.012,43.268 61.174,43.746 L55.171,47.216 C54.346,47.689 54.064,48.752 54.541,49.582 L56.616,53.177 C55.516,54.144 54.486,55.192 53.551,56.318 L50.091,54.32 C49.254,53.841 48.197,54.132 47.717,54.958 L44.244,60.958 C43.77,61.787 44.053,62.849 44.883,63.327 L48.471,65.398 C48.006,66.775 47.645,68.199 47.396,69.66 L43.396,69.66 C42.434,69.66 41.658,70.44 41.659,71.395 L41.658,78.326 C41.658,79.285 42.434,80.058 43.396,80.058 L47.536,80.058 C47.824,81.515 48.225,82.933 48.728,84.296 L45.268,86.292 C44.438,86.773 44.16,87.832 44.634,88.658 L48.098,94.662 C48.575,95.488 49.639,95.775 50.47,95.296 L54.063,93.224 C55.033,94.326 56.084,95.359 57.21,96.292 L55.209,99.759 C54.73,100.587 55.014,101.65 55.842,102.125 L61.852,105.589 C62.68,106.068 63.739,105.785 64.213,104.958 L66.289,101.369 C67.668,101.833 69.087,102.195 70.55,102.441 L70.549,106.451 C70.55,107.406 71.324,108.179 72.279,108.177 L79.217,108.183 C80.174,108.183 80.95,107.406 80.951,106.451 L80.951,102.308 C82.398,102.015 83.813,101.615 85.183,101.115 L87.183,104.57 C87.662,105.404 88.713,105.681 89.546,105.205 L95.554,101.738 C96.379,101.263 96.665,100.199 96.184,99.369 L94.107,95.775 C95.213,94.81 96.241,93.759 97.18,92.632 L100.645,94.634 C101.477,95.113 102.529,94.826 103.014,93.998 L106.479,87.99 C106.956,87.166 106.67,86.101 105.849,85.625 L102.254,83.55 C102.723,82.179 103.08,80.751 103.336,79.296 L107.336,79.296 C108.291,79.296 109.064,78.517 109.066,77.558 L109.066,70.625 C109.07,69.666 108.289,68.893 107.336,68.893 L107.336,68.893 Z" id="Fill-480" fill="#1695A4"></path>
            <path d="M74.762,92.443 C65.109,92.126 57.381,84.207 57.381,74.477 C57.381,64.744 65.109,56.824 74.762,56.508 L74.761,40.769 L71.518,40.769 C70.55,40.769 69.774,41.548 69.774,42.503 L69.774,46.644 C68.327,46.936 66.913,47.336 65.545,47.837 L63.554,44.381 C63.07,43.547 62.012,43.268 61.174,43.746 L55.171,47.216 C54.346,47.689 54.064,48.752 54.541,49.582 L56.616,53.177 C55.516,54.144 54.486,55.192 53.551,56.318 L50.091,54.32 C49.254,53.841 48.197,54.132 47.717,54.958 L44.244,60.958 C43.77,61.787 44.053,62.849 44.883,63.327 L48.471,65.398 C48.006,66.775 47.645,68.199 47.396,69.66 L43.396,69.66 C42.434,69.66 41.658,70.44 41.659,71.395 L41.658,78.326 C41.658,79.285 42.434,80.058 43.396,80.058 L47.536,80.058 C47.824,81.515 48.225,82.933 48.728,84.296 L45.268,86.292 C44.438,86.773 44.16,87.832 44.634,88.658 L48.098,94.662 C48.575,95.488 49.639,95.775 50.47,95.296 L54.063,93.224 C55.033,94.326 56.084,95.359 57.21,96.292 L55.209,99.759 C54.73,100.587 55.014,101.65 55.842,102.125 L61.852,105.589 C62.68,106.068 63.739,105.785 64.213,104.958 L66.289,101.369 C67.668,101.833 69.087,102.195 70.55,102.441 L70.549,106.451 C70.55,107.406 71.324,108.179 72.279,108.177 L74.761,108.181 L74.762,92.443" id="Fill-481" fill="#15B0BF"></path>
            <path d="M75.365,92.462 C65.433,92.462 57.381,84.406 57.381,74.477 C57.381,64.544 65.433,56.49 75.365,56.49 C85.298,56.49 93.348,64.544 93.348,74.477 C93.348,84.406 85.298,92.462 75.365,92.462 Z M75.363,52.579 C63.268,52.578 53.465,62.38 53.465,74.479 C53.465,86.568 63.268,96.376 75.363,96.376 C87.459,96.376 97.266,86.568 97.266,74.479 C97.266,62.38 87.46,52.578 75.363,52.579 L75.363,52.579 Z" id="Fill-482" fill="#1695A4"></path>
            <path d="M75.363,52.579 C75.159,52.578 74.961,52.583 74.762,52.591 L74.762,56.508 C74.961,56.501 75.159,56.49 75.365,56.49 C85.298,56.49 93.348,64.544 93.348,74.477 C93.348,84.406 85.298,92.462 75.365,92.462 C75.159,92.462 74.961,92.451 74.762,92.443 L74.762,96.363 C74.961,96.367 75.16,96.376 75.363,96.376 C87.459,96.376 97.266,86.568 97.266,74.479 C97.266,62.38 87.46,52.578 75.363,52.579" id="Fill-483" fill="#15B0BF"></path>
            <path d="M112.99,112.304 C112.984,112.306 112.982,112.312 112.979,112.316 C110.254,115.029 105.844,115.017 103.129,112.294 L81.893,90.957 C79.184,88.232 79.193,83.83 81.904,81.119 C81.91,81.115 81.914,81.111 81.916,81.107 C84.644,78.392 89.054,78.402 91.765,81.128 L113.004,102.466 C115.71,105.191 115.703,109.589 112.99,112.304" id="Fill-484" fill="#F99B1C"></path>
            <path d="M109.96,112.171 C108.914,113.214 107.203,113.208 106.154,112.156 L84.918,90.818 C83.874,89.767 83.874,88.06 84.922,87.011 C85.98,85.958 87.691,85.962 88.739,87.015 L109.977,108.353 C111.021,109.406 111.021,111.111 109.972,112.162 L109.96,112.171" id="Fill-485" fill="#FEC00F"></path>
            <path d="M40.469,39.595 C40.469,39.593 40.469,39.593 40.469,39.593 C45.63,34.431 52.485,31.597 59.768,31.609 C74.775,31.636 86.965,43.869 86.938,58.875 C86.926,66.117 84.091,72.935 78.957,78.07 C73.798,83.228 66.948,86.06 59.669,86.05 C52.408,86.039 45.579,83.189 40.44,78.035 C35.303,72.878 32.479,66.041 32.493,58.779 C32.506,51.541 35.337,44.727 40.469,39.595" id="Fill-486" fill="#0E303F"></path>
            <path d="M45.398,44.515 C41.578,48.335 39.469,53.409 39.457,58.796 C39.436,69.964 48.504,79.068 59.674,79.085 C65.092,79.095 70.191,76.986 74.039,73.14 C77.858,69.321 79.967,64.252 79.977,58.868 C79.986,53.466 77.883,48.378 74.058,44.54 C70.232,40.7 65.151,38.583 59.748,38.572 C54.338,38.564 49.24,40.674 45.398,44.515" id="Fill-487" fill="#D1ECFB"></path>
            <path d="M74.058,44.54 C70.232,40.7 65.151,38.583 59.748,38.572 C58.227,38.57 56.731,38.74 55.28,39.064 C53.075,40.06 51.044,41.454 49.278,43.222 C45.457,47.041 43.35,52.113 43.34,57.503 C43.318,68.67 52.389,77.773 63.557,77.794 C65.078,77.796 66.576,77.626 68.027,77.302 C70.235,76.302 72.271,74.908 74.039,73.14 C77.858,69.321 79.967,64.252 79.977,58.868 C79.986,53.466 77.883,48.378 74.058,44.54" id="Fill-488" fill="#FFFFFF"></path>
            <path d="M84.644,83.97 C83.283,85.328 81.078,85.322 79.72,83.958 L75.383,79.482 C74.027,78.119 74.029,75.919 75.387,74.562 C75.387,74.562 75.393,74.56 75.395,74.557 C76.757,73.201 78.959,73.204 80.318,74.568 L84.655,79.046 C86.01,80.406 86.008,82.607 84.65,83.964 C84.65,83.964 84.645,83.968 84.644,83.97" id="Fill-489" fill="#0E303F"></path>
            <path d="M57.381,74.477 C57.381,64.544 65.433,56.49 75.365,56.49 C76.932,56.49 78.443,56.711 79.893,57.087 C79.49,52.357 77.459,47.953 74.058,44.54 C72.861,43.339 71.531,42.329 70.119,41.476 C69.904,41.765 69.774,42.119 69.774,42.503 L69.774,46.644 C68.327,46.936 66.913,47.336 65.545,47.837 L63.554,44.381 C63.07,43.547 62.012,43.268 61.174,43.746 L55.171,47.216 C54.346,47.689 54.064,48.752 54.541,49.582 L56.616,53.177 C55.516,54.144 54.486,55.192 53.551,56.318 L50.091,54.32 C49.254,53.841 48.197,54.132 47.717,54.958 L44.244,60.958 C43.77,61.787 44.053,62.849 44.883,63.327 L48.471,65.398 C48.006,66.775 47.645,68.199 47.396,69.66 L43.396,69.66 C43.15,69.66 42.918,69.71 42.707,69.802 C46.021,74.921 51.572,78.451 57.977,78.996 C57.602,77.55 57.381,76.041 57.381,74.477" id="Fill-491" fill="#A6DAE9"></path>
            <path d="M47.398,69.652 C47.397,69.654 47.396,69.656 47.396,69.66 L43.396,69.66 C43.15,69.66 42.918,69.71 42.707,69.802 C42.877,70.065 43.057,70.321 43.238,70.576 C43.361,70.748 43.489,70.916 43.617,71.083 C43.912,71.47 44.221,71.847 44.543,72.21 C44.684,72.37 44.824,72.527 44.969,72.681 C45.268,72.999 45.577,73.304 45.895,73.603 C46.09,73.785 46.283,73.966 46.484,74.14 C46.717,74.341 46.955,74.537 47.197,74.727 C47.382,74.873 47.572,75.011 47.762,75.152 C48.135,75.425 48.517,75.687 48.908,75.935 C49.096,76.054 49.284,76.169 49.475,76.281 C49.877,76.519 50.289,76.74 50.708,76.949 C50.918,77.054 51.129,77.16 51.344,77.257 C51.627,77.386 51.912,77.511 52.203,77.626 C52.47,77.734 52.742,77.83 53.015,77.925 C53.416,78.068 53.823,78.197 54.236,78.314 C54.449,78.373 54.666,78.427 54.883,78.48 C55.361,78.599 55.847,78.699 56.338,78.781 C56.564,78.818 56.789,78.855 57.018,78.886 C57.335,78.929 57.654,78.968 57.977,78.996 C57.797,78.302 57.654,77.595 57.553,76.873 C53.449,75.587 49.922,73.017 47.398,69.652" id="Fill-492" fill="#8FC4D7"></path>
        </g>
    </g>
</svg>