<?xml version="1.0" encoding="UTF-8"?>
<svg width="321px" height="267px" viewBox="0 0 321 267" version="1.1" xmlns="http://www.w3.org/2000/svg" xmlns:xlink="http://www.w3.org/1999/xlink">
    <!-- Generator: Sketch 47.1 (45422) - http://www.bohemiancoding.com/sketch -->
    <title>Group 4</title>
    <desc>Created with Sketch.</desc>
    <defs></defs>
    <g id="Page-1" stroke="none" stroke-width="1" fill="none" fill-rule="evenodd">
        <g id="Artboard" transform="translate(-290.000000, -1002.000000)" fill="#008cde">
            <g id="Group-3" transform="translate(290.000000, 1001.000000)">
                <g id="Group-4">
                    <polygon id="Path-8" points="0.867405962 140.615918 78.144148 245.634398 95.6278757 245.634398 100.389856 241.511709 123.293539 194.55789 91.3088814 150.887747 81.4171578 169.404468 37.4297511 110.14752 26.4897422 108.033457 1.0896113 131.062034"></polygon>
                    <polygon id="Path-9" points="149.219722 145.0612 190.746309 66.4213632 190.280588 56.4867144 160.698803 34.925087 149.543209 38.66124 116.812458 101.183981"></polygon>
                    <polygon id="Path-10" points="202.368924 263.660107 320.835605 30.9893164 320.835605 21.555322 293.317376 0.994558052 280.875981 1.36744756 182.17663 193.845157 106.554972 90.4736337 95.2596653 90.1772646 72.1708773 111.523762 72.1708773 121.485143 179.633891 267.839537 198.143177 267.839537"></polygon>
                </g>
            </g>
        </g>
    </g>
</svg>