<svg xmlns="http://www.w3.org/2000/svg" xmlns:xlink="http://www.w3.org/1999/xlink" viewBox="0 0 502.97 441.44"><defs><style>.cls-1{fill:none;}.cls-2{isolation:isolate;}.cls-3{fill:#b2b2b2;}.cls-4{fill:#4b2e15;}.cls-11,.cls-5,.cls-7{fill:#8c6238;}.cls-6{clip-path:url(#clip-path);}.cls-26,.cls-34,.cls-7{opacity:0.5;}.cls-11,.cls-20,.cls-21,.cls-25,.cls-26,.cls-34,.cls-35,.cls-7{mix-blend-mode:multiply;}.cls-8{clip-path:url(#clip-path-2);}.cls-9{clip-path:url(#clip-path-3);}.cls-10{clip-path:url(#clip-path-4);}.cls-12{fill:url(#radial-gradient);}.cls-13{fill:url(#radial-gradient-2);}.cls-14{fill:url(#radial-gradient-3);}.cls-15{fill:url(#radial-gradient-4);}.cls-16{fill:#fff;}.cls-17,.cls-20{fill:#808081;}.cls-18,.cls-39{fill:#575756;}.cls-18{opacity:0.75;}.cls-19,.cls-21{fill:#b4b4b4;}.cls-20,.cls-21,.cls-25,.cls-35{opacity:0.3;}.cls-22,.cls-26{fill:#f9b03d;}.cls-23,.cls-40,.cls-42{fill:#343434;}.cls-24,.cls-25{fill:#cdcccc;}.cls-27{fill:url(#radial-gradient-5);}.cls-28{fill:url(#radial-gradient-6);}.cls-29{fill:#d77e4a;}.cls-30{fill:#d96523;}.cls-31{fill:#b7561d;}.cls-32{fill:#87918b;}.cls-33{fill:#a4b1a8;}.cls-36{fill:#cccccb;}.cls-37{fill:#989797;}.cls-38{fill:#000100;}.cls-40{font-size:198.84px;font-family:Futura;font-weight:700;}.cls-41{opacity:0.25;}.cls-42{opacity:0.15;}.cls-43{fill:#fccc88;}.cls-44{fill:#5c3a21;}.cls-45,.cls-53{fill:#878787;}.cls-45{opacity:0.4;mix-blend-mode:color-burn;}.cls-46{fill:#ec7a07;}.cls-47{fill:#f3931a;}.cls-48{fill:#ebb05c;}.cls-49{fill:#979797;}.cls-50{fill:#313131;}.cls-51{fill:#ededed;}.cls-52{fill:#dadada;}</style><clipPath id="clip-path" transform="translate(-167.03 -69.33)"><path class="cls-1" d="M324.8,356.83l4.44,1c0,1.32.3,2.47,0.28,3.78a5.2,5.2,0,0,1,4-4.07,8.83,8.83,0,0,1,5.91.8l-0.8,6.16c0.38-1.79,1.62-3.28,2.45-4.92a11,11,0,0,1,6.58,3.24c-2.8,6.61-3,14-4.47,21A123.65,123.65,0,0,1,338,400.73c-10,27.8-20.35,55.45-30.44,83.21a16.59,16.59,0,0,0-6.58-2,20.37,20.37,0,0,0,.58-4.87,39.7,39.7,0,0,1-2.87,4.58,62.19,62.19,0,0,1-9.39-2.82,87.93,87.93,0,0,1,2.55-13.43,20.83,20.83,0,0,0-3,5.17c-0.77-.47-2.06-0.82-2.82-1.29,3.95-9.95,6.83-19.85,10.78-29.8C307.6,412.28,318.49,385.4,324.8,356.83Z"/></clipPath><clipPath id="clip-path-2" transform="translate(-167.03 -69.33)"><path class="cls-1" d="M247.21,332.75c21.82,49,43.79,98,73.94,142.37a238.17,238.17,0,0,1-23.79,13.82c-22.71-34.29-42.17-70.29-56.79-108.86-4.76-12.54-9.14-25.41-17.2-36.12,2-1,2.76-2.11,4.75-3.07,1.42,1.39,2.81,2.72,4.23,4.12L232,339.59A165,165,0,0,1,247.21,332.75Z"/></clipPath><clipPath id="clip-path-3" transform="translate(-167.03 -69.33)"><path class="cls-1" d="M312.76,376.3l4.28-2.74a1.31,1.31,0,0,1,.62-0.26,0.69,0.69,0,0,1,.51.28,4.62,4.62,0,0,0,2.09.79,5.7,5.7,0,0,1-.65-2.22c1-.49,2.44-1.45,3.49-1.94a7.3,7.3,0,0,0,2.48,2.68,9.67,9.67,0,0,0-1.11-3.57c3.38-1.94,7.31-4.4,10.51-6.64,21.25,33.77,40.52,68.39,59.39,103.6l-5.22,3.21a2.42,2.42,0,0,1-1.64.53c-0.55-.15-0.78-0.88-1.43-0.67a6.37,6.37,0,0,1,.18,1.79l-5.11,3.18a15.61,15.61,0,0,0-3.22-2.36l1.46,3.91-5.9,3.25c-7-5.58-11.87-12.87-16.3-20.4-4.3-7.31-8.6-14.63-12.55-22.15C334,416.35,326.24,394.72,312.76,376.3Z"/></clipPath><clipPath id="clip-path-4" transform="translate(-167.03 -69.33)"><path class="cls-1" d="M403.94,330.65l6,1.35c0,1.65.48,3.11,0.5,4.76,0.31-2.51,2.65-4.46,5.29-5a12.9,12.9,0,0,1,8,1.17l-0.9,7.7c0.46-2.24,2.08-4.07,3.15-6.1a16,16,0,0,1,9,4.27c-3.57,8.21-3.67,17.45-5.4,26.24-1.42,7.23-3.95,14.18-6.47,21.1-12.61,34.6-25.76,69-38.52,103.55a24.43,24.43,0,0,0-8.92-2.71,23.55,23.55,0,0,0,.63-6.1,46.41,46.41,0,0,1-3.74,5.66,91.67,91.67,0,0,1-12.73-3.81,101.09,101.09,0,0,1,3-16.79,24.26,24.26,0,0,0-3.9,6.4c-1-.61-2.79-1.09-3.84-1.7,5-12.37,8.61-24.72,13.63-37.09C382.43,399.75,396.28,366.34,403.94,330.65Z"/></clipPath><radialGradient id="radial-gradient" cx="350.13" cy="469.4" r="2.05" gradientTransform="translate(16.85 -7.67)" gradientUnits="userSpaceOnUse"><stop offset="0" stop-color="#e6e7e9"/><stop offset="1" stop-color="#595a5c"/></radialGradient><radialGradient id="radial-gradient-2" cx="280.94" cy="472.33" r="2.05" gradientTransform="translate(17.64 0.2)" xlink:href="#radial-gradient"/><radialGradient id="radial-gradient-3" cx="361.78" cy="474.93" r="2.05" gradientTransform="translate(17.41 -9.03)" xlink:href="#radial-gradient"/><radialGradient id="radial-gradient-4" cx="288.83" cy="466.82" r="2.05" gradientTransform="translate(16.96 -0.66)" xlink:href="#radial-gradient"/><radialGradient id="radial-gradient-5" cx="320.06" cy="378.75" r="2.05" gradientTransform="translate(6.71 -2.46)" xlink:href="#radial-gradient"/><radialGradient id="radial-gradient-6" cx="326.85" cy="375.41" r="2.05" gradientTransform="translate(6.47 -2.91)" xlink:href="#radial-gradient"/></defs><title>W2D</title><g class="cls-2"><g id="Ebene_1" data-name="Ebene 1"><path class="cls-3" d="M561.88,343.19c0.67,0.16,1.33,7.17,1,8.82s1.34,4.74,2.71,5.69,23.12,0.17,24-.17,4.25-.33,7.06-0.61,21.49,12.84,20.52,13.61-15.33-1.33-16.64-.5-8.53-.2-9.83.33-32.69,1.68-33.93.21-8.93-1.38-9.43-.38,0.33,10.83,0,12,1,9,1.37,9.9,3.3,2.1,4.35,3.64-0.95,2.71-2.56,3.3,0.51,12.34,0,12.81-0.12,16.37-1.39,17.19-0.93,2.5-1.59,3.83,0.33,16.33,0,17.61,2.33,5.05,3,5.72,3.35,0.83,4.93-.55,33.59,1.21,34.78-.15,6-.42,7.31.37,5,10.5,3.51,11.19-1.42,4.79-2.18,6.31-1.5,3.83-4.5,4.71-17,5.29-18.17,5.92-5.4,0-7.36-1.25-29.47.62-33.14,1.08a15.42,15.42,0,0,1-5.67-.12,86.68,86.68,0,0,1-9.17-1c-5.17-.83-4.83-9-5.46-10.61s0.3-5.72.3-5.72v-6.67s0.17-4.17.13-6.06-0.28-3.51-.3-4.78,1.83-6.5,1.83-8.18-1.17-1.15-2.85-.16-2.65-3-2.15-5.16a24.48,24.48,0,0,1,3.5-6.67c0.67-.83-0.67-11.33-1.35-12.92s0.88-5,1-6.08,0-12.17-.52-13.43,0.52-3.73.8-4.55-1.09-15-1.09-15-0.18-6.29,1.48-9.72,0.66-6-1.6-8.05,0.26-5-.08-8,2.68-2.62,2.34-5.65,8.38-8.08,12-8.09c1.65,0,4.9,1.78,7.08.62Z" transform="translate(-167.03 -69.33)"/><path class="cls-3" d="M589,370.58a5.44,5.44,0,0,0,0,3.45c0.68,1.5,1,2.5.69,3.67s-0.29,11.45,1,12,2.31,1.53,3.64,3.36,2.17,4.5,2,5.5,0.38,9.33,0,10.5-0.35,3.17-2.35,4.17-4.16,1.49-4.33,2.66-1.62,4.84,1.85,3.5,7.26,2,7.7,3.17-1.56,5.64-2.06,6.83-2.16,0-2.16,0-1.49,1.67,0,2.83,2,4.67,1.83,5.5a109.5,109.5,0,0,0-1.38,10.91c0,2.09-1,7.26-1.47,7.92s4.73,2.83,6.54,2.83,11.81-1.83,13.64-2.17,13.89,2,14.69-.27,2.71-6.78,4.21-7.89-10.85-.83-9.46-0.67a17.06,17.06,0,0,0,4.56.17c2.83-.17,7.17-9.67,7-10.83s0.18-3.83-1.33-4.5S629,429,629,427.86a95.38,95.38,0,0,1,1.92-12c0.58-1.5.58-3.73,1.91-5.11s0.33-11.72.5-12.22-4-7.17-3.83-8.83-10.79-10-11.23-11.17-1.44-6.33-1.11-8-11.55-5.33-13.44-5S589,370.58,589,370.58Z" transform="translate(-167.03 -69.33)"/><path class="cls-3" d="M558.88,350.82c4-1.13,8.87.52,12.79-2.13s6.94-2.42,9.92,1.06,13.49,0.51,13.46,3,4.11,0.22,7,1.22,2.94,3,2.4,4.33-19.21,4-19.21,4H569.88Z" transform="translate(-167.03 -69.33)"/><path class="cls-4" d="M327.79,355.21l4.44,1c0,1.32.3,2.47,0.28,3.78a5.2,5.2,0,0,1,4-4.07,8.83,8.83,0,0,1,5.91.8l-0.8,6.16c0.27-1.27-1.17-2.31-.49-3.44,0.28-.46,2.7-1,2.94-1.47a11,11,0,0,1,6.58,3.24c-2.8,6.61-3,14-4.47,21A123.65,123.65,0,0,1,341,399.11c-10,27.8-20.35,55.45-30.44,83.21-0.27-.17-1.95.89-3.08,1.43,0.49-1.57-3-6.67-2.92-8.3a39.7,39.7,0,0,1-2.87,4.58c-1-.21-2.09,1.65-3.06,1.39-2.19-.59-4.21-3.4-6.32-4.2a87.93,87.93,0,0,1,2.55-13.43,20.83,20.83,0,0,0-3,5.17c-0.77-.47-2.15,2-2.92,1.5,3.95-9.95,6.93-22.64,10.87-32.59,10.2-25.69,18.63-54.18,25.07-81C325.24,355.29,327.12,356.17,327.79,355.21Z" transform="translate(-167.03 -69.33)"/><path class="cls-5" d="M324.8,356.83l4.44,1c0,1.32.3,2.47,0.28,3.78a5.2,5.2,0,0,1,4-4.07,8.83,8.83,0,0,1,5.91.8l-0.8,6.16c0.38-1.79,1.62-3.28,2.45-4.92a11,11,0,0,1,6.58,3.24c-2.8,6.61-3,14-4.47,21A123.65,123.65,0,0,1,338,400.73c-10,27.8-20.35,55.45-30.44,83.21a16.59,16.59,0,0,0-6.58-2,20.37,20.37,0,0,0,.58-4.87,39.7,39.7,0,0,1-2.87,4.58,62.19,62.19,0,0,1-9.39-2.82,87.93,87.93,0,0,1,2.55-13.43,20.83,20.83,0,0,0-3,5.17c-0.77-.47-2.06-0.82-2.82-1.29,3.95-9.95,6.83-19.85,10.78-29.8C307.6,412.28,318.49,385.4,324.8,356.83Z" transform="translate(-167.03 -69.33)"/><g class="cls-6"><path class="cls-7" d="M325.06,392.15c-3.82,1.07-4.34,8.41-4.86,11.53-1.43,8.63-2.3,17.27-5.5,25.48a295.17,295.17,0,0,1-14.13,30A61.6,61.6,0,0,0,295.41,472c-1.32,4.86-2.48,9.77-5.29,14-0.44.67,0.31,1.08,0.75,0.42,3.55-5.39,4.48-11.79,6.3-17.86,2.17-7.22,6.48-13.81,9.8-20.56,3.11-6.32,6-12.74,8.56-19.31s3.16-12.87,4.37-19.62c0.73-4.07,1.1-8.29,2.4-12.23,0.26-.8.63-2.51,1.38-3,0.91-.58.92-0.4,1.36,0.71a6.75,6.75,0,0,1,.18,2,38.12,38.12,0,0,1-1,9.38c-2.86,13.7-8.56,26.15-13.73,39.06-3.13,7.84-5.45,16-8.81,23.74-1.32,3-3.07,5.92-3.87,9.15-0.85,3.42-.76,7-1.79,10.41-0.1.33,0.28,0.31,0.36,0,1.17-3.72,1-7.71,2.18-11.42,1.28-4.08,3.67-7.84,5.27-11.82,3.65-9.09,6.59-18.41,10.41-27.44a183.27,183.27,0,0,0,9.28-26c1.57-6.15,3.57-13.06,1.82-19.38A0.21,0.21,0,0,0,325.06,392.15Z" transform="translate(-167.03 -69.33)"/><path class="cls-7" d="M326,369.18c-5.4,6.72-7.13,16.38-9.05,24.58a89.61,89.61,0,0,0-1.86,14,61.36,61.36,0,0,1-3.15,14c-3.16,9.86-7.37,19.24-11.52,28.7-4.32,9.84-8.42,19.78-13.45,29.29-0.24.45,0.42,0.41,0.59,0.08,4.18-8,7.72-16.28,11.3-24.56,3.3-7.65,6.88-15.19,9.89-23,2.73-7,5.41-14.41,6.53-21.88,0.62-4.11.43-8.24,1.25-12.34,0.86-4.32,2.25-8.53,3.46-12.76a67.81,67.81,0,0,1,3.79-11.08c0.42-.87,1.86-4.16,2.88-3.85s1.85,2.71,2.16,3.56c1.88,5.13,1.57,11.15,1.22,16.51-1,14.54-5.48,28.9-10.18,42.63-3.18,9.28-7.39,18.16-10.7,27.4-3.38,9.43-6.34,19-9.1,28.66-0.07.24,0.29,0.12,0.34,0,3-9.81,6.08-19.59,9.6-29.24s7.83-18.78,11.05-28.43c5-15,10.1-30.06,10.34-46,0.08-5.21.18-13.12-4.62-16.51A0.7,0.7,0,0,0,326,369.18Z" transform="translate(-167.03 -69.33)"/><path class="cls-7" d="M310.41,393.45c0,14.75-4,29.22-8.11,43.29a101.94,101.94,0,0,1-7.86,19.82c-3.31,6.19-7.24,12-10.52,18.23-0.12.23,0.11,0.34,0.24,0.13,3.94-6.24,7.83-12.57,11.26-19.1a105.15,105.15,0,0,0,7.76-20.15c2.1-7.34,3.88-14.78,5.64-22.2a66.1,66.1,0,0,0,1.92-20.19C310.71,393,310.41,393.28,310.41,393.45Z" transform="translate(-167.03 -69.33)"/><path class="cls-7" d="M342,346.5c0.13,4.83.5,9.55,0,14.38a129.72,129.72,0,0,1-2.15,13.46c-1.94,9.54-4.12,19-6.77,28.38-5.72,20.22-12.58,40.18-19.77,59.92-1.73,4.76-3.52,9.47-5.41,14.16-1.72,4.26-3.25,8.59-3.33,13.24,0,0.15.29,0.11,0.29,0,0.3-4.58,1.9-8.93,3.61-13.14s3.43-8.66,5-13.05c3.45-9.48,6.88-18.94,10.08-28.51,6.5-19.45,12.44-38.91,16.68-59,2-9.32,4.68-20.5,2.18-30C342.39,346.16,342,346.29,342,346.5Z" transform="translate(-167.03 -69.33)"/><path class="cls-7" d="M337.68,351.58c-0.31,6,.24,12-1,18-0.08.36-1.17,4.25-1.57,4s-0.32-4.8-.37-5.25c-0.49-4.43-1.27-9-3.33-13-0.05-.1-0.22.06-0.19,0.15a65.27,65.27,0,0,1,3.25,18.77c0,0.24.2,0.3,0.39,0.19,2.73-1.54,2.88-6.78,3.17-9.44,0.46-4.23,1.2-9.46.24-13.68C338.15,350.94,337.69,351.37,337.68,351.58Z" transform="translate(-167.03 -69.33)"/></g><path class="cls-4" d="M249.1,328.33c21.82,49,43.79,98,73.94,142.37-0.8,1.37-.74,3.2-2.51,4.31-6,3.75-14.95,6.32-21.27,9.52-22.71-34.29-42.17-70.29-56.79-108.86C238.23,364.51,230,354,223.55,344c-0.81-1.23,1.33-2.47,1.71-4.5,2-1,2.76-2.11,4.75-3.07,1.42,1.39,2.81,2.72,4.23,4.12-0.07-1.12-2.17-.09-2.25-1.22,0-.68,1.93-3.52,1.89-4.21A165,165,0,0,1,249.1,328.33Z" transform="translate(-167.03 -69.33)"/><path class="cls-5" d="M247.21,332.75c21.82,49,43.79,98,73.94,142.37a238.17,238.17,0,0,1-23.79,13.82c-22.71-34.29-42.17-70.29-56.79-108.86-4.76-12.54-9.14-25.41-17.2-36.12,2-1,2.76-2.11,4.75-3.07,1.42,1.39,2.81,2.72,4.23,4.12L232,339.59A165,165,0,0,1,247.21,332.75Z" transform="translate(-167.03 -69.33)"/><g class="cls-8"><path class="cls-7" d="M226,350.8c4.67,4.88,9.86,9.34,14.57,14.18a82.11,82.11,0,0,1,12.85,17.89c6.9,12.44,12.22,25.71,17.76,38.84,10.55,25,22.73,49.91,40.09,71,0.08,0.1.42,0,.33-0.14-16.91-22.7-29.51-47.84-40.42-73.87-5.51-13.14-10.92-26.36-18-38.69-6.68-11.61-16.53-20.29-26.41-29.57C226.54,350.27,225.73,350.52,226,350.8Z" transform="translate(-167.03 -69.33)"/><path class="cls-7" d="M221.18,335c4.73,10.41,14.36,18.26,22.39,26.41a112,112,0,0,1,19.91,27.39c5.56,10.72,9.91,22,14.72,33.13a194.45,194.45,0,0,0,16,29.56c7.38,11.23,15.49,22,22.82,33.26,0.07,0.11.37-.1,0.3-0.21-12.08-20.71-27.23-39.42-36.94-61.49-9.08-20.63-16.5-42.21-32.21-59-4.43-4.75-9.22-9.21-13.7-13.92a136.38,136.38,0,0,1-12.46-15.73C221.83,334.09,221,334.7,221.18,335Z" transform="translate(-167.03 -69.33)"/><path class="cls-7" d="M237.51,315.41c2.25,12.49,6.95,23.94,12.26,35.15s10.8,22.18,16.91,32.91c12.16,21.36,19.77,44.93,31.75,66.4,6.4,11.47,13.62,22.71,23.54,31.8,0.28,0.25.69-.39,0.49-0.59-16.66-16.56-28-38.06-36.84-59.38-4.63-11.15-8.82-22.37-14.53-33-6.2-11.52-12.45-23-18.13-34.75-6.07-12.58-11.66-25.35-14.53-39.32C238.27,314,237.43,315,237.51,315.41Z" transform="translate(-167.03 -69.33)"/><path class="cls-7" d="M255.83,409.22a123.2,123.2,0,0,1,12.37,21.84c3.21,7.15,7.16,13.91,10.85,20.81,3.49,6.54,6.8,13.05,10.88,19.26a140,140,0,0,1,11.2,19.38c0.11,0.24.38-.06,0.32-0.24-2.29-7-6.57-13.07-10.56-19.15-4.33-6.59-7.85-13.5-11.57-20.44s-7.64-13.66-10.79-20.84c-3.33-7.6-7-14.73-12.31-21.22C256,408.28,255.67,409,255.83,409.22Z" transform="translate(-167.03 -69.33)"/></g><path class="cls-4" d="M314.1,372.89l4.28-2.74a1.31,1.31,0,0,1,.62-0.26,0.69,0.69,0,0,1,.51.28c0.55,0.56,1,3.4,1.77,3.67a24.87,24.87,0,0,1-1.57-2c-0.1-.36,1.27-2.75,1.24-3.14,1-.49,2.44-1.45,3.49-1.94a7.3,7.3,0,0,0,2.48,2.68c-0.11-.62-2.22.27-2.39-0.34s1.61-2.72,1.28-3.24c3.38-1.94,7.31-4.4,10.51-6.64,21.25,33.77,40.52,68.39,59.39,103.6-0.26,1-.78,2.89-1.46,3.43-0.48.38-4.91,0.44-5.4,0.31s-0.78-.88-1.43-0.67a6.37,6.37,0,0,1,.18,1.79l-5.11,3.18a15.61,15.61,0,0,0-3.22-2.36l1.46,3.91-5.9,3.25c-7-5.58-11.87-12.87-16.3-20.4-4.3-7.31-8.6-14.63-12.55-22.15-10.09-19.23-20.87-39.1-33.17-56.91C312.16,375.34,313.67,374.42,314.1,372.89Z" transform="translate(-167.03 -69.33)"/><path class="cls-5" d="M312.76,376.3l4.28-2.74a1.31,1.31,0,0,1,.62-0.26,0.69,0.69,0,0,1,.51.28,4.62,4.62,0,0,0,2.09.79,5.7,5.7,0,0,1-.65-2.22c1-.49,2.44-1.45,3.49-1.94a7.3,7.3,0,0,0,2.48,2.68,9.67,9.67,0,0,0-1.11-3.57c3.38-1.94,7.31-4.4,10.51-6.64,21.25,33.77,40.52,68.39,59.39,103.6l-5.22,3.21a2.42,2.42,0,0,1-1.64.53c-0.55-.15-0.78-0.88-1.43-0.67a6.37,6.37,0,0,1,.18,1.79l-5.11,3.18a15.61,15.61,0,0,0-3.22-2.36l1.46,3.91-5.9,3.25c-7-5.58-11.87-12.87-16.3-20.4-4.3-7.31-8.6-14.63-12.55-22.15C334,416.35,326.24,394.72,312.76,376.3Z" transform="translate(-167.03 -69.33)"/><g class="cls-9"><path class="cls-7" d="M317.12,366c4.78,7.76,11.59,14.2,18.71,20.15s14.28,11.7,19,19.63c9.73,16.21,16.4,34.23,26.74,50.1,2.62,4,5.76,7.63,8.61,11.47,1.87,2.52,3.65,5.64,7.36,6.38,0.14,0,.46-0.18.26-0.24-3.69-1-5.41-4.36-7.37-7-2.63-3.52-5.44-6.87-7.85-10.54-5.06-7.7-9.21-16-13.49-24.12s-7.93-16.7-12.49-24.7c-4.24-7.44-10.27-13.65-16.88-19.31-8-6.85-15.59-13.89-21.41-22.44C318.11,365,316.85,365.54,317.12,366Z" transform="translate(-167.03 -69.33)"/><path class="cls-7" d="M326.54,359.6c4.7,7.59,11.29,13.86,17.44,20.38a102.52,102.52,0,0,1,16.81,23.7c4.4,8.59,8,17.61,12,26.42,3.74,8.26,7.37,16.57,13.13,23.61,5.14,6.28,9.48,13.92,17.79,17.37,0.13,0.06.18-.14,0.08-0.18-7.6-3.67-11.81-10.56-16.77-16.52-6-7.18-9.77-15.49-13.6-24-7.47-16.57-13.49-33.89-25.68-47.62-6.91-7.79-14.58-14.9-20.39-23.51C327.08,358.84,326.2,359.06,326.54,359.6Z" transform="translate(-167.03 -69.33)"/><path class="cls-7" d="M311,370.33c9.37,14.36,27.43,21.06,38,34.42,10.8,13.65,15.87,30.8,25.23,45.36,5.66,8.81,12.05,17.14,18.28,25.57,0.15,0.2.8-.21,0.65-0.41-5.32-7.54-10.93-14.89-16-22.58a174.73,174.73,0,0,1-13-23.73,141,141,0,0,0-11.88-21.78,66.48,66.48,0,0,0-17.5-17.09c-8.62-5.9-17-12.05-22.55-20.55C312,369.13,310.77,369.92,311,370.33Z" transform="translate(-167.03 -69.33)"/><path class="cls-7" d="M317.53,386.76c10.77,6.4,22.82,11,29.38,21.29,6.68,10.5,11.47,22.12,17.26,33.15,2.07,3.94,5,7.26,7.33,11a17.23,17.23,0,0,1,2.36,5.42c0.07,0.35.57,2.37,0.07,2.75s-2.69-1.66-3.07-2.07c-3.25-3.53-5.26-8.48-7.68-12.57-3.24-5.49-6.13-11.18-9.34-16.7a82.4,82.4,0,0,0-11.58-15.91c-3.83-4-7.82-8.19-13.27-10.62-0.25-.11-0.86.5-0.61,0.63,5.51,2.77,9.64,7,13.61,11.26,5.28,5.61,9.37,12.08,13.09,18.74,3.45,6.17,7,12.27,10.51,18.39,2,3.39,3.5,8.8,8.4,9.59a0.68,0.68,0,0,0,.64-0.51c1.08-6.31-4-11.19-7.08-15.56-5.13-7.2-8.31-15.81-12.29-23.69-3.84-7.59-7.56-15.67-14.22-21.36s-14.91-9.66-23-13.77C317.83,386.18,317.33,386.64,317.53,386.76Z" transform="translate(-167.03 -69.33)"/><path class="cls-7" d="M336.95,418.76c6.79,2,10.11,8.9,13.19,14.12,3.89,6.6,7.54,13.41,11.2,20.15,3.23,6,6.41,12,11.11,17.06,4.89,5.22,10.47,9.67,14.86,15.3,0.15,0.19.73,0.15,0.55-.18-3.49-6.42-10.23-10.47-15.16-15.8-5.48-5.92-8.86-13.27-12.77-20.21-3.74-6.63-7.27-13.45-11.38-19.86-2.8-4.38-5.64-9.4-11.5-11C336.66,418.2,336.68,418.68,336.95,418.76Z" transform="translate(-167.03 -69.33)"/></g><path class="cls-4" d="M407.91,328.71l6,1.35c0,1.65.48,3.11,0.5,4.76,0.31-2.51,2.65-4.46,5.29-5a12.9,12.9,0,0,1,8,1.17l-0.9,7.7c0.33-1.59-1.65-2.94-.76-4.33,0.36-.57,3.6-1.18,3.91-1.76a16,16,0,0,1,9,4.27c-3.57,8.21-3.67,17.45-5.4,26.24-1.42,7.23-3.95,14.18-6.47,21.1-12.61,34.6-25.76,69-38.52,103.55-0.37-.23-2.6,1.06-4.11,1.7,0.62-2-4.27-8.46-4.18-10.51a46.41,46.41,0,0,1-3.74,5.66c-1.33-.29-2.77,2-4.08,1.65-3-.8-5.77-4.39-8.64-5.47a101.09,101.09,0,0,1,3-16.79,24.26,24.26,0,0,0-3.9,6.4c-1-.61-2.84,2.4-3.88,1.79,5-12.37,8.65-28.21,13.68-40.58,13-31.95,23.48-67.45,31.35-100.93C404.48,328.74,407,329.9,407.91,328.71Z" transform="translate(-167.03 -69.33)"/><path class="cls-5" d="M403.94,330.65l6,1.35c0,1.65.48,3.11,0.5,4.76,0.31-2.51,2.65-4.46,5.29-5a12.9,12.9,0,0,1,8,1.17l-0.9,7.7c0.46-2.24,2.08-4.07,3.15-6.1a16,16,0,0,1,9,4.27c-3.57,8.21-3.67,17.45-5.4,26.24-1.42,7.23-3.95,14.18-6.47,21.1-12.61,34.6-25.76,69-38.52,103.55a24.43,24.43,0,0,0-8.92-2.71,23.55,23.55,0,0,0,.63-6.1,46.41,46.41,0,0,1-3.74,5.66,91.67,91.67,0,0,1-12.73-3.81,101.09,101.09,0,0,1,3-16.79,24.26,24.26,0,0,0-3.9,6.4c-1-.61-2.79-1.09-3.84-1.7,5-12.37,8.61-24.72,13.63-37.09C382.43,399.75,396.28,366.34,403.94,330.65Z" transform="translate(-167.03 -69.33)"/><g class="cls-10"><path class="cls-7" d="M405.34,375c-5.12,1.23-5.6,10.43-6.21,14.33-1.68,10.79-2.58,21.61-6.65,31.82-5.11,12.82-11.5,25.11-18.14,37.24a70.81,70.81,0,0,0-6.56,15.94c-1.63,6.06-3,12.2-6.7,17.45-0.58.83,0.45,1.37,1,.55,4.62-6.66,5.68-14.66,8-22.24,2.71-9,8.32-17.15,12.58-25.52,4-7.84,7.74-15.81,11-24s3.88-16.06,5.3-24.5c0.86-5.08,1.24-10.37,2.87-15.28,0.33-1,.78-3.13,1.77-3.7,1.21-.69,1.23-0.48,1.86.93a8,8,0,0,1,.31,2.48,44.09,44.09,0,0,1-1.11,11.75c-3.44,17.11-10.76,32.57-17.32,48.63-4,9.75-6.86,19.91-11.16,29.53-1.68,3.76-4,7.34-4.94,11.37-1,4.27-.81,8.79-2.1,13-0.13.41,0.38,0.4,0.49,0.07,1.47-4.63,1.14-9.65,2.6-14.27,1.6-5.08,4.71-9.74,6.74-14.68,4.65-11.3,8.32-22.91,13.2-34.14,4.6-10.59,8.9-21.12,11.73-32.32,1.94-7.68,4.42-16.29,1.88-24.27A0.3,0.3,0,0,0,405.34,375Z" transform="translate(-167.03 -69.33)"/><path class="cls-7" d="M406,346.19c-7.08,8.27-9.12,20.35-11.46,30.59a103.41,103.41,0,0,0-2.08,17.5c-0.34,6-2,11.81-3.83,17.45-4,12.28-9.35,23.93-14.66,35.69-5.53,12.23-10.75,24.58-17.24,36.37-0.31.56,0.58,0.52,0.79,0.12,5.39-9.91,9.92-20.21,14.48-30.49,4.22-9.5,8.81-18.86,12.64-28.52,3.46-8.73,6.86-17.92,8.15-27.27,0.71-5.14.34-10.33,1.32-15.45,1-5.4,2.77-10.64,4.28-15.91,1.34-4.67,2.58-9.44,4.78-13.8,0.54-1.07,2.38-5.17,3.77-4.75s2.57,3.46,3,4.53c2.69,6.49,2.45,14,2.13,20.76-0.86,18.23-6.52,36.12-12.44,53.21-4,11.55-9.42,22.58-13.6,34.08-4.27,11.74-8,23.7-11.4,35.7-0.08.29,0.39,0.16,0.46,0,3.78-12.22,7.6-24.41,12.06-36.41s10-23.34,14-35.36c6.3-18.69,12.71-37.43,12.55-57.47-0.05-6.54-.15-16.47-6.72-20.86A1,1,0,0,0,406,346.19Z" transform="translate(-167.03 -69.33)"/><path class="cls-7" d="M385.64,376.19c0.45,18.51-4.53,36.56-9.64,54.11a117.15,117.15,0,0,1-10,24.64c-4.28,7.67-9.39,14.89-13.63,22.57-0.16.28,0.15,0.43,0.33,0.17,5.12-7.71,10.18-15.55,14.6-23.65A120.78,120.78,0,0,0,377.15,429c2.61-9.15,4.79-18.43,6.93-27.7a76.61,76.61,0,0,0,2-25.29C386,375.65,385.64,376,385.64,376.19Z" transform="translate(-167.03 -69.33)"/><path class="cls-7" d="M426.74,318.2c0.33,6.07,1,12,.47,18.06a149.38,149.38,0,0,1-2.49,16.83c-2.33,11.91-5,23.75-8.28,35.43-7.11,25.22-15.75,50.06-24.84,74.63-2.19,5.92-4.45,11.78-6.86,17.62-2.19,5.3-4.13,10.69-4.09,16.52,0,0.19.39,0.15,0.4,0,0.26-5.74,2.3-11.15,4.47-16.39s4.36-10.77,6.39-16.23c4.37-11.8,8.71-23.58,12.73-35.49,8.17-24.22,15.59-48.47,20.71-73.55,2.38-11.64,5.7-25.59,2-37.54C427.31,317.79,426.72,317.93,426.74,318.2Z" transform="translate(-167.03 -69.33)"/><path class="cls-7" d="M421.12,324.45c-0.24,7.55.68,15.1-.86,22.55-0.09.45-1.45,5.3-2,5s-0.57-6-.65-6.6c-0.8-5.58-2-11.33-4.87-16.41-0.08-.13-0.29.07-0.25,0.18a78.93,78.93,0,0,1,4.94,23.66,0.33,0.33,0,0,0,.54.25c3.63-1.85,3.67-8.42,4-11.76,0.49-5.3,1.34-11.85-.08-17.16C421.74,323.65,421.13,324.18,421.12,324.45Z" transform="translate(-167.03 -69.33)"/></g><circle class="cls-11" cx="367.85" cy="462.32" r="1.64" transform="translate(-217.37 -24.35) rotate(-6.55)"/><circle class="cls-12" cx="367.49" cy="462.12" r="1.64" transform="translate(-217.35 -24.39) rotate(-6.55)"/><circle class="cls-11" cx="299.44" cy="473.12" r="1.64" transform="translate(-219.05 -32.08) rotate(-6.55)"/><circle class="cls-13" cx="299.09" cy="472.92" r="1.64" transform="translate(-219.03 -32.12) rotate(-6.55)"/><circle class="cls-11" cx="380.05" cy="466.49" r="1.64" transform="translate(-217.77 -22.93) rotate(-6.55)"/><circle class="cls-14" cx="379.7" cy="466.29" r="1.64" transform="translate(-217.75 -22.97) rotate(-6.55)"/><circle class="cls-11" cx="306.65" cy="466.75" r="1.64" transform="translate(-218.28 -31.3) rotate(-6.55)"/><circle class="cls-15" cx="306.3" cy="466.56" r="1.64" transform="translate(-218.26 -31.34) rotate(-6.55)"/><path class="cls-16" d="M262,365.93c-5-11-10-22.1-14.92-33.18a165,165,0,0,0-15.22,6.84l0.36,5.42c-1.42-1.39-2.81-2.72-4.23-4.12-2,1-2.76,2.11-4.75,3.07,8.06,10.71,12.45,23.58,17.2,36.12,0.77,2,1.57,4.07,2.37,6.1,2.78-1.5,2.7-4.36,1.19-11.6-1.6-7.68,4,2.32,4.62,5.29s1,6.31,1.63,8.36c0.51,1.77,4.89,3,2.9-2.19s-3.59-10.22-3.42-11.86,3.3-1.67,4.21,1.86,4.78,0.48,3-3.44C255.44,369.45,257.11,366.66,262,365.93Z" transform="translate(-167.03 -69.33)"/><rect class="cls-17" x="304.7" width="4.28" height="136.19"/><rect class="cls-18" x="473.88" y="69.33" width="2.14" height="122.67" transform="translate(782.86 192) rotate(-180)"/><path class="cls-19" d="M433.05,314.79a2,2,0,0,1-1.55-3.25l42.6-52.69a2,2,0,1,1,3.1,2.51L434.61,314A2,2,0,0,1,433.05,314.79Z" transform="translate(-167.03 -69.33)"/><path class="cls-19" d="M518.26,314.79a2,2,0,0,1-1.55-.74l-42.6-52.69a2,2,0,1,1,3.1-2.51l42.6,52.69A2,2,0,0,1,518.26,314.79Z" transform="translate(-167.03 -69.33)"/><path class="cls-17" d="M489.78,243V242l-0.06-.64a14.6,14.6,0,0,0-1.27-4.39,14.41,14.41,0,0,0-2.53-3.72,14,14,0,0,0-3.48-2.7,13.37,13.37,0,0,0-4.06-1.44,12.85,12.85,0,0,0-2.1-.21H475.9l-0.16-7.35h-3.2l-0.26,9.34-0.07,1.48,1.94,0.38a11.16,11.16,0,0,1,2.78,1,12,12,0,0,1,1.21.72,10.33,10.33,0,0,1,2,1.81,11.57,11.57,0,0,1,.79,1.06,11.41,11.41,0,0,1,.63,1.13,11,11,0,0,1,.46,1.18,10.6,10.6,0,0,1,.3,1.21,10.77,10.77,0,0,1,.13,1.22q0,0.12,0,.24V243h0s0-.17,0-0.08V243l0,0.31a11.28,11.28,0,0,1-.19,1.21,10.68,10.68,0,0,1-.34,1.16,10.43,10.43,0,0,1-.49,1.11,10.66,10.66,0,0,1-.64,1,11,11,0,0,1-.77.95,10.74,10.74,0,0,1-.9.84,10.11,10.11,0,0,1-1,.72,9.52,9.52,0,0,1-2.28,1c-0.2.06-.41,0.12-0.62,0.16l-0.56.12-0.44,0h-0.28c-0.22,0-.44,0-0.66,0a10.24,10.24,0,0,1-2.67-.29,11.83,11.83,0,0,1-1.33-.42,10.37,10.37,0,0,1-1.3-.62,11.42,11.42,0,0,1-1.25-.8,11.75,11.75,0,0,1-2.22-2.17,13.44,13.44,0,0,1-.93-1.36,14.25,14.25,0,0,1-.78-1.52c-0.11-.27-0.22-0.54-0.32-0.82s-0.19-.58-0.29-0.87a9.1,9.1,0,0,0-.22.9c-0.07.31-.1,0.62-0.14,0.93a9.15,9.15,0,0,0,0,1,9.56,9.56,0,0,0,0,1,11.64,11.64,0,0,0,1,3.82,12.7,12.7,0,0,0,1,1.79,14.7,14.7,0,0,0,1.31,1.63,15.13,15.13,0,0,0,1.58,1.42,13.46,13.46,0,0,0,1.81,1.17,14.2,14.2,0,0,0,2,.87,14.36,14.36,0,0,0,2.14.55c0.37,0.06.73,0.12,1.1,0.14l0.28,0h0.32l0.44,0c0.38,0,.85,0,1.2,0s0.75-.07,1.12-0.11a14.75,14.75,0,0,0,2.22-.5,15.13,15.13,0,0,0,2.12-.84,15.62,15.62,0,0,0,2-1.17,14.83,14.83,0,0,0,3.3-3.19,15.35,15.35,0,0,0,1.25-1.94,14.86,14.86,0,0,0,1.53-4.35,15.1,15.1,0,0,0,.24-2.29V243Z" transform="translate(-167.03 -69.33)"/><polygon class="cls-20" points="308.87 159.59 308.71 152.27 305.51 152.27 305.3 159.59 308.87 159.59"/><path class="cls-20" d="M489.77,242.8V242l-0.06-.64a14.6,14.6,0,0,0-1.27-4.39,14.29,14.29,0,0,0-1.77-2.84,15.07,15.07,0,0,1,1.16,5.78,15.57,15.57,0,0,1-15.42,15.42,15.18,15.18,0,0,1-7.86-2.21c0.2,0.25.41,0.49,0.63,0.73a15.15,15.15,0,0,0,1.58,1.42,13.46,13.46,0,0,0,1.81,1.17,14.2,14.2,0,0,0,2,.87,14.36,14.36,0,0,0,2.14.55c0.37,0.06.73,0.12,1.1,0.14l0.28,0h0.32l0.44,0c0.38,0,.85,0,1.2,0s0.75-.07,1.12-0.11a14.75,14.75,0,0,0,2.22-.5,15.13,15.13,0,0,0,2.12-.84,15.62,15.62,0,0,0,2-1.17,14.83,14.83,0,0,0,3.3-3.19,15.34,15.34,0,0,0,1.25-1.94,14.86,14.86,0,0,0,1.53-4.35,15.09,15.09,0,0,0,.24-2.29V242.8Z" transform="translate(-167.03 -69.33)"/><rect class="cls-19" x="300.34" y="152.09" width="13.02" height="6.17"/><path class="cls-21" d="M467.37,221.41v1.31a27.8,27.8,0,0,0,9.74.44c2-.31,2.82,2.71.83,3a31.77,31.77,0,0,1-10.57-.28v1.68h13v-6.17h-13Z" transform="translate(-167.03 -69.33)"/><path class="cls-22" d="M488.84,222.37H458.91a3.06,3.06,0,0,1-3-3.55l4.24-26.23a3.06,3.06,0,0,1,3-2.57h21.46a3.06,3.06,0,0,1,3,2.57l4.24,26.23A3.06,3.06,0,0,1,488.84,222.37Z" transform="translate(-167.03 -69.33)"/><polygon class="cls-23" points="292.87 124.65 291.91 130.62 301.84 120.69 296.83 120.69 292.87 124.65"/><polygon class="cls-23" points="312.05 120.69 307.04 120.69 290.9 136.83 289.94 142.8 312.05 120.69"/><path class="cls-23" d="M484.61,190h-0.32L456,218.34l-0.08.48a3,3,0,0,0,1.48,3.12l30-30A3.05,3.05,0,0,0,484.61,190Z" transform="translate(-167.03 -69.33)"/><polygon class="cls-23" points="321.89 131.28 321.19 126.97 295.12 153.04 300.13 153.04 321.89 131.28"/><polygon class="cls-23" points="323.31 140.07 322.61 135.76 305.33 153.04 310.34 153.04 323.31 140.07"/><polygon class="cls-23" points="324.73 148.87 324.03 144.56 315.55 153.04 320.55 153.04 324.73 148.87"/><circle class="cls-24" cx="298.01" cy="127.39" r="2.33"/><path class="cls-25" d="M466.62,195a2.33,2.33,0,0,1-2,3.52,2.15,2.15,0,0,1-1.62-.66A2.32,2.32,0,1,0,466.62,195Z" transform="translate(-167.03 -69.33)"/><circle class="cls-19" cx="298.01" cy="127.39" r="1.52"/><path class="cls-21" d="M465.78,195.7a2.14,2.14,0,0,1,.42,0,1.51,1.51,0,1,0-2.27,2A1.83,1.83,0,0,1,465.78,195.7Z" transform="translate(-167.03 -69.33)"/><circle class="cls-24" cx="315.68" cy="127.39" r="2.33"/><path class="cls-25" d="M484.29,195a2.33,2.33,0,0,1-2,3.52,2.15,2.15,0,0,1-1.62-.66A2.32,2.32,0,1,0,484.29,195Z" transform="translate(-167.03 -69.33)"/><circle class="cls-19" cx="315.68" cy="127.39" r="1.52"/><path class="cls-21" d="M483.45,195.7a2.14,2.14,0,0,1,.42,0,1.51,1.51,0,1,0-2.27,2A1.83,1.83,0,0,1,483.45,195.7Z" transform="translate(-167.03 -69.33)"/><path class="cls-26" d="M491.86,218.82L490.27,209a13.39,13.39,0,0,1-4,7.36c-6.37,5.4-20.75,5.86-27.72,1.31a5.85,5.85,0,0,1-2.09-2.32l-0.56,3.49a3.06,3.06,0,0,0,3,3.55h29.94A3.06,3.06,0,0,0,491.86,218.82Z" transform="translate(-167.03 -69.33)"/><circle class="cls-24" cx="295.92" cy="146.34" r="2.33"/><path class="cls-25" d="M464.53,214a2.33,2.33,0,0,1-2,3.52,2.15,2.15,0,0,1-1.62-.66A2.32,2.32,0,1,0,464.53,214Z" transform="translate(-167.03 -69.33)"/><circle class="cls-19" cx="295.92" cy="146.34" r="1.52"/><path class="cls-21" d="M463.69,214.65a2.14,2.14,0,0,1,.42,0,1.51,1.51,0,1,0-2.27,2A1.83,1.83,0,0,1,463.69,214.65Z" transform="translate(-167.03 -69.33)"/><circle class="cls-24" cx="317.77" cy="146.34" r="2.33"/><path class="cls-25" d="M486.38,214a2.33,2.33,0,0,1-2,3.52,2.15,2.15,0,0,1-1.62-.66A2.32,2.32,0,1,0,486.38,214Z" transform="translate(-167.03 -69.33)"/><circle class="cls-19" cx="317.77" cy="146.34" r="1.52"/><path class="cls-21" d="M485.54,214.65a2.14,2.14,0,0,1,.42,0,1.51,1.51,0,1,0-2.27,2A1.83,1.83,0,0,1,485.54,214.65Z" transform="translate(-167.03 -69.33)"/><path class="cls-19" d="M475.7,260.83a1.47,1.47,0,0,1-1.47-1.47v-9.11a1.47,1.47,0,1,1,2.93,0v9.11A1.47,1.47,0,0,1,475.7,260.83Z" transform="translate(-167.03 -69.33)"/><path class="cls-19" d="M477.94,260.74a1.47,1.47,0,0,1-1.33-.85l-4.11-8.81a1.47,1.47,0,1,1,2.66-1.24l4.11,8.81A1.47,1.47,0,0,1,477.94,260.74Z" transform="translate(-167.03 -69.33)"/><path class="cls-19" d="M473.65,260.68a1.47,1.47,0,0,1-1.35-2l4.1-9.51a1.47,1.47,0,1,1,2.69,1.16l-4.1,9.51A1.47,1.47,0,0,1,473.65,260.68Z" transform="translate(-167.03 -69.33)"/><circle class="cls-11" cx="327.62" cy="376.89" r="1.64" transform="translate(-192.14 -45.95) rotate(-3.94)"/><circle class="cls-27" cx="327.28" cy="376.68" r="1.64" transform="translate(-192.12 -45.97) rotate(-3.94)"/><circle class="cls-11" cx="334.17" cy="373.1" r="1.64" transform="translate(-191.86 -45.51) rotate(-3.94)"/><circle class="cls-28" cx="333.82" cy="372.88" r="1.64" transform="translate(-191.85 -45.53) rotate(-3.94)"/><path class="cls-29" d="M519.8,356.25c-1.63.06-6.19-.18-6.58,0.49s-0.37,2.14-.44,4.1c-0.09,2.28,0,7.34,0,9.63,0,1,2.62,1.26,5.46,1.43,5.44,0.31,10.91.42,16.36,0.39,2.69,0,5.4,0,8.08-.14,1.39-.09,4.83,0,5.68-0.78s0-6.26,0-8.89c0-4.94.16-5.79-3.14-5.79-4.13,0-11-.62-16.35-0.45C525.92,356.33,522.74,356.14,519.8,356.25Z" transform="translate(-167.03 -69.33)"/><path class="cls-30" d="M591.29,356.67c-1.13-.46-6.19-0.24-8.39-0.13-9.29.48-25.77,0.07-26.43,0.18-1.21.21-1.21,2.25-1.21,2.27,0.15,4.51.44,6.94,0.44,11.45,0,1.28,1.22,1.6,2.35,1.6,9,0,16.54.3,25.49-.44,2-.17,7.16,0,8-0.44s0.89-7.31.85-9.64C592.39,360.14,592.42,357.13,591.29,356.67Z" transform="translate(-167.03 -69.33)"/><path class="cls-30" d="M618.32,359.84c0-3.26-.69-2.9-2.69-2.88-6.55.06-11.74-.14-18.3-0.14a2.09,2.09,0,0,0-2.11,2.33,61.24,61.24,0,0,0-.07,7.14c0.12,1.09-.14,3.57.44,4.35,1,1.37,6.48.67,8.3,0.85a85.47,85.47,0,0,0,9,.12c1.44,0,4.55.24,5-.56s0.34-4.07.35-5C618.28,364,618.29,361.87,618.32,359.84Z" transform="translate(-167.03 -69.33)"/><path class="cls-30" d="M599.58,344.24c0.67-3.19-.11-3-2.07-3.35-6.44-1.22-11.49-2.43-17.92-3.71a2.09,2.09,0,0,0-2.53,1.87,61.24,61.24,0,0,0-1.46,7c-0.1,1.09-.84,3.48-0.42,4.35,0.73,1.54,6.23,1.93,8,2.46a85.47,85.47,0,0,0,8.81,1.88c1.42,0.27,4.41,1.13,5,.43s1.13-3.92,1.33-4.85C598.73,348.31,599.16,346.24,599.58,344.24Z" transform="translate(-167.03 -69.33)"/><path class="cls-30" d="M529.34,376.7c-1.88,0-5-.62-7.46-0.45-1.34.09-2.79-.09-4.14,0-0.74.06-2.82-.18-3,0.49a25.86,25.86,0,0,0-.2,4.11c0,2.28,0,7.36,0,9.64,0,1,1.19,1.27,2.49,1.43a55.83,55.83,0,0,0,7.47.39,29.29,29.29,0,0,0,3.69-.14c0.64-.09,2.2,0,2.59-0.78s0-6.27,0-8.9C530.77,377.56,530.85,376.7,529.34,376.7Z" transform="translate(-167.03 -69.33)"/><path class="cls-30" d="M535,376.73c-0.46.21-.46,2.25-0.46,2.28,0.06,4.51.17,6.95,0.17,11.47,0,1.28.47,1.61,0.9,1.61,3.44,0,6.33.31,9.76-.44,0.79-.17,2.74,0,3.07-0.44s0.34-7.32.33-9.66c0-1.38,0-4.39-.43-4.86s-2.37-.24-3.21-0.13C541.55,377,535.23,376.62,535,376.73Z" transform="translate(-167.03 -69.33)"/><path class="cls-29" d="M588,379.17a56.13,56.13,0,0,0-.08,7.15c0.13,1.09-.16,3.58.48,4.36,1.12,1.37,7.1.67,9.09,0.85,3.34,0.3,6.51.13,9.86,0.12,1.58,0,5,.24,5.48-0.56s0.37-4.07.39-5c0-2,0-4.17.07-6.21,0-3.26-.75-2.9-2.94-2.88-7.17.06-12.86-.14-20-0.14A2.18,2.18,0,0,0,588,379.17Z" transform="translate(-167.03 -69.33)"/><path class="cls-29" d="M605.7,456.35a56.13,56.13,0,0,0-.08,7.15c0.13,1.09-.16,3.58.48,4.36,1.12,1.37,7.1.67,9.09,0.85,3.34,0.3,6.51.13,9.86,0.12,1.58,0,5,.24,5.48-0.56s0.37-4.07.39-5c0-2,0-4.17.07-6.21,0-3.26-.75-2.9-2.94-2.88-7.17.06-12.86-.14-20-0.14A2.18,2.18,0,0,0,605.7,456.35Z" transform="translate(-167.03 -69.33)"/><path class="cls-30" d="M616.15,377.23C616,378.29,616,383,616,384.77s0,3.24,0,5.08c0,2.35.86,1.89,1.81,2a46.82,46.82,0,0,0,13.21-.41,0.71,0.71,0,0,0,.32-0.66c0-2.45,0-3.83,0-6.28,0-1.79.09-3.85,0-5.64-0.12-2.57-.2-2.14-1.88-2.2C625.05,376.45,616.33,376.16,616.15,377.23Z" transform="translate(-167.03 -69.33)"/><path class="cls-30" d="M533.43,395.76c-2.85.09-5.92-.09-8.76,0-1.57.06-6-.18-6.36,0.49s-0.35,2.14-.43,4.11c-0.09,2.28,0,7.36,0,9.64,0,1,2.53,1.27,5.27,1.43,5.26,0.31,10.54.42,15.8,0.39,2.6,0,5.22,0,7.81-.14,1.35-.09,4.67,0,5.49-0.78s0-6.27,0-8.9c0-4.95.16-5.8-3-5.8C545.23,396.21,538.63,395.59,533.43,395.76Z" transform="translate(-167.03 -69.33)"/><path class="cls-30" d="M637.65,399.37c0.07-3.26-1.26-2.9-4.92-2.88-12,.06-21.5-0.14-33.5-0.14-2.44,0-3.86,1-3.86,2.33s-0.61,4.76-.13,7.15c0.22,1.09-.26,3.58.8,4.36,1.87,1.37,11.87.67,15.2,0.85,5.59,0.3,10.89.13,16.49,0.12,2.64,0,8.33.24,9.16-.56s0.63-4.07.65-5C637.58,403.53,637.6,401.41,637.65,399.37Z" transform="translate(-167.03 -69.33)"/><path class="cls-30" d="M530,435c-2.83.09-5.89-.09-8.72,0-1.56.06-6-.18-6.33,0.49s-0.35,2.14-.43,4.11c-0.09,2.28,0,7.36,0,9.64,0,1,2.52,1.27,5.25,1.43,5.23,0.31,10.49.42,15.73,0.39,2.59,0,5.2,0,7.77-.14,1.34-.09,4.64,0,5.46-0.78s0-6.27,0-8.9c0-4.95.16-5.8-3-5.8C541.79,435.46,535.21,434.85,530,435Z" transform="translate(-167.03 -69.33)"/><path class="cls-30" d="M637.65,438.62c0.07-3.26-1.26-2.9-4.92-2.88-12,.06-21.5-0.14-33.5-0.14-2.44,0-3.86,1-3.86,2.33s-0.61,4.76-.13,7.15c0.22,1.09-.26,3.58.8,4.36,1.87,1.37,11.87.67,15.2,0.85,5.59,0.3,10.89.13,16.49,0.12,2.64,0,8.33.24,9.16-.56s0.63-4.07.65-5C637.58,442.78,637.6,440.66,637.65,438.62Z" transform="translate(-167.03 -69.33)"/><path class="cls-31" d="M514.66,415.28c-1,.06-3.67-0.18-3.91.49a20,20,0,0,0-.26,4.11c-0.05,2.28,0,7.36,0,9.64,0,1,1.55,1.27,3.24,1.43a94.2,94.2,0,0,0,9.71.39c1.6,0,3.21,0,4.8-.14,0.83-.09,2.87,0,3.37-0.78s0-6.27,0-8.9c0-4.95.1-5.8-1.86-5.8-2.45,0-6.51-.62-9.7-0.45C518.29,415.36,516.41,415.18,514.66,415.28Z" transform="translate(-167.03 -69.33)"/><path class="cls-30" d="M550.16,430.22c0.37-.47.38-7.32,0.37-9.66,0-1.38,0-4.39-.48-4.86s-2.67-.24-3.62-0.13c-4,.48-11.11.07-11.39,0.18-0.52.21-.52,2.25-0.52,2.28,0.06,4.51.19,6.95,0.19,11.47,0,1.28.53,1.61,1,1.61,3.87,0,7.13.31,11-.44C547.59,430.49,549.79,430.69,550.16,430.22Z" transform="translate(-167.03 -69.33)"/><path class="cls-29" d="M608.05,430.67c1.4,0,4.41.24,4.85-.56s0.33-4.07.34-5c0-2,0-4.17.06-6.21,0-3.26-.67-2.9-2.61-2.88-6.35.06-11.39-.14-17.75-0.14a2.07,2.07,0,0,0-2,2.33,63.33,63.33,0,0,0-.07,7.15c0.12,1.09-.14,3.58.42,4.36,1,1.37,6.29.67,8.06,0.85A80.12,80.12,0,0,0,608.05,430.67Z" transform="translate(-167.03 -69.33)"/><path class="cls-30" d="M630.92,430.43a0.71,0.71,0,0,0,.31-0.66c0-2.45,0-3.83,0-6.28,0-1.79.09-3.85,0-5.64-0.12-2.57-.19-2.14-1.87-2.2-4.41-.17-13.08-0.46-13.26.61S616,422,616,423.79s0,3.24,0,5.08c0,2.35.85,1.89,1.8,2A46.2,46.2,0,0,0,630.92,430.43Z" transform="translate(-167.03 -69.33)"/><path class="cls-30" d="M520.34,467.84c5.76,0.27,11.55.36,17.32,0.34,2.85,0,5.72,0,8.56-.12,1.48-.07,5.11,0,6-0.67s0-5.41,0-7.68c0-4.27.17-5-3.32-5-4.37,0-11.61-.53-17.3-0.39-3.12.08-6.48-.08-9.6,0-1.72.05-6.55-.15-7,0.42s-0.39,1.85-.47,3.54c-0.1,2,0,6.35,0,8.32C514.56,467.46,517.33,467.7,520.34,467.84Z" transform="translate(-167.03 -69.33)"/><path class="cls-30" d="M558,468c9,0,16.54.26,25.49-.38,2-.15,7.16,0,8-0.38s0.89-6.31.85-8.33c0-1.19,0-3.79-1.12-4.19s-6.19-.21-8.39-0.11c-9.29.42-25.77,0.06-26.43,0.16-1.21.18-1.21,1.94-1.21,2,0.15,3.89.44,6,.44,9.89C555.7,467.7,556.92,468,558,468Z" transform="translate(-167.03 -69.33)"/><path class="cls-30" d="M618.24,457.43c0-2.81-.69-2.5-2.68-2.49-6.53.05-11.71-.12-18.24-0.12a1.93,1.93,0,0,0-2.1,2,45.87,45.87,0,0,0-.07,6.17c0.12,0.94-.14,3.09.44,3.76,1,1.18,6.46.58,8.28,0.73,3,0.26,5.93.12,9,.1,1.44,0,4.54.21,5-.49s0.34-3.51.35-4.33C618.21,461,618.22,459.19,618.24,457.43Z" transform="translate(-167.03 -69.33)"/><path class="cls-30" d="M530.14,471.54c-2,0-5.27-.53-7.86-0.39-1.42.08-2.94-.08-4.36,0-0.78.05-3-.15-3.16,0.42a18.32,18.32,0,0,0-.21,3.54c0,2,0,6.35,0,8.32,0,0.85,1.26,1.09,2.63,1.23A71.76,71.76,0,0,0,525,485a37.84,37.84,0,0,0,3.89-.12c0.67-.07,2.32,0,2.73-0.67s0-5.41,0-7.68C531.65,472.28,531.73,471.54,530.14,471.54Z" transform="translate(-167.03 -69.33)"/><path class="cls-31" d="M570.55,471.52c-1.13-.4-6.19-0.21-8.39-0.11-9.29.42-25.77,0.06-26.43,0.16-1.21.18-1.21,1.94-1.21,2,0.15,3.89.44,6,.44,9.89,0,1.11,1.22,1.39,2.35,1.39,9,0,16.54.26,25.49-.38,2-.15,7.16,0,8-0.38s0.89-6.31.86-8.33C571.64,474.52,571.68,471.92,570.55,471.52Z" transform="translate(-167.03 -69.33)"/><path class="cls-30" d="M600.57,474.26c0-2.81-.78-2.5-3-2.49-7.38.05-13.23-.12-20.61-0.12-1.5,0-2.38.84-2.38,2a40.61,40.61,0,0,0-.08,6.17c0.14,0.94-.16,3.09.49,3.76,1.15,1.18,7.3.58,9.35,0.73,3.44,0.26,6.7.12,10.15,0.1,1.62,0,5.13.21,5.63-.49s0.39-3.51.4-4.33C600.53,477.85,600.54,476,600.57,474.26Z" transform="translate(-167.03 -69.33)"/><path class="cls-30" d="M517.16,352.41a62.05,62.05,0,0,0,7.87.39,32.7,32.7,0,0,0,3.89-.14c0.67-.09,2.32,0,2.73-0.78s0-6.26,0-8.89c0-4.94.08-5.79-1.51-5.79-2,0-5.27-.62-7.86-0.45-1.42.09-2.94-.09-4.36,0-0.78.06-3-.18-3.16,0.49a24.47,24.47,0,0,0-.21,4.1c0,2.28,0,7.34,0,9.63C514.54,352,515.8,352.24,517.16,352.41Z" transform="translate(-167.03 -69.33)"/><path class="cls-31" d="M536.77,352.56c7.26,0,13.36.3,20.6-.44,1.66-.17,5.78,0,6.48-0.44s0.72-7.31.69-9.64c0-1.38,0-4.39-.9-4.85s-5-.24-6.78-0.13c-7.51.48-20.83,0.07-21.36,0.18-1,.21-1,2.25-1,2.27,0.12,4.51.36,6.94,0.36,11.45A1.61,1.61,0,0,0,536.77,352.56Z" transform="translate(-167.03 -69.33)"/><path class="cls-32" d="M662.13,471.57c0-2.56-2.8-4.36-4.71-4.69-5.79-1-13.64-1.27-17.7-2.85-2.37-.92-4.25-2.75-6.28-4.28-6.61-5-15.1-7-23.38-7.07s-26.09,1-24.93,3.89,9.68,3.35,9.59,5.42c-0.13,2.87-3.3,4.6-6.14,5-3.77.55-7.59-.18-11.39-0.22s-7.94.79-10.42,3.68-2.06,8.25,1.48,9.65c-3,.87-6,1.8-8.27,3.93s-3.3,5.82-1.52,8.35,5.63,2.79,8.86,2.68l62.66-2.13c6.92-.24,13.71-1.57,20.61-2.19,9.76-.88,20.14-4.13,19.4-8.49-0.64-3.79-5.23-5.43-9.07-5.45S662.13,474.12,662.13,471.57Z" transform="translate(-167.03 -69.33)"/><path class="cls-33" d="M599,476.07a2.53,2.53,0,1,0-2.53-2.53,2.57,2.57,0,0,0,2.53,2.53h0Z" transform="translate(-167.03 -69.33)"/><path class="cls-33" d="M604.42,464c3.23,0,3.23-5,0-5s-3.23,5,0,5h0Z" transform="translate(-167.03 -69.33)"/><path class="cls-33" d="M617.17,472.28l-0.53-.68a2.69,2.69,0,0,0-3-.57,2.72,2.72,0,0,0-1.68,2.51,2.86,2.86,0,0,0,1.36,2.37,2.77,2.77,0,0,0,3.32-.43l0.53-.68a1.86,1.86,0,0,0,0-2.52h0Z" transform="translate(-167.03 -69.33)"/><path class="cls-33" d="M630.41,484.1a2.7,2.7,0,1,0-2.7-2.7,2.74,2.74,0,0,0,2.7,2.7h0Z" transform="translate(-167.03 -69.33)"/><path class="cls-33" d="M641.9,475.8c2.9,0,2.9-4.51,0-4.51s-2.9,4.51,0,4.51h0Z" transform="translate(-167.03 -69.33)"/><path class="cls-33" d="M579,483.46c3.42,0,3.43-5.31,0-5.31s-3.43,5.31,0,5.31h0Z" transform="translate(-167.03 -69.33)"/><path class="cls-33" d="M597.7,485.22l-0.23-.5a2.14,2.14,0,0,0-1.91-1.1l-0.2,0a2.06,2.06,0,0,0-2,2c0,0.07,0,.13,0,0.2a2.15,2.15,0,0,0,1.1,1.91l0.5,0.23a2,2,0,0,0,2.76-2.76h0Z" transform="translate(-167.03 -69.33)"/><g class="cls-34"><path class="cls-32" d="M606.24,460.58c-0.79,1.62-2.48,2.65-3.71,3.89-1.77,1.79-.71,3.3,1.88,3.36a10.19,10.19,0,0,0,4.27-1.45c4.8-2.35,13.42-8.74,13.42-8.74a7.91,7.91,0,0,1,1,2.28,2.66,2.66,0,0,0,3.1,2,30.06,30.06,0,0,0,7.28-2.16h0c-6.62-5-15.12-7-23.42-7.09-1.29,0-2.81,0-4.45,0C607.41,454.44,608,456.94,606.24,460.58Z" transform="translate(-167.03 -69.33)"/></g><g class="cls-35"><path class="cls-32" d="M667,478.71a11.87,11.87,0,0,0-6.31-1.91c-3.51-.1,1.42-2.72,1.42-5.23a4.44,4.44,0,0,0-2-3.45c-0.22.21-.43,0.41-0.68,0.62a41,41,0,0,1-16.39,8.4c-3.62.84-9.87-3.34-13.17-1.57-2.45,1.31-3.17,6.88-5.91,7.55s-4-.74-4.63-2.83a4.81,4.81,0,0,0-7.28-2.56c-12.24,8.05-32.62,16.62-39.94,12.42s3-10.28,4.91-14a3.26,3.26,0,0,0-2-4.59c-2.06-.63-4.24-1.72-4.75-3.58a9.37,9.37,0,0,0-3.53,2.5c-2.47,2.89-2.06,8.25,1.48,9.65-3.56,1-7.29,2.19-9.52,5.38a6.16,6.16,0,0,0-.72,6.14c1.63,3.37,5.79,3.56,9.3,3.44l62.66-2.13c6.92-.24,13.71-1.57,20.61-2.19C662.81,489.64,676.05,484.8,667,478.71Z" transform="translate(-167.03 -69.33)"/></g><path class="cls-36" d="M649.07,455.12a7.17,7.17,0,0,0-2.38-.69c-2-.18-6.09-0.88-7.69-0.31s-7.88,8.07-10.23,12.23c-0.42.75-.84,1.72-0.31,2.4s1.63,0.51,2.47.26l4.6-1.39c5.72-1.73,16.36-6.25,17.15-7.08S651.06,456.05,649.07,455.12Z" transform="translate(-167.03 -69.33)"/><path class="cls-37" d="M642.56,459.17c0.18,0.72,5.82-.05,9.41-1.22a8.21,8.21,0,0,0-2.9-2.83,7.17,7.17,0,0,0-2.38-.69c-0.47,0-1-.11-1.68-0.19C643.65,455.93,642.41,458.57,642.56,459.17Z" transform="translate(-167.03 -69.33)"/><g class="cls-34"><path class="cls-36" d="M649.07,455.12a7.17,7.17,0,0,0-2.38-.69c-2-.18-6.09-0.88-7.69-0.31s-7.88,8.07-10.23,12.23c-0.42.75-.84,1.72-0.31,2.4Z" transform="translate(-167.03 -69.33)"/></g><path class="cls-38" d="M650.52,448.67c-1.81-.84-2.44,2.54-2.67,3.58a7.25,7.25,0,0,1-.7,2.51,1.76,1.76,0,0,0-.55,1.23,1,1,0,0,0,.65.86,1.08,1.08,0,0,0,1.09-.14c1.17-1,1.36-2.44,1.63-3.88,0.14-.72.14-1.45,0.28-2.17a6.62,6.62,0,0,0,.51-1.68,0.41,0.41,0,0,0-.24-0.32h0Z" transform="translate(-167.03 -69.33)"/><path class="cls-39" d="M649.59,450.81c1.94,0.09,3.71-2.11,5-3.33,1.57-1.44,3.09-2.94,4.71-4.31a2,2,0,1,0-2.82-2.86c-1.47,1.46-2.91,2.93-4.3,4.47-0.67.74-1.34,1.47-2,2.21s-1.54,1.53-1.58,2.58a1.11,1.11,0,0,0,.94,1.24h0Z" transform="translate(-167.03 -69.33)"/><path class="cls-36" d="M652.62,449.41a3.06,3.06,0,0,0-.44-1.28,2.33,2.33,0,0,0-2-1.06,4.38,4.38,0,0,0-1.52,2.51,1.11,1.11,0,0,0,.94,1.24A4.58,4.58,0,0,0,652.62,449.41Z" transform="translate(-167.03 -69.33)"/><text class="cls-40" transform="translate(224.42 367.66) rotate(9.27)">2</text><g class="cls-41"><path class="cls-23" d="M526.3,425.6l-5.5,32.12L397.66,438.59l73.69-55.09c10.53-7.9,21.32-19.73,23.61-33.08,1.59-9.29-3.66-20-14.23-21.68-10.77-1.67-18,5.34-19.71,15.21a33.86,33.86,0,0,0-.45,6.29l-43.89-6.82c7-33.28,33.19-52.45,69.36-46.83,32.11,5,55.68,29.31,50.24,61-3.58,20.9-14.81,31.66-32.78,42.78l-27.39,17.4Z" transform="translate(-167.03 -69.33)"/></g><ellipse class="cls-42" cx="286.99" cy="413.01" rx="46.98" ry="5.87"/><path class="cls-32" d="M623.66,464.09s10.51-.39,11.87,3.52-4.1,4.58-4.1,4.58h-7.76v-8.1Z" transform="translate(-167.03 -69.33)"/><path class="cls-43" d="M200.76,396.06l1.07-5-0.62-.12-2.26-.42-0.4-.08-0.44-.82-3.65-6.82-1.74-3.25-0.38-.72,3.49-1.3,4.24-1.58,8.74-3.25,1.91,3.51,0.2,2.61v0.08l3.89,3.31-1.68,2.9,1,5.82-3.31,1.8-1.52-.28-0.07,4.91C206.66,397.57,203.12,395.88,200.76,396.06Z" transform="translate(-167.03 -69.33)"/><path class="cls-44" d="M198.11,389.62l0.85,0.9,2.26,0.42,1.1-4.31-2.55-.9-0.63-2.12,1.61-1.85,1.48,0.79c0.68-2.77.74-6,.57-5.68l-2.72-.91-7.73,2.87Z" transform="translate(-167.03 -69.33)"/><path class="cls-45" d="M194.46,382.8c5.33-.91,13-3,16.46-4l-0.2-2.61-1.91-3.51L200.06,376l-4.24,1.58c-1.14.71-2.19,1.4-3.1,2Z" transform="translate(-167.03 -69.33)"/><path class="cls-46" d="M210.55,373.54s2.57-1,3.47-.58c0.72,0.31,3.38,2,2,2.62s-25.1,8-24.93,6.65-0.7-2.06,1.72-2.74Z" transform="translate(-167.03 -69.33)"/><path class="cls-47" d="M192,380.41s3.91,0.55,10.19-1.59a68,68,0,0,0,9.81-4.28,18.62,18.62,0,0,0-1.64-4c-0.18-.32-0.37-0.61-0.56-0.9-3.35-4.94-8.54-5.14-12.72-3.18a10.53,10.53,0,0,0-6,10.65c0,0.06,0,.12,0,0.18A10.45,10.45,0,0,0,192,380.41Z" transform="translate(-167.03 -69.33)"/><path class="cls-46" d="M191.05,377.3l0-.05c0.1-.17.24-0.42,0.41-0.74l0.28-.53c0.12-.18.23-0.39,0.36-0.6l0.4-.68L193,374l0.26-.39c0.09-.13.19-0.25,0.29-0.38s0.39-.54.62-0.8l0.7-.79,0.78-.76c0.29-.22.57-0.47,0.87-0.69l0.47-.31,0.24-.16,0.25-.13,0.5-.27,0.52-.23a9.32,9.32,0,0,1,1.08-.38l0.56-.12,0.28-.06,0.28,0,0.57-.07,0.57,0a12.68,12.68,0,0,1,2.25.14c0.37,0,.72.14,1.07,0.2s0.7,0.16,1,.26c0.67,0.18,1.28.41,1.86,0.62s1.09,0.43,1.54.64l0.7,0.32c-0.18-.32-0.37-0.61-0.56-0.9-0.39-.27-0.83-0.54-1.33-0.82a16.54,16.54,0,0,0-1.85-.88c-0.34-.15-0.7-0.25-1.07-0.38s-0.75-.22-1.15-0.3a11.34,11.34,0,0,0-2.51-.29,10.55,10.55,0,0,0-2.62.33,10.11,10.11,0,0,0-1.26.45c-0.2.09-.41,0.18-0.61,0.28l-0.57.33-0.28.16-0.27.19-0.52.38c-0.33.27-.63,0.56-0.94,0.83s-0.54.6-.8,0.9l-0.68.93c-0.2.3-.38,0.62-0.56,0.92s-0.17.3-.25,0.45l-0.21.44-0.38.83-0.28.77c-0.09.24-.17,0.47-0.24,0.67s-0.11.41-.16,0.59-0.14.54-.19,0.72S191,377.24,191.05,377.3Z" transform="translate(-167.03 -69.33)"/><path class="cls-46" d="M205.35,377.73s-0.4-2.37-.95-2.5-5.45,1.2-5.66,1.61a7.93,7.93,0,0,0,.56,3.28Z" transform="translate(-167.03 -69.33)"/><path class="cls-48" d="M204.93,411.78l19.31-5.92,11.31-14.7-2.22-3.71-13.11,12.87s-19.43,3.6-19.47,3.63Z" transform="translate(-167.03 -69.33)"/><polygon class="cls-49" points="62.19 295.49 61.95 283.82 66.5 283.82 67.1 285.38 63.81 285.5 64.03 295.49 68.36 295.49 68.51 295.57 72.26 295.57 72.26 311.14 70.73 311.14 70.47 296.96 62.24 297.02 62.2 296 62.2 296 62.2 295.99 62.18 295.49 62.19 295.49"/><path class="cls-46" d="M185.21,460.71l5.9-24.25,0.08-.28c1.41,3,5.51,11.72,8.55,17.92L195.13,465l-7.91,8.93-11.73-1.13Z" transform="translate(-167.03 -69.33)"/><polygon class="cls-50" points="8.46 403.48 20.18 404.61 12.4 415.61 17.8 418.51 18.85 423.55 0 418.51 8.46 403.48"/><polygon class="cls-43" points="44.61 352.48 44.55 353.11 44.61 352.48 44.61 352.48"/><polygon class="cls-43" points="43.16 359.37 41.67 366.07 44.55 353.11 43.16 359.37"/><path class="cls-43" d="M203.55,471.56c-0.05-6.06-.12-11.07-0.27-10.84C203.45,460.45,203.52,464.77,203.55,471.56Z" transform="translate(-167.03 -69.33)"/><path class="cls-50" d="M212.08,416.61l-9.35,2.54-4.78-17.36,12.5-1.75a31.38,31.38,0,0,1,3.86,7.78Z" transform="translate(-167.03 -69.33)"/><path class="cls-50" d="M201.59,393.94l7.62,3.43h0l-11.26.78Z" transform="translate(-167.03 -69.33)"/><path class="cls-47" d="M190.69,435.12l4.75-15.71-1.87-16.15,4.37-5.09,11.26-.78,1.24,2.65-12.5,1.75,4.78,17.36,9.35-2.54-0.44,5.2-0.05.62-2.89,13,5.64,19-1.21,19.33,0.05-.91h-9.62c0,0.39,0,.8,0,1.19h0c0-.85,0-1.66,0-2.44,0-6.79-.1-11.11-0.27-10.84s-1.62-2.7-3.54-6.62c-3-6.2-7.15-14.93-8.55-17.92Z" transform="translate(-167.03 -69.33)"/><path class="cls-50" d="M213.19,472.81l-0.05.91-0.74,11.95,6.86,3,2.11,4.46-17.78-1.4s0-7.16,0-14.59c0-1.05,0-2.1,0-3.14,0-.4,0-0.8,0-1.19h9.62Z" transform="translate(-167.03 -69.33)"/><path class="cls-51" d="M231.57,355a3.68,3.68,0,0,1,3.63-3.72h0l19.39-.24,0.09,7.34-19.39.24h0A3.67,3.67,0,0,1,231.57,355Z" transform="translate(-167.03 -69.33)"/><circle class="cls-52" cx="254.63" cy="354.71" r="3.67" transform="translate(-171.53 -66.06) rotate(-0.73)"/><path class="cls-43" d="M201.46,405.32L205,425.21l16.86,12.66,3.95-1.75L211,421.9s-0.66-12.28-.95-16Z" transform="translate(-167.03 -69.33)"/><path class="cls-53" d="M218.64,453.74l1.53-.17c0-.06-0.61-6,2.36-9.31a8,8,0,0,1,11,0c3,3.3,2.37,9.25,2.36,9.31l1.53,0.17c0-.27.69-6.68-2.74-10.5a9.54,9.54,0,0,0-13.34,0C218,447.06,218.61,453.47,218.64,453.74Z" transform="translate(-167.03 -69.33)"/><path class="cls-50" d="M219.4,467.91s3,2.47,8.65,2.47,8.65-2.47,8.65-2.47V452H219.4v15.93Z" transform="translate(-167.03 -69.33)"/><polygon class="cls-43" points="58.76 366.8 65.5 369.31 63.42 377.5 54.49 371.76 54.38 368.23 58.76 366.8"/><rect class="cls-47" x="69.96" y="305.9" width="4.61" height="19.7"/><polygon class="cls-48" points="66.29 318.58 68.43 313.62 76.09 311.14 76.09 320.79 71.69 322.91 67.38 323.44 66.29 318.58"/><ellipse class="cls-50" cx="61.02" cy="382.65" rx="8.65" ry="1.24"/><ellipse class="cls-53" cx="61.02" cy="383.17" rx="7.94" ry="1.24"/></g></g></svg>