<svg id="Layer_1" data-name="Layer 1" xmlns="http://www.w3.org/2000/svg" xmlns:xlink="http://www.w3.org/1999/xlink" width="2418" height="311.1" viewBox="0 0 2418 311.1">
  <defs>
    <style>
      .cls-1 {
        fill: none;
      }

      .cls-2 {
        fill: #c52335;
      }

      .cls-3 {
        clip-path: url(#clip-path);
      }

      .cls-4 {
        isolation: isolate;
      }
    </style>
    <clipPath id="clip-path">
      <path class="cls-1" d="M257.9,287.5c0-20.4-10-24.9-25-24.9-14.6,0-25,4.5-25,24.9,0,19.9,13.1,22.3,25,22.3C248,309.8,257.9,305.2,257.9,287.5Z"/>
    </clipPath>
  </defs>
  <title>Zeichenfläche 1</title>
  <path id="path5365" class="cls-2" d="M233.5,25h-.1c22.9,0,51.7,41.3,51.7,83.7,0,66.8-48.4,129.6-51.8,129.6h.2c35.8,0,101.5-75.1,101.5-130.7S288.5,25,233.5,25Z"/>
  <path id="path5367" class="cls-2" d="M181.9,108.7c0-49.7,35.5-83.6,50.9-83.7C189.5,25.2,132,47.3,132,110.5c0,55.4,68.8,127,101,127.7C227.5,238,181.9,174.9,181.9,108.7Z"/>
  <path id="path5369" class="cls-2" d="M257.9,287.5c0-20.4-10-24.9-25-24.9-14.6,0-25,4.5-25,24.9,0,19.9,13.1,22.3,25,22.3C248,309.8,257.9,305.2,257.9,287.5Z"/>
  <g id="g5371">
    <g class="cls-3">
      <g id="g5379">
        <path id="path5381" class="cls-2" d="M257.9,287.5c0-20.4-10-24.9-25-24.9-14.6,0-25,4.5-25,24.9,0,19.9,13.1,22.3,25,22.3C248,309.8,257.9,305.2,257.9,287.5Z"/>
      </g>
    </g>
  </g>
  <g id="text5975" class="cls-4">
    <g class="cls-4">
      <path class="cls-2" d="M1778.78,307.6V250.72h19.92q10.35,0,15.7,4t5.35,11.62a12.84,12.84,0,0,1-2.14,7.36,12.43,12.43,0,0,1-6,4.67,12,12,0,0,1,6.89,4.42,13,13,0,0,1,2.52,8.12q0,8.21-5.23,12.42t-14.92,4.3Zm11.72-33.05h8.67q8.86-.15,8.87-7.07,0-3.87-2.25-5.56c-1.5-1.14-3.86-1.7-7.09-1.7h-8.2Zm0,8.28v15.36h10a9.67,9.67,0,0,0,6.46-2,6.75,6.75,0,0,0,2.32-5.45q0-7.8-8.08-7.93Z"/>
      <path class="cls-2" d="M1864.05,283h-22.5v15.24H1868v9.41h-38.13V250.72h38.05v9.5h-26.33v13.55h22.5Z"/>
      <path class="cls-2" d="M1895.89,286.78h-9.34V307.6h-11.72V250.72H1896q10.08,0,15.55,4.5t5.47,12.69a17.5,17.5,0,0,1-2.52,9.71,17.18,17.18,0,0,1-7.64,6.19l12.31,23.24v.55h-12.58Zm-9.34-9.49H1896a9.68,9.68,0,0,0,6.84-2.25,8,8,0,0,0,2.42-6.19,8.62,8.62,0,0,0-2.28-6.33c-1.53-1.53-3.86-2.3-7-2.3h-9.41Z"/>
      <path class="cls-2" d="M1937.61,298.19h24.88v9.41h-36.6V250.72h11.72Z"/>
      <path class="cls-2" d="M1981.67,307.6H1970V250.72h11.72Z"/>
      <path class="cls-2" d="M2038.78,307.6h-11.72l-22.81-37.42V307.6h-11.72V250.72h11.72l22.85,37.5v-37.5h11.68Z"/>
    </g>
  </g>
  <g id="text5975-2" data-name="text5975" class="cls-4">
    <g class="cls-4">
      <path class="cls-2" d="M1815.85,216.18q0,11.81-4.89,18t-14.29,6.25q-9.3,0-14.22-6.13t-5-17.58V206.3q0-11.91,4.94-18.08t14.24-6.18q9.3,0,14.22,6.12t5,17.56Zm-11.29-11.51q0-7.06-1.93-10.3a6.54,6.54,0,0,0-6-3.22,6.42,6.42,0,0,0-5.88,3.06q-1.89,3.07-2,9.6v13.85q0,7,1.89,10.34a6.47,6.47,0,0,0,6.08,3.38,6.32,6.32,0,0,0,6-3.25q1.84-3.24,1.92-9.93Z"/>
      <path class="cls-2" d="M1860.54,197.94a13.27,13.27,0,0,1-2.08,7.35,14.88,14.88,0,0,1-5.7,5.11,16.48,16.48,0,0,1,6.56,5.49,14,14,0,0,1,2.43,8.22q0,7.59-5.16,12t-14,4.39q-8.88,0-14.07-4.41t-5.19-12a14.21,14.21,0,0,1,2.42-8.24,16.28,16.28,0,0,1,6.52-5.47,14.75,14.75,0,0,1-5.68-5.11,13.33,13.33,0,0,1-2-7.35q0-7.26,4.84-11.58t13.17-4.32q8.28,0,13.14,4.28T1860.54,197.94Zm-10.12,25.35a8.18,8.18,0,0,0-2.15-5.93,8.58,8.58,0,0,0-11.52,0,9.25,9.25,0,0,0,0,11.81,8.8,8.8,0,0,0,11.62.08A8.16,8.16,0,0,0,1850.42,223.29Zm-1.17-24.8a7.82,7.82,0,0,0-1.76-5.33,7.15,7.15,0,0,0-9.88-.06,7.73,7.73,0,0,0-1.76,5.39,8.13,8.13,0,0,0,1.76,5.47,7,7,0,0,0,9.9,0A8.23,8.23,0,0,0,1849.25,198.49Z"/>
      <path class="cls-2" d="M1891.79,219.9h-22v-9.11h22Z"/>
      <path class="cls-2" d="M1938.66,216.18q0,11.81-4.88,18t-14.3,6.25q-9.3,0-14.22-6.13t-5-17.58V206.3q0-11.91,4.94-18.08T1919.4,182q9.3,0,14.22,6.12t5,17.56Zm-11.29-11.51q0-7.06-1.93-10.3a6.53,6.53,0,0,0-6-3.22,6.44,6.44,0,0,0-5.88,3.06q-1.89,3.07-2,9.6v13.85q0,7,1.9,10.34a6.44,6.44,0,0,0,6.07,3.38,6.34,6.34,0,0,0,6-3.25q1.83-3.24,1.91-9.93Z"/>
      <path class="cls-2" d="M1972.68,217a14.24,14.24,0,0,1-10.31,4.33,15.24,15.24,0,0,1-12.07-5.17q-4.53-5.17-4.53-14a21.75,21.75,0,0,1,2.44-10.25,17.92,17.92,0,0,1,6.82-7.27,18.89,18.89,0,0,1,9.84-2.6,18.06,18.06,0,0,1,10,2.82,18.5,18.5,0,0,1,6.8,8.08,29.18,29.18,0,0,1,2.46,12.07v4.18q0,14.22-7.07,22.35t-20,8.67l-2.77,0v-9.42l2.5,0Q1971.47,230.13,1972.68,217Zm-7.54-4.3a7.86,7.86,0,0,0,4.71-1.41,9.31,9.31,0,0,0,3-3.4v-4.64q0-5.75-2.19-8.91a6.78,6.78,0,0,0-5.86-3.16,6.58,6.58,0,0,0-5.58,3.1A13.19,13.19,0,0,0,1957,202a12.85,12.85,0,0,0,2.13,7.64A6.94,6.94,0,0,0,1965.14,212.67Z"/>
      <path class="cls-2" d="M2028.62,182.83l14.61,41.25,14.53-41.25h15.39V239.7h-11.76V224.15l1.18-26.83-15.36,42.38h-8l-15.31-42.34,1.17,26.79V239.7h-11.72V182.83Z"/>
      <path class="cls-2" d="M2116.2,228h-20.55l-3.9,11.72h-12.46l21.17-56.87h10.86l21.29,56.87h-12.47Zm-17.38-9.49H2113l-7.15-21.29Z"/>
      <path class="cls-2" d="M2151.67,208.45l11.83-25.62h12.82l-18.68,36.25V239.7h-11.91V219.08l-18.67-36.25h12.85Z"/>
      <path class="cls-2" d="M2239.21,239.7h-39V232l18.4-19.61a45,45,0,0,0,5.61-7.23,11.61,11.61,0,0,0,1.81-5.86,8.74,8.74,0,0,0-1.91-6,6.93,6.93,0,0,0-5.47-2.16,7.43,7.43,0,0,0-6,2.63,10.41,10.41,0,0,0-2.21,6.94h-11.33a18.71,18.71,0,0,1,2.48-9.5,17.42,17.42,0,0,1,7-6.73,21.31,21.31,0,0,1,10.28-2.45c5.85,0,10.41,1.41,13.65,4.22s4.86,6.79,4.86,11.92a19.11,19.11,0,0,1-2.19,8.59,47.8,47.8,0,0,1-7.5,10.2l-12.93,13.63h24.46Z"/>
      <path class="cls-2" d="M2284.4,216.18q0,11.81-4.88,18t-14.3,6.25q-9.3,0-14.22-6.13t-5-17.58V206.3q0-11.91,4.95-18.08t14.23-6.18q9.3,0,14.22,6.12t5,17.56Zm-11.29-11.51q0-7.06-1.93-10.3a6.53,6.53,0,0,0-6-3.22,6.41,6.41,0,0,0-5.87,3.06q-1.91,3.07-2,9.6v13.85q0,7,1.9,10.34a6.45,6.45,0,0,0,6.07,3.38,6.34,6.34,0,0,0,6-3.25q1.83-3.24,1.91-9.93Z"/>
      <path class="cls-2" d="M2319.44,239.7h-11.29V196.18l-13.47,4.18v-9.18l23.55-8.43h1.21Z"/>
      <path class="cls-2" d="M2375,197.94a13.26,13.26,0,0,1-2.07,7.35,14.84,14.84,0,0,1-5.71,5.11,16.58,16.58,0,0,1,6.57,5.49,14.1,14.1,0,0,1,2.42,8.22q0,7.59-5.16,12t-14,4.39q-8.86,0-14.06-4.41t-5.2-12a14.21,14.21,0,0,1,2.42-8.24,16.31,16.31,0,0,1,6.53-5.47,14.78,14.78,0,0,1-5.69-5.11,13.41,13.41,0,0,1-2.05-7.35,14.75,14.75,0,0,1,4.85-11.58Q2348.65,182,2357,182t13.15,4.28Q2375,190.59,2375,197.94Zm-10.12,25.35a8.18,8.18,0,0,0-2.15-5.93,8.58,8.58,0,0,0-11.52,0,9.25,9.25,0,0,0,0,11.81,8.8,8.8,0,0,0,11.62.08A8.16,8.16,0,0,0,2364.87,223.29Zm-1.17-24.8a7.82,7.82,0,0,0-1.76-5.33,7.15,7.15,0,0,0-9.88-.06,7.77,7.77,0,0,0-1.76,5.39,8.19,8.19,0,0,0,1.76,5.47,7,7,0,0,0,9.9,0A8.23,8.23,0,0,0,2363.7,198.49Z"/>
    </g>
  </g>
  <g id="text5975-3" data-name="text5975" class="cls-4">
    <g class="cls-4">
      <path class="cls-2" d="M412.8,251.14q-21.1-6.06-30.72-14.91a28.47,28.47,0,0,1-9.61-21.83q0-14.7,11.74-24.31t30.55-9.61a51,51,0,0,1,22.86,5,37.62,37.62,0,0,1,15.55,13.67,35,35,0,0,1,5.51,19.06H442.19q0-11.32-7.18-17.79t-20.25-6.48q-12.13,0-18.92,5.35T389,214.09q0,7.62,6.45,12.89t22,9.63q15.5,4.37,24.26,9.62t13,12.26A31.29,31.29,0,0,1,458.94,275q0,15.13-11.79,24.23t-31.53,9.1a58.59,58.59,0,0,1-23.93-4.91q-11.1-4.92-17.13-13.46a32.82,32.82,0,0,1-6-19.4H385q0,11.28,8.33,17.82t22.26,6.53q13,0,19.91-5.29a17.24,17.24,0,0,0,6.92-14.45q0-9.13-6.41-14.14T412.8,251.14Z"/>
      <path class="cls-2" d="M565.92,195.6h-40v111H509.61v-111h-39.9V182.19h96.21Z"/>
      <path class="cls-2" d="M646.33,274H594.21L582.5,306.6H565.58l47.51-124.41h14.36L675,306.6H658.21Zm-47.17-13.41h42.3l-21.19-58.19Z"/>
      <path class="cls-2" d="M737.42,256.27H708.2V306.6H691.7V182.19h41.19q21,0,32.34,9.57t11.33,27.85a33.46,33.46,0,0,1-6.29,20.25,37.44,37.44,0,0,1-17.47,12.91L782,305.57v1h-17.6ZM708.2,242.85h25.2q12.23,0,19.44-6.33t7.22-17q0-11.55-6.88-17.72t-19.86-6.25H708.2Z"/>
      <path class="cls-2" d="M878.67,195.6h-40v111H822.36v-111H782.45V182.19h96.22Z"/>
      <path class="cls-2" d="M984.71,182.19v84.59q-.09,17.61-11.07,28.8t-29.77,12.56l-4.36.17q-20.43,0-32.56-11T894.65,267V182.19h16.23v84.25q0,13.5,7.44,21t21.19,7.47q13.92,0,21.32-7.43t7.39-20.94V182.19Z"/>
      <path class="cls-2" d="M1027,257.89V306.6H1010.6V182.19h45.89q20.41,0,32,10.42t11.58,27.6q0,18.12-11.33,27.9t-32.42,9.78Zm0-13.41h29.48q13.15,0,20.16-6.21t7-17.93q0-11.13-7-17.81t-19.22-6.93H1027Z"/>
      <path class="cls-2" d="M1225.76,274q0-7.26-5.13-11.15t-18.45-8.21a130.15,130.15,0,0,1-21.11-8.5q-21.19-11.44-21.19-30.85a30,30,0,0,1,5.68-18q5.68-7.91,16.32-12.35a61.53,61.53,0,0,1,23.89-4.44,56,56,0,0,1,23.75,4.82,37.85,37.85,0,0,1,16.19,13.63,35.65,35.65,0,0,1,5.77,20h-25.63q0-8.55-5.39-13.29t-15.12-4.74q-9.4,0-14.61,4a12.53,12.53,0,0,0-5.22,10.47c0,4,2,7.43,6.11,10.17s10.07,5.3,18,7.69q21.87,6.59,31.87,16.32t10,24.27q0,16.14-12.22,25.33t-32.9,9.19a63.38,63.38,0,0,1-26.14-5.26q-11.79-5.25-18-14.39a36.89,36.89,0,0,1-6.19-21.2h25.71q0,20.6,24.61,20.6,9.15,0,14.27-3.72A12.09,12.09,0,0,0,1225.76,274Z"/>
      <path class="cls-2" d="M1339.07,281h-45l-8.54,25.64h-27.26l46.31-124.41h23.76L1375,306.6H1347.7Zm-38-20.76h31.11l-15.64-46.57Z"/>
      <path class="cls-2" d="M1461.43,255.76h-49.22V306.6h-25.63V182.19h81V203h-55.37v32.13h49.22Z"/>
      <path class="cls-2" d="M1536.28,281h-44.94l-8.55,25.64h-27.26l46.32-124.41h23.75l46.57,124.41h-27.25Zm-38-20.76h31.1l-15.63-46.57Z"/>
      <path class="cls-2" d="M1629.85,261.05h-20.42V306.6h-25.64V182.19H1630q22.05,0,34,9.82t12,27.77q0,12.74-5.51,21.24t-16.7,13.54l26.91,50.84v1.2h-27.51Zm-20.42-20.76h20.68q9.65,0,15-4.91t5.3-13.55q0-8.79-5-13.84T1630,203h-20.59Z"/>
      <path class="cls-2" d="M1722.73,306.6H1697.1V182.19h25.63Z"/>
    </g>
  </g>
</svg>
