<?xml version="1.0" encoding="UTF-8"?>
<svg width="1801px" height="568px" viewBox="0 0 1801 568" version="1.1" xmlns="http://www.w3.org/2000/svg" xmlns:xlink="http://www.w3.org/1999/xlink">
    <!-- Generator: Sketch 47.1 (45422) - http://www.bohemiancoding.com/sketch -->
    <title>Shape</title>
    <desc>Created with Sketch.</desc>
    <defs></defs>
    <g id="Page-1" stroke="none" stroke-width="1" fill="none" fill-rule="evenodd">
        <g id="berlin" fill="#EEF5F7">
            <path d="M1299.5,464.6 L1306,465.9 L1306,471.8 L1308.5,467 L1313.6,471.8 L1318.1,469.7 L1322.1,440 L1332.1,440 L1332.1,437.9 L1340.8,437.9 L1340.8,434.8 L1341.7,437.9 C1351.8,437.9 1358.3,437.9 1370.1,437.9 L1370.1,448.4 C1372.8,448.4 1372.3,448.4 1381,448.4 L1381,464.4 L1383.4,469.1 L1383.7,473.9 L1386.2,468 L1392.1,466.7 L1392.1,476.4 L1396.7,472.2 C1396.7,471.4 1398.1,468.8 1398.9,467.7 C1399,452.2 1399,435.3 1399,428.1 L1399.8,424.7 L1404.7,423.6 L1404.7,421.8 L1405.4,411.4 L1403.7,409.3 L1406.6,404.9 C1410.6,404.9 1414.5,404.9 1418.1,404.9 L1418.5,386 L1427.7,387 L1427.7,392.3 L1419.3,392.3 L1419.3,394.4 L1419.3,404.1 C1423.2,404.9 1427,404.9 1431.1,404.9 L1431.1,409.3 L1429.4,411.4 L1429.4,421 L1431.1,423.1 C1440.6,424.6 1446.5,424.6 1454.4,424.6 L1454.4,419.6 L1454.7,405.5 L1462.3,406.8 L1462.3,411.1 L1455.4,411.1 L1455.5,419.5 L1455.8,424.5 C1463.7,424.5 1469.6,424.5 1480,424.5 L1480,421.8 C1480.2,420.8 1482.7,413.7 1482.3,411.4 C1482,409.7 1481.8,409.3 1481.6,409 L1483.2,407.2 C1483.4,406.9 1483.4,405.5 1483.4,405.4 C1484.93333,405.4 1485.9,405.9 1486.3,406.9 L1485.9,408.6 C1487.3,410.2 1487.3,410.4 1487.3,410.6 C1486.7,412.3 1486.6,413.2 1486.6,414.4 C1489,397.1 1503.9,382.5 1522,382.5 C1540.1,382.5 1554.9,397 1556,415.4 C1557.4,413.2 1557.4,412.2 1557.3,411.4 C1556.9,409.7 1556.7,409.3 1556.5,409 L1558.2,407.2 C1558.5,405.5 1558.5,405.5 1558.5,405.4 C1560.03333,405.466667 1560.96667,405.966667 1561.3,406.9 L1560.9,408.6 C1562.2,410.2 1562.3,410.4 1562.3,410.6 C1561.5,413.8 1563.8,420.8 1565.2,420.8 L1564.1,424.5 C1574.5,424.5 1580.4,424.5 1588.3,424.5 L1588.3,419.5 L1588.7,405.4 L1596,406.7 L1596,411 L1589.3,411 L1589.3,419.4 L1589.6,424.4 C1597.5,424.4 1603.4,424.4 1613.8,424.4 L1612.9,422.1 L1614.5,411.2 L1612.8,409.1 L1612.8,404.7 C1616.9,404.7 1620.8,404.7 1624.4,404.7 L1624.8,385.6 L1634.2,386.9 L1634.2,392.2 L1625.5,392.2 L1625.5,403.6 C1629.3,404.7 1633.2,404.7 1637.3,404.7 L1637.3,408.3 L1638.5,411.2 L1638.5,420.8 L1640.2,422.9 L1644.2,424.5 L1644.2,427.8 C1645.1,434.1 1645.2,449.6 1645.2,465 L1655.3,473.4 L1658,445.9 L1671.1,445.7 L1671.1,439.5 L1676.2,443.1 L1682.7,440.8 L1697,440.9 L1697,446.5 L1703.9,446.5 L1703.9,442.9 L1706.5,446.5 L1711,450.5 L1711.2,462.2 L1717.1,456.2 L1718.6,406.8 L1726,369 L1730.9,362 L1732.4,307.2 L1733.3,295 L1734.2,286.6 L1735.2,278.5 L1766.9,261.9 L1766.9,266.3 L1768,274.1 L1769,277.3 L1771.8,275.8 L1773,285.6 L1774,290.8 L1778.7,314.9 L1779.6,354.5 L1780.6,395.5 L1781.6,435.8 L1786.3,437.2 L1787.5,451.5 L1791.9,457.4 L1800.6,457.5 L1800.6,568 C1200.6,568 600.6,568 0.6,568 L0.6,427.6 L11.2,427.7 L11.9,418.5 L14.6,388.9 L18.2,386.2 L19.5,382.1 L14.5,384.8 L14.5,379.9 L18.6,376.1 L19.8,372.1 L14.5,375 L14.5,370.1 L18.9,366 L20.1,362.2 L14.5,365.2 L14.5,360.3 L19.2,355.9 L20.4,352.2 L14.5,355.4 L14.5,350.5 L19.5,345.9 L20.7,342.3 L14.5,345.8 L14.5,340.9 L19.7,336 L20.9,332.4 L14.5,336 L14.5,331.1 L20.1,325.9 L21.4,322.4 L14.5,326.3 L14.5,321.4 L19.1,317 L21.7,312.4 L14.5,316.5 L14.5,311 L14.5,301.1 C25,291 27.5,286.8 40.3,285.7 L40.5,290.8 C41.1,290.8 41.9666667,291.833333 43.1,293.9 L55.2,297.1 L62.4,426.4 L67.1,445.4 L67.8,455.9 L67.8,438 L74.3,439.3 L74.3,445.2 L76.8,440.4 L81.9,445.2 L86.4,443.1 L90.4,413.5 L100.4,413.5 L100.4,411.4 L109.1,411.4 L109.1,408.3 L110,411.4 C120.1,411.4 126.6,411.4 138.4,411.4 L138.4,421.9 C141.1,421.9 140.6,421.9 149.3,421.9 L149.3,437.9 L151.7,442.6 L152,447.4 L154.5,441.5 L162.5,427.4 L165.6,386.7 L164.6,383.5 L162.7,380.6 L157.5,380.1 L155.9,377.4 C154.4,375.3 152.8,374 150.7,373.6 L155.4,372.3 L159.6,371.2 L167.6,369.4 L174.4,219.4 L171.8,216.4 L167.9,211.8 L168.6,208.4 L174.9,208.4 L175.1,200.9 L174.4,199.1 L178.2,196.5 L179.6,190.9 L179.6,187.8 L180.6,169.9 L181.1,186.5 L182.7,189.9 L184.1,196.5 L186,198.1 L188.1,200.7 L187.2,208.4 L193.7,208.4 L193.7,211.3 L191.6,215.9 L188,219.4 L195.2,368.9 L208.3,371.2 L216.8,372.3 C214.3,373.6 209.4,375.3 208.4,377.1 L206.3,379.8 L200.6,380.6 L199.7,383.5 L197.7,386.7 L198.4,405.5 L199,410.8 L199.8,427.2 L205.5,427.2 L216.9,427.9 L216.9,424.7 L224.7,424.7 L224.7,421.5 L238.6,421.5 L238.6,417.3 L241.6,415.1 L241.6,421.5 L245.7,413.1 L251,427.7 L258.1,427.8 L258.1,420.2 L264.9,420.2 L264.9,472.6 L269.9,451.1 L275.8,444.2 L275.8,416.5 L279.7,402.4 L282.5,373.7 L286,367.1 L287.2,346 C290.4,333.3 292.2,321.9 294.4,308.8 C297.4,321.6 299.3,332.9 301.6,346 L301.6,366.8 L304.8,349.6 L306.7,344.1 L310.7,294.3 C311.8,279.5 312.9,259.6 314.6,245.4 L326.1,245.4 L326.9,250.4 L335.2,254.9 L335.2,258.5 L341.8,272 L343,280.4 L345.1,282.3 L346.2,286.5 C354.8,286.4 342.5,286.5 362.9,286.5 L362.9,367.8 L368.8,384.2 L367.1,385.9 L367.1,395.6 L386,395.6 L409.2,403.1 L409.2,433.6 L413,340.5 L416.6,337.2 L423.1,337.2 L423.1,340.5 L427.5,338 L429.5,332.5 C425.5,332.2 420.4,327.8 420.4,322.1 C420.4,316.5 425.1,311.7 430.8,311.7 C436.5,311.7 441.2,316.4 441.2,322.1 C441.2,327.8 436.4,332.2 431.9,332.5 L432.1,337.9 L449.8,337.9 L449.8,304.5 L450.7,337.9 L461.7,337.9 L462.9,335.6 L464.1,337.9 L468.2,340.5 C480.7,340.5 472.4,340.5 485.7,340.5 L485.7,428.3 L488.5,424.7 L491.1,428.3 L495.5,422.7 L509.8,419.1 L512.8,410.5 L518.4,417.7 L521.5,427.3 L534.9,428.1 L534.9,436.1 L537.6,447.7 L550,441 C550,437.9 552.4,437.2 552.4,434.9 L552.9,417 L553,415.2 L553,412.7 L551.3,410.4 L552.9,408 L566,408 L566,402.4 L568.3,400.8 L568.4,396.9 C568.7,369.1 569.1,343.3 569.5,315 L567.8,307 L568.5,301.5 C571,299 571.3,297 571.3,295.5 L573.7,293.6 C573.2,292 568.7,292.1 569.4,289.8 C569.9,287 572.3,284.8 572.4,282.4 C571.3,280.8 570.8,280.6 570.8,280.2 C571.5,276 572.6,275.1 572.6,273.4 C571,272.4 570.8,270.7 569,271.3 C565.3,269.5 564.3,268.3 565.6,268.3 C565,266.8 565.2,266.4 565.8,266.5 L565.6,262.6 C564.2,261.2 563.8,260 563.8,259.5 C567.6,260.3 567.4,260.5 566.9,261 C566.9,263.1 567.3,264.2 567.9,264.9 C572.4,266.2 573,267.1 573.4,268 C573.3,265.8 573.3,264.4 574.2,263.7 C574.3,262.5 573.9,262.3 573.5,261.9 C575.033333,261.566667 576.6,259.9 578.2,256.9 C576.6,256.6 576.6,253.8 578.2,253.8 C578.2,252.8 578.4,251.8 578.8,251.3 C579.2,252.1 579.2,253 579,253.8 C580.2,254.4 580.6,256 578.8,257 C580.4,259.3 581.4,261.4 581.6,263.5 C583.3,265.5 585.7,265.5 588.3,264.9 C590.2,265.3 590.8,266.2 588.9,266.7 C590,268.2 587,269 586.5,269 C583.5,270.6 581,272.8 581,274 C579.5,275.1 579.6,276.3 580.2,277.1 C581.7,278.2 581.6,278.6 581.2,279.1 C581,282.9 584.7,284.9 585.6,287.9 C586.4,290.9 578.9,291.3 577.2,291.8 L577.1,293.6 L580.4,295.5 C580.4,296.9 580.6,298.7 580.8,301.3 L584.4,306.9 L582.5,313.6 L583.2,396.8 L584.8,399.1 L585.6,402.3 L585.6,407.9 L598.7,407.9 L601.1,410.3 L598.6,412.6 L598.6,415.1 L599.9,416.9 L598.7,434.7 C599.2,437.2 601.6,437.7 601.6,440.8 L608.9,441.9 L608.9,439.5 L613.3,437.6 L613.3,443 L619.3,443 L619.3,435.9 L627,435.9 L627,448.3 L636.4,448.3 L636.4,446 L637.2,441.9 L644.5,441.9 L644.7,410.8 L640.2,407.3 L645.4,406.4 L647.4,404.7 L647.4,398.4 L687.5,397.1 L689.2,395.2 C691.4,393.8 691.4,393.7 691.4,393.4 C691.333333,392.866667 691.3,392.166667 691.3,391.3 C691.9,389.8 691.9,389.5 691.8,389.2 C691.5,388.3 691.5,387.7 692,387.3 C691.1,386.3 691,386 690.9,385.6 C690.9,384.7 690.9,384.2 690.8,383.8 C693.3,382.9 694,384.3 694.4,386.3 C696.7,387.3 697.2,387.9 697.3,389.2 C697.8,389.2 698.3,387.5 699,386.8 C699.1,385.8 699.3,385 699.5,384.4 C699.6,382.8 699.3,382.4 699.7,382.4 C701.1,384.1 701.1,384.4 701,384.6 C701.133333,385.533333 701.2,386.166667 701.2,386.5 C702.3,384.1 702.2,382.7 702,381.5 C701.9,380.3 702,379.5 702.3,379.1 C703.1,378.7 703.766667,377.833333 704.3,376.5 C703.7,374.9 703.4,374.7 703.1,374.4 C702.6,372.7 702.8,372.3 703.1,372 C702.6,370.4 702.5,370.3 702.5,370.2 C701.3,368.7 701.1,368.6 701.1,368.5 C706.1,367.8 706.1,367.8 706.2,367.8 C706.1,369.5 705.8,369.8 705.6,369.9 C705,371.6 705.1,371.6 705.2,371.7 C705.7,373.4 705.6,373.8 705.2,374.1 C705,374.3 704.666667,374.933333 704.2,376 L704.3,377.8 L705.7,380 C708.2,381 708.3,382.3 708.3,383.7 C708.5,383 708.7,382.4 708.9,382 C710.4,383.3 710.4,383.6 710.3,383.8 C710.1,385.3 710.4,385.9 710.2,386.2 C711.2,387.2 711.5,388.9 711,390.2 C711.533333,390.333333 712.333333,389.6 713.4,388 C715.9,386.2 716,385.6 716,384.9 C716.2,383.4 717,382.4 718.5,381.7 C719.3,383.4 719.2,383.6 719,383.8 C719,384.6 718.8,385.233333 718.4,385.7 C718.266667,385.966667 718.266667,386.633333 718.4,387.7 C718.533333,387.833333 718.5,388.533333 718.3,389.8 C718.6,391.8 718.5,392.2 718.6,392.7 C717.6,394.1 717.4,396 717.3,395.7 C718.1,395.566667 719.5,396.033333 721.5,397.1 L763.5,397.1 L761.5,404.7 L763.5,406.4 L768.7,407.3 L764.3,410.8 C764.3,420.6 764.2,433.4 764.2,446.7 L772.5,446.7 L775.6,445.3 L775.6,437.7 L787.8,437.7 L787.8,434.8 L809.7,434.8 L809.7,430.9 L814.4,428.9 L814.4,434.8 L820.9,434.8 L820.9,427.2 L825.4,416.7 L825.9,407.5 L831.4,397.2 L857.6,397.2 L858.5,416.4 L860.2,456.7 L877.2,456.8 L877.3,422.1 L875.9,419.9 L875.9,415.9 L936.6,415.9 C936.6,412.6 936.6,409.5 936.6,406.6 L938.1,395 C939,382.1 939,369.6 939,357 L938.2,355 C938.2,353.3 938,352.9 938,351.1 L945,351.1 L949.5,345.9 L949.5,343.8 L952.4,335.3 L952.4,333.3 L953.3,321.9 L960.1,323 L960.1,328.3 L953.9,328.3 L954,333.3 L954.7,335.3 L955.9,343.8 L957.4,345.9 L962,351.1 L969,351.1 C969,353.1 968.8,353 968.8,355 L968,357 C968,369.5 968,382 968,393.8 L968.7,406 C970.2,409.5 970.2,412.4 970.2,415.9 L1029.4,415.9 C1029.4,417.2 1029.4,418.2 1029.4,419.6 L1029.4,456.9 L1042.7,456.9 L1053.8,451.6 C1058,395.2 1060.1,325.1 1060.5,233.2 L1057.6,230 L1060.5,228.3 L1057.6,224.9 L1060.5,223.4 C1060.5,223.266667 1060.5,222.266667 1060.5,220.4 C1056.3,219.4 1052.8,217.2 1049.5,213.9 C1044.6,209 1042.1,203 1042.1,196 C1042.1,189.2 1044.6,183.2 1049.5,178.2 C1051.7,176 1054.1,174.3 1056.8,173.1 L1055.6,170.7 L1052.7,164.9 L1052.8,161.3 L1053.6,158.2 L1057.5,145.8 L1055.1,142.5 L1061.9,142.5 L1063,140.2 L1060.5,138.5 L1063.4,127.4 L1062.1,125.7 L1064.2,92 L1062.9,90.2 L1064.7,58.5 L1063.5,56.6 L1065.5,0.3 L1070,56.6 L1071.2,58.5 L1070.5,90.2 L1071.8,92 L1071.3,125.7 L1072.5,127.4 L1071.3,138.5 L1073.7,140.2 L1072.7,143.6 L1079.2,143.6 L1079.2,146.5 L1076.1,148.2 C1077.4,149.3 1077.6,149.8 1077.6,150.5 C1077.4,151.7 1077.2,151.9 1076.9,152.2 C1076.7,152.333333 1076.43333,158.466667 1076.1,170.6 L1079.2,173 C1080.5,174.2 1082.9,175.9 1085.1,178.1 C1090.1,183.1 1092.5,189.1 1092.5,195.9 C1092.5,203 1090.1,209 1085.1,213.8 C1082,216.9 1078.4,219.2 1074.5,220.3 L1074.5,222.6 C1074.5,222.733333 1074.5,223.466667 1074.5,224.8 L1076.9,228.2 C1074.5,228.9 1074.5,229.5 1074.5,229.9 L1076.9,233.1 L1084.3,442.9 L1115.5,450.6 L1115.5,463 L1126.4,463 L1126.4,443.4 L1136,422.4 L1149.3,422.4 L1149.3,442.4 L1152.4,462.2 C1158.8,462.5 1165.4,463.4 1171.3,463.4 L1171.3,467.9 L1177.8,467.9 L1177.8,460.9 L1178,457.1 C1178.9,451.6 1178.9,446.7 1178.9,442.9 L1175.5,439.9 L1178.7,438.1 L1180.3,419.6 L1181.3,417.2 C1182.8,414.3 1183.6,412.3 1185.1,410.6 C1186.4,409.2 1187.8,408.4 1189.4,408.2 C1190.1,407.8 1190.5,407.2 1190.5,406.1 C1190.16667,405.166667 1190.2,404.533333 1190.6,404.2 L1190.7,406.1 C1190.9,407.2 1191.2,407.8 1191.9,407.9 C1193.5,408.4 1195,409.2 1196.3,410.6 C1197.8,412.2 1198.6,414.3 1198.6,416.6 C1198.6,416.733333 1199.1,417.733333 1200.1,419.6 L1201.1,438.1 L1215.4,438.1 L1215.4,420.7 C1215.4,416.7 1215.3,415 1215.6,412.2 C1215.7,411.4 1215.8,410.7 1216,409.9 L1215.8,407.7 C1217.7,405.2 1219,403 1220.8,400.8 L1220.3,399 C1225.5,396.2 1228.8,394.5 1232.6,393.9 L1232.6,387.4 C1234.2,386.3 1235.1,384.2 1235,381.2 C1235.1,379.5 1235.4,379.1 1235.7,379.1 L1235.5,375.6 L1236.1,373.9 L1237.4,375.6 L1236.1,378.5 C1236.5,380.2 1236.2,380.5 1235.9,380.5 C1236.4,384.2 1237.2,386.3 1238.9,387.4 L1238.9,393.9 C1242.7,394.5 1246.1,396.2 1249,399 L1251.2,400.8 C1252.5,403 1253.9,405.2 1254.8,407.7 L1255.7,409.9 C1255.7,410.6 1255.8,411.4 1256,412.2 C1256.2,416 1256.2,417.2 1256.2,420.7 L1256.2,438.1 L1270.5,438.1 L1270.5,419.6 L1271.4,417.2 C1272.9,414.3 1273.7,412.3 1275.2,410.6 C1276.5,409.2 1277.9,408.4 1279.6,408.2 C1280.2,407.8 1280.6,407.2 1280.6,406.1 C1280.33333,405.166667 1280.36667,404.533333 1280.7,404.2 L1280.8,406.1 C1281,407.2 1281.3,407.8 1282,407.9 C1283.6,408.4 1285.1,409.3 1286.3,410.6 C1287.9,412.2 1288.6,414.3 1288.6,416.6 C1288.6,416.733333 1289.1,417.733333 1290.1,419.6 L1291,438.1 L1292.7,439.9 L1292.5,442.9 C1292.5,446.6 1292.5,451.5 1292.5,457.1 L1295.5,459.3 L1293.7,476.5 L1299.5,476.5 L1299.5,464.6 Z M954.1,362 C956.2,362 957.9,363.7 957.9,365.8 C957.9,367.9 956.2,369.6 954.1,369.6 C952,369.6 950.3,367.9 950.3,365.8 C950.3,363.6 952,362 954.1,362 L954.1,362 Z M439.3,321.7 C439.3,323.2 438.9,324.6 438.1,325.9 L437.7,325.7 L431.9,321 L430.8,313.3 C435.5,313.3 439.3,316.9 439.3,321.7 L439.3,321.7 Z M430.7,330.4 C427.2,330.4 424.7,328.6 423.2,326 L426.5,324.7 L430.8,323.1 L438.1,326.1 C435.8,328.8 434.2,330.4 430.7,330.4 L430.7,330.4 Z M423.2,325.9 C421.6,322.9 421.9,318.7 425,315.7 C426.6,314.1 428.5,313.4 430.7,313.3 L430.8,313.3 L429.8,321.1 L423.2,325.9 L423.2,325.9 Z M652.8,458.5 L652.8,458 C652.9,457.5 652.9,457 652.9,456.6 L652.8,420.2 L653.3,419.7 L653.5,419.6 L664.7,419.6 L665.2,420.1 C665.2,432.2 665,444.4 665.1,456.5 C665.1,457 665.1,457.5 665.1,457.9 L665.1,458.4 L652.8,458.4 L652.8,458.5 Z M673.7,458.5 L673.7,458 C673.7,457.5 673.7,457 673.7,456.6 L673.7,420.2 L674.2,419.7 L674.3,419.6 L685.1,419.6 L685.6,420.1 C685.6,432.2 685.5,444.4 685.5,456.5 C685.5,457 685.5,457.5 685.5,457.9 L685.5,458.4 L673.7,458.4 L673.7,458.5 Z M694.6,458.5 L694.6,458 C694.7,457.5 694.7,457 694.7,456.6 L694.6,420.2 L695.1,419.7 L695.2,419.6 L714.6,419.6 L715.1,420.1 C715.1,432.2 715,444.4 715.1,456.5 C715.1,457 715.1,457.5 715.1,457.9 L715.1,458.4 L694.6,458.4 L694.6,458.5 Z M723.9,458.7 L723.9,458.2 C723.9,457.7 723.9,457.2 723.9,456.8 L723.8,420.4 L724.3,419.9 L724.4,419.8 L735.2,419.6 L735.7,420.1 C735.8,432.2 735.6,444.4 735.6,456.5 C735.6,457 735.6,457.5 735.6,457.9 L735.6,458.4 L723.9,458.7 L723.9,458.7 Z M744.8,458.3 L744.7,419.9 L745.2,419.4 L745.4,419.3 L756.2,419.5 L756.7,420 C756.8,432.1 756.6,444.3 756.7,456.4 C756.7,456.9 756.7,457.4 756.7,457.8 L756.7,458.3 L744.8,458.3 L744.8,458.3 Z" id="Shape"></path>
        </g>
    </g>
</svg>