<svg xmlns="http://www.w3.org/2000/svg" viewBox="0 0 1550 500" width="1550" height="500" preserveAspectRatio="xMidYMid meet" style="width: 100%; height: 100%;"><defs><clipPath id="animationMask_eNyI3NB60l"><rect width="1550" height="500" x="0" y="0"></rect></clipPath><clipPath id="cp_MPDtteop"><path d="M0,0 L1920,0 L1920,690 L0,690z"></path></clipPath><clipPath id="cp_eYv08Rmf"><path d="M0,0 L1920,0 L1920,700 L0,700z"></path></clipPath><clipPath id="cp_xV1E2QtB"><path d="M0,0 L300,0 L300,800 L0,800z"></path></clipPath><clipPath id="cp_18meTzZZ"><path d="M0,0 L300,0 L300,800 L0,800z"></path></clipPath><clipPath id="cp_v5NO1vEd"><path d="M0,0 L300,0 L300,800 L0,800z"></path></clipPath><mask id="ly_KsR5ZLFKVa" mask-type="alpha"><g transform="matrix(0.7044,0,0,0.7044,138.7299,319.3655)" opacity="1" style="user-select: none; display: block;"><g opacity="1" transform="matrix(1.0769,0,0,1.0769,16,-266)"><path fill="rgb(255,205,71)" fill-opacity="1" d="M0 0 M0,-86 C47.46339999999999,-86 86,-47.46339999999999 86,0 C86,47.46339999999999 47.46339999999999,86 0,86 C-47.46339999999999,86 -86,47.46339999999999 -86,0 C-86,-47.46339999999999 -47.46339999999999,-86 0,-86z" style="display: block;"></path></g></g></mask><clipPath id="cp_1UwzQBMO"><path d="M0,0 L300,0 L300,800 L0,800z"></path></clipPath><mask id="ly_fJo5y8zzZH" mask-type="alpha"><g transform="matrix(0.7044,0,0,0.7044,138.7299,319.3655)" opacity="1" style="user-select: none; display: block;"><g opacity="1" transform="matrix(1.0769,0,0,1.0769,16,-266)"><path fill="rgb(255,205,71)" fill-opacity="1" d="M0 0 M0,-86 C47.46339999999999,-86 86,-47.46339999999999 86,0 C86,47.46339999999999 47.46339999999999,86 0,86 C-47.46339999999999,86 -86,47.46339999999999 -86,0 C-86,-47.46339999999999 -47.46339999999999,-86 0,-86z" style="display: block;"></path></g></g></mask></defs><g clip-path="url(#animationMask_eNyI3NB60l)"><g clip-path="url(#cp_MPDtteop)" transform="matrix(0.7948,0,0,0.7948,28.0016,-38.2025)" opacity="1"><g transform="matrix(1,0,0,1,960,345)" opacity="1" style="user-select: none;"><g opacity="1" transform="matrix(1,0,0,1,0,0)"><path fill="rgb(255,255,255)" fill-opacity="1" d="M0 0 M-909.648,-262.229 C-909.648,-262.229 -799.888,-262.229 -799.888,-262.229 C-788.5540000000001,-262.229 -779.0849999999999,-259.651 -771.482,-254.5 C-763.886,-249.342 -758.9209999999999,-242.519 -756.603,-234.016 C-756.603,-234.016 -679.308,59.707 -679.308,59.707 C-676.735,69.241 -674.1569999999999,79.416 -671.578,90.238 C-669.005,101.06 -667.073,112.399 -665.781,124.247 C-663.209,112.14 -660.371,100.738 -657.279,90.045 C-654.187,79.356 -651.228,69.241 -648.39,59.707 C-648.39,59.707 -557.18,-234.016 -557.18,-234.016 C-554.862,-241.226 -549.904,-247.736 -542.301,-253.533 C-534.705,-259.33 -525.491,-262.229 -514.669,-262.229 C-514.669,-262.229 -476.02,-262.229 -476.02,-262.229 C-464.686,-262.229 -455.345,-259.717 -448.002,-254.693 C-440.658,-249.669 -435.57300000000004,-242.773 -432.735,-234.016 C-432.735,-234.016 -342.299,59.707 -342.299,59.707 C-339.46799999999996,68.729 -336.503,78.324 -333.411,88.499 C-330.319,98.67999999999999 -327.614,109.563 -325.294,121.156 C-323.23499999999996,109.822 -321.11,99 -318.918,88.692 C-316.731,78.389 -314.474,68.729 -312.154,59.707 C-312.154,59.707 -234.859,-234.016 -234.859,-234.016 C-232.8,-241.487 -227.902,-248.056 -220.172,-253.727 C-212.444,-259.392 -203.168,-262.229 -192.346,-262.229 C-192.346,-262.229 -89.544,-262.229 -89.544,-262.229 C-89.544,-262.229 -263.459,300.868 -263.459,300.868 C-263.459,300.868 -381.72,300.868 -381.72,300.868 C-381.72,300.868 -487.615,-48.121 -487.615,-48.121 C-489.421,-53.533 -491.287,-59.456 -493.219,-65.899 C-495.151,-72.336 -497.02299999999997,-79.16600000000001 -498.823,-86.382 C-500.62899999999996,-79.16600000000001 -502.495,-72.336 -504.427,-65.899 C-506.35900000000004,-59.456 -508.23199999999997,-53.533 -510.03,-48.121 C-510.03,-48.121 -617.472,300.868 -617.472,300.868 C-617.472,300.868 -735.733,300.868 -735.733,300.868 C-735.733,300.868 -909.648,-262.229 -909.648,-262.229z"></path></g><g opacity="1" transform="matrix(1,0,0,1,0,0)"><path fill="rgb(255,255,255)" fill-opacity="1" d="M0 0 M146.981,-268.414 C174.808,-268.414 199.86100000000002,-264.35499999999996 222.151,-256.239 C244.43300000000002,-248.123 263.436,-236.849 279.155,-222.423 C294.868,-207.99 306.91499999999996,-190.791 315.292,-170.827 C323.66099999999994,-150.857 327.852,-128.895 327.852,-104.933 C327.852,-84.316 324.952,-65.253 319.156,-47.735 C313.359,-30.21 305.435,-13.531 295.387,2.315 C285.339,18.161 273.679,33.492 260.412,48.305 C247.13799999999998,63.124 233.032,78.13 218.092,93.329 C218.092,93.329 107.946,206.181 107.946,206.181 C122.113,202.06300000000002 136.09199999999998,198.777 149.879,196.326 C163.66,193.879 176.605,192.655 188.72,192.655 C188.72,192.655 293.842,192.655 293.842,192.655 C306.72299999999996,192.655 316.89799999999997,196.2 324.373,203.283 C331.844,210.37199999999999 335.582,219.709 335.582,231.302 C335.582,231.302 335.582,300.868 335.582,300.868 C335.582,300.868 -60.171,300.868 -60.171,300.868 C-60.171,300.868 -60.171,262.22 -60.171,262.22 C-60.171,254.75100000000003 -58.626,246.76100000000002 -55.534,238.258 C-52.442,229.756 -47.03,222.027 -39.302,215.07 C-39.302,215.07 123.019,51.591 123.019,51.591 C136.93200000000002,37.678 149.03900000000002,24.409 159.347,11.783 C169.649,-0.838000000000001 178.152,-13.272 184.855,-25.512 C191.551,-37.746 196.576,-49.988 199.928,-62.228 C203.273,-74.462 204.952,-87.408 204.952,-101.068 C204.952,-123.485 199.602,-140.68200000000002 188.913,-152.663 C178.22,-164.644 161.921,-170.635 140.024,-170.635 C131.002,-170.635 122.76,-169.342 115.289,-166.77 C107.81400000000001,-164.191 101.116,-160.713 95.192,-156.334 C89.262,-151.951 84.177,-146.8 79.926,-140.876 C75.675,-134.946 72.25699999999999,-128.50900000000001 69.684,-121.552 C65.56,-109.95700000000001 60.342999999999996,-101.582 54.032,-96.431 C47.715999999999994,-91.273 39.153999999999996,-88.701 28.332,-88.701 C25.753,-88.701 22.980999999999998,-88.828 20.022,-89.087 C17.057,-89.34 14.033000000000001,-89.72699999999999 10.941,-90.246 C10.941,-90.246 -52.442,-101.456 -52.442,-101.456 C-48.324,-129.536 -40.400999999999996,-154.015 -28.673,-174.885 C-16.952999999999996,-195.755 -2.392999999999999,-213.147 14.998,-227.06 C32.39,-240.973 52.293,-251.342 74.708,-258.172 C97.125,-264.99600000000004 121.214,-268.414 146.981,-268.414z"></path></g><g opacity="1" transform="matrix(1,0,0,1,0,0)"><path fill="rgb(255,255,255)" fill-opacity="1" d="M0 0 M919.926,19.126 C919.926,59.839 912.898,97.38799999999999 898.863,131.784 C884.816,166.18099999999998 865.044,195.94 839.536,221.061 C814.029,246.18200000000002 783.303,265.76399999999995 747.361,279.804 C711.419,293.851 671.545,300.868 627.746,300.868 C627.746,300.868 409,300.868 409,300.868 C409,300.868 409,-262.229 409,-262.229 C409,-262.229 627.746,-262.229 627.746,-262.229 C671.545,-262.229 711.419,-255.14000000000001 747.361,-240.973 C783.303,-226.8 814.029,-207.216 839.536,-182.228 C865.044,-157.234 884.816,-127.542 898.863,-93.146 C912.898,-58.749 919.926,-21.321 919.926,19.126zM0 0 M786.203,19.126 C786.203,-8.701 782.591,-33.822 775.381,-56.237 C768.165,-78.654 757.796,-97.651 744.269,-113.243 C730.743,-128.828 714.185,-140.808 694.607,-149.185 C675.024,-157.554 652.7339999999999,-161.745 627.746,-161.745 C627.746,-161.745 540.403,-161.745 540.403,-161.745 C540.403,-161.745 540.403,200.383 540.403,200.383 C540.403,200.383 627.746,200.383 627.746,200.383 C652.7339999999999,200.383 675.024,196.20000000000002 694.607,187.823 C714.185,179.454 730.743,167.472 744.269,151.88 C757.796,136.295 768.165,117.291 775.381,94.876 C782.591,72.459 786.203,47.212 786.203,19.126z"></path></g></g><g transform="matrix(1,-0.0028,0.0028,1,964.7448,347.0926)" opacity="1" style="user-select: none;"><g opacity="1" transform="matrix(1,0,0,1,0,0)"><path fill="rgb(29,29,27)" fill-opacity="1" d="M0 0 M548.658,200.124 C542.495,200.115 541.279,191.02700000000002 550.288,190.092 C553.902,189.717 563.66,185.754 567.353,181.701 C567.353,181.701 574.053,168.981 574.053,168.981 C574.053,168.981 590.947,177.014 590.947,177.014 C590.947,177.014 587.488,179.955 587.488,179.955 C586.9720000000001,183.79700000000003 588.2479999999999,192.181 587.901,197.037 C587.774,198.81900000000002 586.284,200.188 584.497,200.185 C584.497,200.185 548.658,200.124 548.658,200.124z"></path></g></g><g transform="matrix(1,0,0,1,0,0)" opacity="1" style="user-select: none;"><g opacity="1" transform="matrix(1,0,0,1,1543.5,529.5)"><g opacity="1" transform="matrix(0.7552,0.6555,-0.6555,0.7552,49.25,42.75)"></g><g opacity="1" transform="matrix(1,0,0,1,0,0)"><g opacity="1" transform="matrix(1,0,0,1,0,0)"></g></g><g opacity="1" transform="matrix(1,0,0,1,0,0)"><g opacity="1" transform="matrix(1,0,0,1,-200,-200)"></g></g><g opacity="1" transform="matrix(1,0,0,1,-135,0)"><g opacity="1" transform="matrix(1,0,0,1,0,0)"></g></g></g><g opacity="1" transform="matrix(1,0,0,1,0,0)"><g opacity="1" transform="matrix(1,0,0,1,0,0)"><g opacity="1" transform="matrix(1,0,0,1,1543.5,529.5)"><path stroke-linecap="round" stroke-linejoin="round" fill-opacity="0" stroke="rgb(0,86,135)" stroke-opacity="1" stroke-width="23" d="M0 0 M91.29878839301607,-7.686026287571586 C91.67131974620793,-7.068692997614647 91.89988716680952,-6.672988645554263 91.9741480988329,-6.544967889522205"></path><g opacity="1" transform="matrix(0.7552,0.6555,-0.6555,0.7552,49.25,42.75)"></g></g><g opacity="1" transform="matrix(1,0,0,1,1543.5,529.5)"><path stroke-linecap="butt" stroke-linejoin="round" fill-opacity="0" stroke="rgb(0,86,135)" stroke-opacity="1" stroke-width="23" d="M0 0 M0.01927249339678383,-0.048156026094822835 C0.6825876065841854,-1.706280888889296 18.35182865684021,-45.29116885143828 42.90707678245527,-47.02675938191434 C67.46242457688267,-48.760939215354234 91.08428577520166,-8.093357389932763 91.9741480988329,-6.544967889522205"></path><g opacity="1" transform="matrix(0.7552,0.6555,-0.6555,0.7552,49.25,42.75)"></g></g></g></g></g><g style="display: none;"><g><g><g></g></g><g><g></g></g><g><g></g></g></g><g><path stroke-linecap="butt" stroke-linejoin="miter" fill-opacity="0" stroke-miterlimit="4" style="display: none;"></path><g></g></g></g><g style="display: none;"><g><g><g></g></g><g><g></g></g><g><g></g></g></g><g><path stroke-linecap="butt" stroke-linejoin="miter" fill-opacity="0" stroke-miterlimit="4" style="display: none;"></path><g></g></g></g><g transform="matrix(1,0,0,1,0,0)" opacity="1" style="user-select: none;"><g opacity="1" transform="matrix(1,0,0,1,1615,513.5)"><g opacity="1" transform="matrix(0.1316,-0.9913,-0.9913,-0.1316,8.875,-66.875)"></g><g opacity="1" transform="matrix(1,0,0,1,0,0)"><g opacity="1" transform="matrix(1,0,0,1,0,0)"></g></g><g opacity="1" transform="matrix(1,0,0,1,0,0)"><g opacity="1" transform="matrix(1,0,0,1,-200,-200)"></g></g><g opacity="1" transform="matrix(1,0,0,1,-135,0)"><g opacity="1" transform="matrix(1,0,0,1,0,0)"></g></g></g><g opacity="1" transform="matrix(1,0,0,1,0,0)"><g opacity="1" transform="matrix(1,0,0,1,0,0)"><g opacity="1" transform="matrix(1,0,0,1,1615,513.5)"><path stroke-linecap="round" stroke-linejoin="round" fill-opacity="0" stroke="rgb(186,31,46)" stroke-opacity="1" stroke-width="15" d="M0 0 M75.00519673194793,-57.34630243975537 C75.39566300955907,-57.688911672042664 75.64228021420013,-57.905348624467706 75.72219636585018,-57.97544433550229"></path><g opacity="1" transform="matrix(0.1316,-0.9913,-0.9913,-0.1316,8.875,-66.875)"></g></g><g opacity="1" transform="matrix(1,0,0,1,1615,513.5)"><path stroke-linecap="butt" stroke-linejoin="round" fill-opacity="0" stroke="rgb(186,31,46)" stroke-opacity="1" stroke-width="15" d="M0 0 M0.03095761911156636,-0.0204364502106813 C1.0896214995060447,-0.7232705617534521 28.569493424985737,-18.98179692505102 39.27152425907563,-27.176091161053854 C49.97355509316553,-35.37038539705668 74.76756245110006,-57.13674350158781 75.72219636585018,-57.97544433550229"></path><g opacity="1" transform="matrix(0.1316,-0.9913,-0.9913,-0.1316,8.875,-66.875)"></g></g></g></g></g><g style="display: none;"><g><g><g></g></g><g><g></g></g><g><g></g></g></g><g><path stroke-linecap="butt" stroke-linejoin="miter" fill-opacity="0" stroke-miterlimit="4" style="display: none;"></path><g></g></g></g><g style="display: none;"><g><g><g></g></g><g><g></g></g><g><g></g></g></g><g><path stroke-linecap="butt" stroke-linejoin="miter" fill-opacity="0" stroke-miterlimit="4" style="display: none;"></path><g></g></g></g><g transform="matrix(1,0,0,1,960,345)" opacity="1" style="user-select: none;"><g opacity="1" transform="matrix(1,0,0,1,0,0)"><path fill="rgb(0,104,161)" fill-opacity="1" d="M0 0 M719.596,182.819 C719.367,183.878 719.0809999999999,184.93699999999998 718.709,186.01 C717.736,186.54 716.7769999999999,187.07000000000002 715.761,187.585 C715.661,187.642 715.5600000000001,187.685 715.46,187.728 C706.772,192.136 699.33,194.498 693.004,195.285 C684.989,196.315 678.806,194.84099999999998 674.226,191.921 C669.374,188.815 666.34,184.078 664.88,178.911 C664.308,176.85 663.921,174.761 663.821,172.643 C663.477,165.215 666.6410000000001,157.442 677.089,149.542 C677.8050000000001,149.012 678.549,148.484 679.336,147.94 C681.955,147.511 684.56,147.352 687.122,147.467 C703.281,148.08200000000002 717.421,158.78900000000002 719.854,172.872 C720.398,176.049 720.354,179.384 719.596,182.819z"></path></g><g opacity="1" transform="matrix(1,0,0,1,0,0)"><path fill="rgb(224,50,67)" fill-opacity="1" d="M0 0 M769.976,127.645 C769.962,127.65899999999999 769.961,127.674 769.961,127.688 C763.621,139.367 756.909,164.642 720.527,185.008 C719.926,185.351 719.324,185.68099999999998 718.709,186.01 C717.4499999999999,182.833 715.832,179.555 713.843,176.292 C706.8009999999999,164.756 695.1800000000001,153.47899999999998 679.336,147.94 C680.495,147.139 681.74,146.337 683.057,145.521 C685.419,144.08999999999997 688.052,142.643 690.972,141.198 C690.972,141.198 726.638,105.761 726.638,105.761 C731.604,99.79299999999999 740.306,96.887 747.162,99.163 C747.162,99.163 756.823,101.224 756.823,101.224 C761.661,103.88600000000001 779.565,109.969 769.976,127.645z"></path></g><g opacity="1" transform="matrix(1,0,0,1,0,0)"><path fill="rgb(67,41,24)" fill-opacity="1" d="M0 0 M720.527,185.008 C719.926,185.351 719.324,185.68099999999998 718.709,186.01 C717.736,186.54 716.7769999999999,187.07000000000002 715.761,187.585 C715.661,187.642 715.5600000000001,187.685 715.46,187.728 C709.85,172.958 691.244,152.934 677.089,149.542 C677.8050000000001,149.012 678.549,148.484 679.336,147.94 C680.495,147.139 681.74,146.337 683.057,145.521 C684.402,146.07899999999998 685.762,146.723 687.122,147.467 C700.246,154.59400000000002 713.628,169.738 719.596,182.819 C719.94,183.563 720.255,184.292 720.527,185.008z"></path></g><g opacity="1" transform="matrix(1,0,0,1,0,0)"><path fill="rgb(29,29,27)" fill-opacity="0.2" d="M0 0 M769.958,127.684 C763.617,139.362 756.911,164.641 720.526,185.005 C719.9259999999999,185.352 719.325,185.68099999999998 718.706,186.009 C717.74,186.54399999999998 716.774,187.068 715.761,187.584 C715.658,187.64000000000001 715.564,187.68699999999998 715.461,187.725 C706.775,192.134 699.327,194.49699999999999 693.005,195.285 C693.005,195.285 693.033,195.417 693.033,195.417 C692.9300000000001,195.436 692.827,195.454 692.724,195.482 C692.7800000000001,195.416 692.837,195.361 692.893,195.295 C699.168,188.166 705.377,177.117 705.846,163.994 C709.654,164.313 713.238,164.341 716.615,164.078 C741.078,162.268 754.7539999999999,145.966 766.31,122.075 C766.31,122.075 769.958,127.684 769.958,127.684z"></path></g></g><g transform="matrix(0.9985,0.0544,-0.0544,0.9985,975.3251,305.4295)" opacity="1" style="user-select: none;"><g opacity="1" transform="matrix(1,0,0,1,0,0)"><path fill="rgb(29,29,27)" fill-opacity="1" d="M0 0 M580.97,288.506 C575.068,290.282 571.274,281.935 579.626,278.432 C582.976,277.02700000000004 591.168,270.407 593.53,265.459 C593.53,265.459 596.26,251.345 596.26,251.345 C596.26,251.345 608.454,247.162 608.454,247.162 C608.454,247.162 612.297,257.958 612.297,257.958 C612.9150000000001,261.785 616.565,269.43899999999996 617.639,274.188 C618.033,275.931 617.003,277.673 615.292,278.188 C615.292,278.188 580.97,288.506 580.97,288.506z"></path></g></g><g transform="matrix(1,0,0,1,0,0)" opacity="1" style="user-select: none;"><g opacity="1" transform="matrix(1,0,0,1,1563.5,600.75)"><g opacity="1" transform="matrix(0.998,0.0635,-0.0635,0.998,76.625,4.875)"></g><g opacity="1" transform="matrix(1,0,0,1,0,0)"><g opacity="1" transform="matrix(1,0,0,1,0,0)"></g></g><g opacity="1" transform="matrix(1,0,0,1,0,0)"><g opacity="1" transform="matrix(1,0,0,1,-200,-200)"></g></g><g opacity="1" transform="matrix(1,0,0,1,-135,0)"><g opacity="1" transform="matrix(1,0,0,1,0,0)"></g></g></g><g opacity="1" transform="matrix(1,0,0,1,0,0)"><g opacity="1" transform="matrix(1,0,0,1,0,0)"><g opacity="1" transform="matrix(1,0,0,1,1563.5,600.75)"><path stroke-linecap="round" stroke-linejoin="round" fill-opacity="0" stroke="rgb(0,104,161)" stroke-opacity="1" stroke-width="25" d="M0 0 M80.16636695958525,-71.70366220468384 C80.86547063651447,-71.73032770494217 81.30724954970181,-71.74430596889098 81.44978844365846,-71.74826370935915"></path><g opacity="1" transform="matrix(0.998,0.0635,-0.0635,0.998,76.625,4.875)"></g></g><g opacity="1" transform="matrix(1,0,0,1,1563.5,600.75)"><path stroke-linecap="butt" stroke-linejoin="round" fill-opacity="0" stroke="rgb(0,104,161)" stroke-opacity="1" stroke-width="25" d="M0 0 M0.00808560636549771,-0.04958667161967778 C0.29128627590786493,-1.8392163486117523 8.287699830139402,-51.77024592211146 18.69228205511361,-60.930108187656224 C29.096864280087807,-70.089970453201 79.6386980777107,-71.69414637044429 81.44978844365846,-71.74826370935915"></path><g opacity="1" transform="matrix(0.998,0.0635,-0.0635,0.998,76.625,4.875)"></g></g></g></g></g><g style="display: none;"><g><g><g></g></g><g><g></g></g><g><g></g></g></g><g><path stroke-linecap="butt" stroke-linejoin="miter" fill-opacity="0" stroke-miterlimit="4" style="display: none;"></path><g></g></g></g><g style="display: none;"><g><g><g></g></g><g><g></g></g><g><g></g></g></g><g><path stroke-linecap="butt" stroke-linejoin="miter" fill-opacity="0" stroke-miterlimit="4" style="display: none;"></path><g></g></g></g><g transform="matrix(0.999,0.0441,-0.0441,0.999,968.0717,314.3175)" opacity="1" style="user-select: none;"><g opacity="1" transform="matrix(1,0,0,1,0,0)"><path stroke-linecap="round" stroke-linejoin="miter" fill-opacity="0" stroke-miterlimit="10" stroke="rgb(232,170,119)" stroke-opacity="1" stroke-width="4.176" d="M0 0 M692.005,163.103 C692.005,163.103 677.876,162.25 677.876,162.25"></path></g><g opacity="1" transform="matrix(1,0,0,1,0,0)"><path fill="rgb(255,187,131)" fill-opacity="1" d="M0 0 M705.062,162.679 C705.062,162.679 685.232,159.728 685.232,159.728 C685.232,159.728 672.156,166.228 672.156,166.228 C672.156,166.228 676.301,171.714 676.301,171.714 C676.301,171.714 682.484,169.084 682.484,169.084 C687.5830000000001,173.325 696.5899999999999,171.663 702.68,169.466 C702.68,169.466 705.062,162.679 705.062,162.679z"></path></g><g opacity="1" transform="matrix(1,0,0,1,0,0)"><path stroke-linecap="round" stroke-linejoin="miter" fill-opacity="0" stroke-miterlimit="10" stroke="rgb(255,187,131)" stroke-opacity="1" stroke-width="4.425" d="M0 0 M684.471,162.465 C684.471,162.465 670.602,169.506 670.602,169.506"></path></g><g opacity="1" transform="matrix(1,0,0,1,0,0)"><path stroke-linecap="round" stroke-linejoin="miter" fill-opacity="0" stroke-miterlimit="10" stroke="rgb(255,187,131)" stroke-opacity="1" stroke-width="3.953" d="M0 0 M685.232,165.203 C685.232,165.203 674.125,170.77 674.125,170.77"></path></g></g><g transform="matrix(1,0,0,1,960,345)" opacity="1" style="user-select: none;"><g opacity="1" transform="matrix(1,0,0,1,0,0)"><path fill="rgb(67,41,24)" fill-opacity="1" d="M0 0 M695.409,44.666 C711.043,56.519 717.592,97.59 736.933,93.531 C756.274,89.47200000000001 763.923,68.27 761.435,45.634 C759.02,23.663 738.5540000000001,14.645 719.118,18.218 C689.7180000000001,23.622 684.6129999999999,36.480999999999995 695.409,44.666z"></path></g></g><g transform="matrix(1,0,0,1,960,345)" opacity="1" style="user-select: none;"><g opacity="1" transform="matrix(1,0,0,1,0,0)"><path fill="rgb(255,187,131)" fill-opacity="1" d="M0 0 M753.288,101.281 C753.331,111.14200000000001 742.768,114.134 736.585,110.27 C735.4830000000001,109.583 734.51,108.681 733.766,107.55 C733.0219999999999,106.462 732.5060000000001,105.14500000000001 732.291,103.614 C732.234,103.199 732.205,102.77 732.191,102.341 C732.177,102.012 732.191,101.768 732.177,101.668 C732.177,101.668 731.504,64.313 731.504,64.313 C731.504,64.313 752.615,63.926 752.615,63.926 C752.615,63.926 753.102,91.148 753.102,91.148 C753.102,91.148 753.288,101.281 753.288,101.281z"></path></g><g opacity="1" transform="matrix(1,0,0,1,0,0)"><path fill="rgb(29,29,27)" fill-opacity="0.2" d="M0 0 M753.116,91.148 C753.116,91.148 753.102,91.148 753.102,91.148 C753.102,91.148 736.585,110.27 736.585,110.27 C735.4830000000001,109.583 734.51,108.681 733.766,107.55 C733.0219999999999,106.462 732.5060000000001,105.14500000000001 732.291,103.614 C732.234,103.199 732.205,102.77 732.191,102.341 C732.177,102.012 732.191,101.768 732.177,101.668 C732.177,101.668 731.504,64.313 731.504,64.313 C731.504,64.313 752.615,63.926 752.615,63.926 C752.615,63.926 753.116,91.148 753.116,91.148z"></path></g></g><g transform="matrix(1,0,0,1,960,345)" opacity="1" style="user-select: none;"><g opacity="1" transform="matrix(1,0,0,1,0,0)"><path fill="rgb(255,187,131)" fill-opacity="1" d="M0 0 M696.754,70.058 C694.635,96.756 711.6659999999999,111.24199999999999 729.41,105.6 C732.4309999999999,104.63499999999999 735.482,103.08699999999999 738.468,100.904 C748.3059999999999,93.72 750.661,83.439 748.856,70.318 C752.595,64.52499999999999 754.9060000000001,59.36 754.326,52.213 C753,35.878 739.323,25.308 722.081,26.61 C707.4250000000001,27.716 695.904,38.206 693.59,51.348 C693.1790000000001,53.675 693.056,56.089999999999996 693.255,58.54 C693.593,62.708 694.827,66.59 696.754,70.058z"></path></g><g opacity="1" transform="matrix(1,0,0,1,0,0)"><path fill="rgb(168,123,86)" fill-opacity="1" d="M0 0 M721.519,88.741 C721.01,90.362 720.017,91.83099999999999 718.701,92.999 C717.389,94.167 715.715,95.011 713.938,95.332 C712.16,95.66499999999999 710.335,95.473 708.687,94.949 C707.021,94.445 705.5550000000001,93.51299999999999 704.291,92.404 C705.9770000000001,92.67099999999999 707.51,93.10499999999999 709.063,93.219 C710.597,93.378 712.09,93.383 713.528,93.119 C714.966,92.859 716.343,92.33 717.661,91.573 C718.9979999999999,90.83099999999999 720.229,89.841 721.519,88.741z"></path></g><g opacity="1" transform="matrix(1,0,0,1,0,0)"><g opacity="1" transform="matrix(1,0,0,1,0,0)"><path fill="rgb(207,151,106)" fill-opacity="1" d="M0 0 M707.915,69.316 C709.876,75.675 700.938,77.111 703.127,82.653 C704.5759999999999,86.32100000000001 714.225,86.862 716.557,81.567 C716.557,81.567 710.828,68.896 710.828,68.896 C710.828,68.896 707.915,69.316 707.915,69.316z"></path></g><g opacity="1" transform="matrix(1,0,0,1,0,0)"><path fill="rgb(255,187,131)" fill-opacity="1" d="M0 0 M707.705,68.764 C710.5540000000001,75.538 701.931,77.958 704.486,82.059 C706.154,84.736 712.698,84.907 716.557,81.567 C716.557,81.567 710.668,67.709 710.668,67.709 C710.668,67.709 707.705,68.764 707.705,68.764z"></path></g></g><g opacity="1" transform="matrix(1,0,0,1,0,0)"><path fill="rgb(168,123,86)" fill-opacity="1" d="M0 0 M717.666,95.515 C714.9000000000001,97.413 712.1709999999999,97.995 709.64,96.677 C713.774,101.05600000000001 716.532,97.976 717.666,95.515z"></path></g><g opacity="1" transform="matrix(1,0,0,1,0,0)"><path fill="rgb(67,41,24)" fill-opacity="1" d="M0 0 M748.906,70.696 C745.3149999999999,68.447 745.183,63.888000000000005 745.127,60.569 C745.115,59.836000000000006 742.846,57.846000000000004 742.811,57.819 C742.691,57.746 740.652,58.594 740.438,58.455 C740.035,63.638 739.567,85.176 731.504,90.29 C718.365,82.32900000000001 704.572,84.654 700.858,92.973 C695.337,115.813 719.728,119.91999999999999 738.255,103.529 C747.379,95.457 750.7109999999999,83.817 748.906,70.696zM0 0 M712.157,101.203 C707.6560000000001,100.875 703.7860000000001,97.99600000000001 705.062,94.691 C706.004,92.251 712.851,87.12899999999999 722.716,92.794 C727.664,95.63499999999999 718.39,101.657 712.157,101.203z"></path></g><g opacity="1" transform="matrix(1,0,0,1,0,0)"><path fill="rgb(67,41,24)" fill-opacity="1" d="M0 0 M737.262,22.686 C751.784,29.898 757.655,37.441 759.8,50.875 C757.458,54.79 756.47,62.452000000000005 752.412,64.766 C752.412,64.766 740.438,58.455 740.438,58.455 C741.154,27.743 708.104,41.964 695.409,44.666 C686.007,20.041999999999998 727.1419999999999,17.454 737.262,22.686z"></path></g><g opacity="1" transform="matrix(1,0,0,1,0,0)"><g opacity="1" transform="matrix(1,0,0,1,0,0)"><path fill="rgb(255,187,131)" fill-opacity="1" d="M0 0 M744.902,62.071 C744.528,66.704 747.055,70.729 750.545,71.063 C754.035,71.397 757.168,67.912 757.542,63.279 C757.916,58.646 755.389,54.621 751.899,54.287 C748.409,53.952999999999996 745.2760000000001,57.437999999999995 744.902,62.071z"></path></g><g opacity="1" transform="matrix(1,0,0,1,0,0)"><path fill="rgb(207,151,106)" fill-opacity="1" d="M0 0 M749.524,64.286 C752.085,62.979 753.5949999999999,65.193 753.151,66.989 C753.928,65.851 754.415,64.31400000000001 754.41,62.597 C754.4,59.09 752.3919999999999,56.248999999999995 749.925,56.251 C749.1289999999999,56.251999999999995 748.39,56.565 747.745,57.085 C747.745,57.085 747.747,57.07 747.747,57.07 C748.627,56.288 749.6890000000001,55.791999999999994 750.864,55.791 C753.835,55.788 756.251,58.717 756.261,62.332 C756.271,65.947 753.872,68.881 750.901,68.884 C750.875,68.884 750.851,68.878 750.826,68.875 C750.761,68.883 750.706,68.902 750.638,68.908 C750.659,68.892 750.6750000000001,68.875 750.696,68.859 C750.6800000000001,68.857 750.6640000000001,68.854 750.647,68.853 C750.6800000000001,68.84599999999999 750.71,68.827 750.743,68.819 C753.1170000000001,66.906 752.093,64.228 749.524,64.286z"></path></g></g></g><g transform="matrix(0.9994,0.0349,-0.0349,0.9994,961.1361,319.3527)" opacity="1" style="user-select: none;"><g opacity="1" transform="matrix(1,0,0,1,0,0)"><path fill="rgb(67,41,24)" fill-opacity="1" d="M0 0 M686.456,57.478 C673.148,18.316000000000003 716.5060000000001,13.214000000000002 736.008,19.969 C724.755,24.595000000000002 696.801,41.337 686.456,57.478z"></path></g></g><g transform="matrix(0.9994,0.0349,-0.0349,0.9994,961.933,319.2768)" opacity="1" style="user-select: none;"><g opacity="1" transform="matrix(1,0,0,1,0,0)"><path fill="rgb(67,41,24)" fill-opacity="1" d="M0 0 M718.821,28.106 C696.3720000000001,32.132000000000005 690.178,45.002 690.594,56.42 C700.8570000000001,42.122 729.341,33.86 738.133,43.862 C741.298,37.115 736.466,27.788 718.821,28.106z"></path></g></g><g transform="matrix(1,0,0,1,960,345)" opacity="1" style="user-select: none;"><g opacity="1" transform="matrix(1,0,0,1,0,0)"><path fill="rgb(67,41,24)" fill-opacity="1" d="M0 0 M713.968,68.864 C714.578,70.084 715.9939999999999,70.887 717.132,70.656 C718.27,70.42500000000001 718.698,69.249 718.088,68.029 C717.478,66.809 716.062,66.006 714.924,66.237 C713.786,66.46799999999999 713.358,67.644 713.968,68.864z"></path></g></g><g transform="matrix(1,0,0,1,960,345)" opacity="1" style="user-select: none;"><g opacity="1" transform="matrix(1,0,0,1,0,0)"><path fill="rgb(67,41,24)" fill-opacity="1" d="M0 0 M700.175,71.775 C700.785,72.995 702.201,73.79799999999999 703.339,73.567 C704.4770000000001,73.336 704.905,72.15899999999999 704.295,70.939 C703.685,69.719 702.269,68.91600000000001 701.131,69.147 C699.9929999999999,69.378 699.5649999999999,70.555 700.175,71.775z"></path></g></g><g transform="matrix(1,0,0,1,960,345)" opacity="1" style="user-select: none;"><g opacity="1" transform="matrix(1,0,0,1,0,0)"><path stroke-linecap="round" stroke-linejoin="miter" fill-opacity="0" stroke-miterlimit="10" stroke="rgb(67,41,24)" stroke-opacity="1" stroke-width="3.131" d="M0 0 M722.716,61.7 C721.1080000000001,60.752 716.2230000000001,59.227 712.157,61.358"></path></g></g><g transform="matrix(1,0,0,1,960,345)" opacity="1" style="user-select: none;"><g opacity="1" transform="matrix(1,0,0,1,0,0)"><path stroke-linecap="round" stroke-linejoin="miter" fill-opacity="0" stroke-miterlimit="10" stroke="rgb(67,41,24)" stroke-opacity="1" stroke-width="3.148" d="M0 0 M703.372,63.116 C699.3539999999999,62.576 695.722,65.148 695.337,67.247"></path></g></g><g transform="matrix(1,0,0,1,0,0)" opacity="1" style="user-select: none;"><g opacity="1" transform="matrix(1,0,0,1,1660,512.75)"><g opacity="1" transform="matrix(0.1288,-0.9917,-0.9917,-0.1288,7.5,-57.75)"></g><g opacity="1" transform="matrix(1,0,0,1,0,0)"><g opacity="1" transform="matrix(1,0,0,1,0,0)"></g></g><g opacity="1" transform="matrix(1,0,0,1,0,0)"><g opacity="1" transform="matrix(1,0,0,1,-200,-200)"></g></g><g opacity="1" transform="matrix(1,0,0,1,-135,0)"><g opacity="1" transform="matrix(1,0,0,1,0,0)"></g></g></g><g opacity="1" transform="matrix(1,0,0,1,0,0)"><g opacity="1" transform="matrix(1,0,0,1,0,0)"><g opacity="1" transform="matrix(1,0,0,1,1660,512.75)"><path stroke-linecap="round" stroke-linejoin="round" fill-opacity="0" stroke="rgb(223,50,66)" stroke-opacity="1" stroke-width="15" d="M0 0 M65.50278367071263,-49.02826987063156 C65.37623601104434,-49.668902908986965 65.28862113940546,-50.073556630417656 65.26022325729997,-50.20430279782582"></path><g opacity="1" transform="matrix(0.1288,-0.9917,-0.9917,-0.1288,7.5,-57.75)"></g></g><g opacity="1" transform="matrix(1,0,0,1,1660,512.75)"><path stroke-linecap="butt" stroke-linejoin="round" fill-opacity="0" stroke="rgb(223,50,66)" stroke-opacity="1" stroke-width="15" d="M0 0 M0.04156994067030695,0.021556652911989715 C1.4861399380603366,0.7627735730106693 39.812179204799094,20.22985016720937 57.22624990849669,6.81990659810284 C74.63945772870171,-6.591157431658189 65.60786227393201,-48.61832293852271 65.26022325729997,-50.20430279782582"></path><g opacity="1" transform="matrix(0.1288,-0.9917,-0.9917,-0.1288,7.5,-57.75)"></g></g></g></g></g><g style="display: none;"><g><g><g></g></g><g><g></g></g><g><g></g></g></g><g><path stroke-linecap="butt" stroke-linejoin="miter" fill-opacity="0" stroke-miterlimit="4" style="display: none;"></path><g></g></g></g><g style="display: none;"><g><g><g></g></g><g><g></g></g><g><g></g></g></g><g><path stroke-linecap="butt" stroke-linejoin="miter" fill-opacity="0" stroke-miterlimit="4" style="display: none;"></path><g></g></g></g><g transform="matrix(1,0,0,1,960,345)" opacity="1" style="user-select: none;"><g opacity="1" transform="matrix(1,0,0,1,0,0)"><path fill="rgb(29,29,27)" fill-opacity="0.2" d="M0 0 M684.986,173.659 C684.986,173.659 633.8870000000001,175.673 633.907,176.12 C628.772,177.219 625.507,179.276 622.779,180.441 C622.779,180.441 682.211,176.984 682.211,176.984 C683.838,176.91 685.096,175.532 685.022,173.905 C685.018,173.82 684.997,173.74099999999999 684.986,173.659z"></path></g><g opacity="1" transform="matrix(1,0,0,1,0,0)"><g opacity="1" transform="matrix(1,0,0,1,0,0)"><path fill="rgb(255,255,255)" fill-opacity="1" d="M0 0 M659.232,173.217 C659.232,173.217 612.269,175.482 612.269,175.482 C611.276,175.53 610.277,174.642 610.038,173.499 C610.038,173.499 600.216,126.497 600.216,126.497 C599.977,125.354 600.588,124.388 601.581,124.34 C601.581,124.34 648.545,122.075 648.545,122.075 C649.538,122.027 650.536,122.915 650.775,124.058 C650.775,124.058 660.597,171.06 660.597,171.06 C660.836,172.203 660.225,173.169 659.232,173.217z"></path></g><g opacity="1" transform="matrix(1,0,0,1,0,0)"><path fill="rgb(218,218,218)" fill-opacity="1" d="M0 0 M658.221,173.266 C658.221,173.266 611.258,175.531 611.258,175.531 C610.265,175.579 609.2660000000001,174.69 609.027,173.547 C609.027,173.547 599.205,126.546 599.205,126.546 C598.966,125.403 599.577,124.437 600.57,124.389 C600.57,124.389 647.533,122.123 647.533,122.123 C648.5260000000001,122.075 649.525,122.964 649.764,124.107 C649.764,124.107 659.586,171.109 659.586,171.109 C659.825,172.252 659.214,173.218 658.221,173.266z"></path></g><g opacity="1" transform="matrix(1,0,0,1,0,0)"><path fill="rgb(255,255,255)" fill-opacity="1" d="M0 0 M632.654,148.67 C633.207,151.314 632.1949999999999,153.52800000000002 630.396,153.615 C628.597,153.702 626.6899999999999,151.62800000000001 626.137,148.984 C625.584,146.34 626.596,144.12699999999998 628.395,144.04 C630.194,143.953 632.101,146.02599999999998 632.654,148.67z"></path></g></g><g opacity="1" transform="matrix(1,0,0,1,0,0)"><g opacity="1" transform="matrix(1,0,0,1,0,0)"><path fill="rgb(198,198,198)" fill-opacity="1" d="M0 0 M688.441,173.383 C688.441,173.383 612.097,177.066 612.097,177.066 C612.097,177.066 612.022,175.494 612.022,175.494 C612.022,175.494 688.366,171.812 688.366,171.812 C688.366,171.812 688.441,173.383 688.441,173.383z"></path></g><g opacity="1" transform="matrix(1,0,0,1,0,0)"><path fill="rgb(255,255,255)" fill-opacity="1" d="M0 0 M688.441,173.383 C688.441,173.383 659.443,174.782 659.443,174.782 C659.443,174.782 659.367,173.21 659.367,173.21 C659.367,173.21 688.366,171.812 688.366,171.812 C688.366,171.812 688.441,173.383 688.441,173.383z"></path></g></g></g><g clip-path="url(#cp_18meTzZZ)" transform="matrix(0.2033,0,0,0.2033,1650.5005,206.668)" opacity="1"><g clip-path="url(#cp_v5NO1vEd)" transform="matrix(1,0,0,1,0,0)" opacity="0" style="display: none;"><g transform="matrix(1.02,0,0,1.02,133.68,403.32)" opacity="1" style="user-select: none; display: block;"><g opacity="1" transform="matrix(1,0,0,1,16,-266)"><path fill="rgb(241,182,24)" fill-opacity="1" d="M0 0 M0,-86 C47.46339999999999,-86 86,-47.46339999999999 86,0 C86,47.46339999999999 47.46339999999999,86 0,86 C-47.46339999999999,86 -86,47.46339999999999 -86,0 C-86,-47.46339999999999 -47.46339999999999,-86 0,-86z" style="display: block;"></path></g></g><g transform="matrix(0.7584,0,0,0.7584,137.8661,333.7264)" opacity="1" style="user-select: none; display: block;"><g opacity="1" transform="matrix(1.0769,0,0,1.0769,16,-266)"><path fill="rgb(255,205,71)" fill-opacity="1" d="M0 0 M0,-86 C47.46339999999999,-86 86,-47.46339999999999 86,0 C86,47.46339999999999 47.46339999999999,86 0,86 C-47.46339999999999,86 -86,47.46339999999999 -86,0 C-86,-47.46339999999999 -47.46339999999999,-86 0,-86z" style="display: block;"></path></g></g><g mask="url(#ly_KsR5ZLFKVa)" style="mix-blend-mode: screen;"><g transform="matrix(0.9893,0.1456,-0.1456,0.9893,-23.7019,396.5068)" opacity="0" style="user-select: none; display: block;"><g opacity="1" transform="matrix(1,0,0,1,0,0)"><g opacity="1" transform="matrix(1,0,0,1,0,0)"><path stroke-linecap="butt" stroke-linejoin="miter" fill-opacity="0" stroke-miterlimit="4" stroke="rgb(255,255,255)" stroke-opacity="1" stroke-width="33" d="M0 0 M-74,-346.5 C-74,-346.5 55.5,-156 55.5,-156" style="display: block;"></path></g><g opacity="1" transform="matrix(1,0,0,1,0,0)"><path stroke-linecap="butt" stroke-linejoin="miter" fill-opacity="0" stroke-miterlimit="4" stroke="rgb(255,255,255)" stroke-opacity="1" stroke-width="23" d="M0 0 M-45.5,-362.5 C-45.5,-362.5 84,-173.5 84,-173.5" style="display: block;"></path></g></g></g></g><g transform="matrix(0,0,0,0,1.0012,73.0001)" opacity="1" style="user-select: none; display: block;"><path fill="rgb(255,255,255)" fill-opacity="1" d="M0 0 M25.64,0 C9.244,0 0,9.244 0,25.64 C0,9.244 -9.244,0 -25.64,0 C-9.244,0 0,-9.244 0,-25.64 C0,-9.244 9.244,0 25.64,0z" style="display: block;"></path></g></g></g></g><g transform="matrix(1,0,0,1,750,190)" opacity="1" style="user-select: none;"><g opacity="1" transform="matrix(1,0,0,1,0,0)"><path fill="rgb(12,117,100)" fill-opacity="1" d="M0 0 M-534.662,-44.68 C-534.662,-44.68 -556.552,-44.68 -556.552,-44.68 C-556.552,-44.68 -556.552,-5.64 -556.552,-5.64 C-556.552,-5.64 -584.022,-5.64 -584.022,-5.64 C-584.022,-5.64 -584.022,8.79 -584.022,8.79 C-584.022,8.79 -608.042,8.79 -608.042,8.79 C-608.042,8.79 -608.042,61.82 -608.042,61.82 C-608.042,61.82 -613.252,61.82 -613.252,61.82 C-613.252,61.82 -682.352,-162.69 -682.352,-162.69 C-682.352,-162.69 -594.142,-162.72 -594.142,-162.72 C-585.162,-162.72 -577.6619999999999,-160.68 -571.632,-156.59 C-565.612,-152.51 -560.932,-146.35000000000002 -559.092,-139.61 C-559.092,-139.61 -534.662,-44.68 -534.662,-44.68z"></path></g></g><g clip-path="url(#cp_eYv08Rmf)" transform="matrix(0.9,0,0,0.9,-175,-95)" opacity="1"><g transform="matrix(0.9995,0.0312,-0.0312,0.9995,968.172,371.833)" opacity="1" style="user-select: none;"><g opacity="1" transform="matrix(1,0,0,1,0,0)"><path fill="rgb(29,29,27)" fill-opacity="1" d="M0 0 M-684.361,283.435 C-684.361,283.435 -700.241,283.435 -700.241,283.435 C-701.59,283.435 -702.676,282.341 -702.676,280.992 C-702.676,276.385 -700.957,266.694 -700.178,263.981 C-700.178,263.981 -691.339,265.935 -691.339,265.935 C-691.339,265.935 -690.967,271.424 -690.967,271.424 C-688.183,275.46 -687.024,276.094 -682.651,278.978 C-680.632,280.31 -681.72,283.435 -684.361,283.435z"></path></g></g><g transform="matrix(1,-0.0068,0.0068,1,958.1331,345.5967)" opacity="1" style="user-select: none;"><g opacity="1" transform="matrix(1,0,0,1,0,0)"><path fill="rgb(29,29,27)" fill-opacity="1" d="M0 0 M-630.479,283.435 C-630.479,283.435 -654.467,283.435 -654.467,283.435 C-655.816,283.435 -656.901,282.341 -656.901,280.992 C-656.901,276.385 -656.495,270.50100000000003 -655.716,267.788 C-655.716,267.788 -647.469,265.813 -647.469,265.813 C-647.469,265.813 -646.953,270.588 -646.953,270.588 C-641.1419999999999,274.624 -633.1410000000001,276.094 -628.768,278.978 C-626.749,280.31 -627.8380000000001,283.435 -630.479,283.435z"></path></g></g><g transform="matrix(1,0,0,1,960,350)" opacity="1" style="user-select: none;"><g opacity="1" transform="matrix(1,0,0,1,0,0)"><path fill="rgb(255,187,131)" fill-opacity="1" d="M0 0 M-663.156,51.334 C-663.4689999999999,51.479000000000006 -663.77,51.613 -664.083,51.747 C-676.61,56.927 -684.816,50.407 -690.331,43.373 C-692.397,40.748999999999995 -694.082,38.047000000000004 -695.478,35.859 C-701.049,32.956 -707.189,32.342999999999996 -710.159,26.403 C-716.947,12.815999999999999 -713.174,-1.0069999999999997 -699.586,-7.795 C-681.845,-16.671 -659.482,-5.148 -658.377,14.457 C-647.0889999999999,34.230000000000004 -653.3199999999999,46.68900000000001 -663.156,51.334z"></path></g><g opacity="1" transform="matrix(1,0,0,1,0,0)"><path fill="rgb(29,29,27)" fill-opacity="1" d="M0 0 M-660.961,8.628 C-655.607,24.888 -663.873,42.220000000000006 -679.423,47.34 C-694.973,52.46 -711.919,43.43000000000001 -717.273,27.17 C-722.6270000000001,10.91 -714.362,-6.422 -698.812,-11.542 C-683.2620000000001,-16.662 -666.315,-7.6320000000000014 -660.961,8.628z"></path></g><g opacity="1" transform="matrix(1,0,0,1,0,0)"><path fill="rgb(29,29,27)" fill-opacity="0.2" d="M0 0 M-663.156,51.334 C-663.4689999999999,51.479000000000006 -663.77,51.613 -664.083,51.747 C-676.61,56.927 -684.816,50.407 -690.331,43.373 C-690.331,43.373 -685.362,36.116 -685.362,36.116 C-685.362,36.116 -663.156,51.334 -663.156,51.334z"></path></g><g opacity="1" transform="matrix(1,0,0,1,0,0)"><path fill="rgb(29,29,27)" fill-opacity="1" d="M0 0 M-704.045,32.501 C-715.414,32.51 -721.8180000000001,15.557 -715.373,2.624 C-708.928,-10.309 -693.8670000000001,-17.019 -680.325,-14.926 C-652.9150000000001,-10.689 -680.6909999999999,32.482 -704.045,32.501z"></path></g></g><g transform="matrix(1,0,0,1,960,350)" opacity="1" style="user-select: none;"><g opacity="1" transform="matrix(1,0,0,1,0,0)"><path fill="rgb(255,187,131)" fill-opacity="1" d="M0 0 M-677.736,31.175 C-677.736,31.175 -673.279,59.08 -673.279,59.08 C-673.186,59.550999999999995 -673.1329999999999,59.993 -673.117,60.424 C-672.824,68.627 -686.102,70.473 -687.678,61.379 C-687.678,61.379 -692.134,33.475 -692.134,33.475 C-692.134,33.475 -677.736,31.175 -677.736,31.175z"></path></g></g><g transform="matrix(1,0,0,1,0,0)" opacity="1" style="user-select: none;"><g opacity="1" transform="matrix(1,0,0,1,264.5,622.75)"><g opacity="1" transform="matrix(-0.607,-0.7947,-0.7947,0.607,-53.375,-69.875)"></g><g opacity="1" transform="matrix(1,0,0,1,0,0)"><g opacity="1" transform="matrix(1,0,0,1,0,0)"></g></g><g opacity="1" transform="matrix(1,0,0,1,0,0)"><g opacity="1" transform="matrix(1,0,0,1,-200,-200)"></g></g><g opacity="1" transform="matrix(1,0,0,1,-135,0)"><g opacity="1" transform="matrix(1,0,0,1,0,0)"></g></g></g><g opacity="1" transform="matrix(1,0,0,1,0,0)"><g opacity="1" transform="matrix(1,0,0,1,0,0)"><g opacity="1" transform="matrix(1,0,0,1,264.5,622.75)"><path stroke-linecap="round" stroke-linejoin="round" fill-opacity="0" stroke="rgb(210,140,0)" stroke-opacity="1" stroke-width="18" d="M0 0 M16.424034431184268,-121.96003104036356 C16.46486025501075,-122.63801721434419 16.488916755839185,-123.06284575007112 16.496700075898033,-123.20091971549857"></path><g opacity="1" transform="matrix(-0.607,-0.7947,-0.7947,0.607,-53.375,-69.875)"></g></g><g opacity="1" transform="matrix(1,0,0,1,264.5,622.75)"><path stroke-linecap="butt" stroke-linejoin="round" fill-opacity="0" stroke="rgb(210,140,0)" stroke-opacity="1" stroke-width="18" d="M0 0 M0.009726075787206412,-0.048219987398141484 C0.3231585975431841,-1.5208397802522597 7.7352505406608785,-36.48752811396167 11.050322220124087,-61.2501089923762 C14.36539389958729,-86.01268987079072 16.411746025962614,-121.69771254102143 16.496700075898033,-123.20091971549857"></path><g opacity="1" transform="matrix(-0.607,-0.7947,-0.7947,0.607,-53.375,-69.875)"></g></g></g><g opacity="1" transform="matrix(1,0,0,1,0,0)"><g opacity="1" transform="matrix(1,0,0,1,264.5,622.75)"><path stroke-linecap="round" stroke-linejoin="round" fill-opacity="0" stroke="rgb(0,141,166)" stroke-opacity="1" stroke-width="25" d="M0 0"></path><g opacity="1" transform="matrix(-0.607,-0.7947,-0.7947,0.607,-53.375,-69.875)"></g></g><g opacity="1" transform="matrix(1,0,0,1,264.5,622.75)"><path stroke-linecap="butt" stroke-linejoin="round" fill-opacity="0" stroke="rgb(189,126,0)" stroke-opacity="1" stroke-width="21" d="M0 0 M0.009726075787206412,-0.048219987398141484 C0.10767649320720807,-0.5081011848037917 0.8972847173029734,-4.232005433363398 2.0388411691554964,-9.892086958150287"></path><g opacity="1" transform="matrix(-0.607,-0.7947,-0.7947,0.607,-53.375,-69.875)"></g></g></g></g></g><g style="display: none;"><g><g><g></g></g><g><g></g></g><g><g></g></g></g><g><path stroke-linecap="butt" stroke-linejoin="miter" fill-opacity="0" stroke-miterlimit="4" style="display: none;"></path><g></g></g></g><g style="display: none;"><g><g><g></g></g><g><g></g></g><g><g></g></g></g><g><path stroke-linecap="butt" stroke-linejoin="miter" fill-opacity="0" stroke-miterlimit="4" style="display: none;"></path><g></g></g></g><g transform="matrix(1,0,0,1,0,0)" opacity="1" style="user-select: none;"><g opacity="1" transform="matrix(1,0,0,1,252.25,503.75)"><g opacity="1" transform="matrix(0.8321,-0.5547,0.5547,0.8321,50.25,-33.5)"></g><g opacity="1" transform="matrix(1,0,0,1,0,0)"><g opacity="1" transform="matrix(1,0,0,1,0,0)"></g></g><g opacity="1" transform="matrix(1,0,0,1,0,0)"><g opacity="1" transform="matrix(1,0,0,1,-200,-200)"></g></g><g opacity="1" transform="matrix(1,0,0,1,-135,0)"><g opacity="1" transform="matrix(1,0,0,1,0,0)"></g></g></g><g opacity="1" transform="matrix(1,0,0,1,0,0)"><g opacity="1" transform="matrix(1,0,0,1,252.25,503.75)"><path stroke-linecap="round" stroke-linejoin="round" fill-opacity="0" stroke="rgb(255,255,255)" stroke-opacity="1" stroke-width="12" d="M0 0 M0.0038694750539036704,-0.03382776108995955 C0.11591891469140592,-1.0591910738122934 2.7801439571611866,-25.373642125050875 6.169362156097343,-42.31612756845615 C9.557193604542938,-59.25889036195956 16.449620892739524,-82.72770096405277 16.74056114565966,-83.71728611411858"></path><g opacity="1" transform="matrix(0.8321,-0.5547,0.5547,0.8321,50.25,-33.5)"></g></g></g></g><g style="display: none;"><g><g><g></g></g><g><g></g></g><g><g></g></g></g><g><path stroke-linecap="butt" stroke-linejoin="miter" fill-opacity="0" stroke-miterlimit="4" style="display: none;"></path><g></g></g></g><g style="display: none;"><g><g><g></g></g><g><g></g></g><g><g></g></g></g><g><path stroke-linecap="butt" stroke-linejoin="miter" fill-opacity="0" stroke-miterlimit="4" style="display: none;"></path><g></g></g></g><g transform="matrix(0.9792,-0.2031,0.2031,0.9792,919.8844,206.1444)" opacity="1" style="user-select: none;"><g opacity="1" transform="matrix(1,0,0,1,0,0)"><path stroke-linecap="round" stroke-linejoin="miter" fill-opacity="0" stroke-miterlimit="10" stroke="rgb(255,187,131)" stroke-opacity="1" stroke-width="3.115" d="M0 0 M-713.61,170.255 C-713.61,170.255 -717.691,179.934 -717.691,179.934"></path></g><g opacity="1" transform="matrix(1,0,0,1,0,0)"><path stroke-linecap="round" stroke-linejoin="miter" fill-opacity="0" stroke-miterlimit="10" stroke="rgb(255,187,131)" stroke-opacity="1" stroke-width="3.115" d="M0 0 M-720.448,167.372 C-720.448,167.372 -724.529,177.051 -724.529,177.051"></path></g><g opacity="1" transform="matrix(1,0,0,1,0,0)"><path stroke-linecap="round" stroke-linejoin="miter" fill-opacity="0" stroke-miterlimit="10" stroke="rgb(255,187,131)" stroke-opacity="1" stroke-width="2.596" d="M0 0 M-723.638,166.027 C-723.638,166.027 -726.861,173.671 -726.861,173.671"></path></g><g opacity="1" transform="matrix(1,0,0,1,0,0)"><path stroke-linecap="round" stroke-linejoin="miter" fill-opacity="0" stroke-miterlimit="10" stroke="rgb(255,187,131)" stroke-opacity="1" stroke-width="3.115" d="M0 0 M-717.02,168.817 C-717.02,168.817 -721.866,180.311 -721.866,180.311"></path></g><g opacity="1" transform="matrix(1,0,0,1,0,0)"><path fill="rgb(232,170,119)" fill-opacity="1" d="M0 0 M-710.042,166.044 C-710.042,166.044 -711.877,170.396 -711.877,170.396 C-712.202,171.166 -712.9309999999999,171.705 -713.766,171.746 C-717.212,171.91500000000002 -722.068,169.94 -724.401,167.271 C-724.952,166.641 -725.0790000000001,165.74599999999998 -724.754,164.975 C-724.754,164.975 -722.915,160.616 -722.915,160.616 C-721.49,157.23700000000002 -718.085,155.37699999999998 -714.691,156.373 C-714.442,156.447 -714.188,156.53199999999998 -713.933,156.64 C-713.933,156.64 -713.801,156.696 -713.801,156.696 C-710.158,158.232 -708.51,162.41000000000003 -710.042,166.044z"></path></g><g opacity="1" transform="matrix(1,0,0,1,0,0)"><path stroke-linecap="round" stroke-linejoin="miter" fill-opacity="0" stroke-miterlimit="10" stroke="rgb(255,187,131)" stroke-opacity="1" stroke-width="3.634" d="M0 0 M-711.541,162.275 C-711.541,162.275 -711.312,174.635 -711.312,174.635"></path></g><g opacity="1" transform="matrix(1,0,0,1,0,0)"><path fill="rgb(255,187,131)" fill-opacity="1" d="M0 0 M-710.042,166.044 C-710.042,166.044 -710.264,166.571 -710.264,166.571 C-711.788,167.825 -713.768,168.24499999999998 -715.528,167.503 C-718.212,166.37099999999998 -719.337,162.943 -718.031,159.846 C-717.337,158.20000000000002 -716.0980000000001,156.982 -714.691,156.373 C-714.442,156.447 -714.188,156.53199999999998 -713.933,156.64 C-713.933,156.64 -713.801,156.696 -713.801,156.696 C-710.158,158.232 -708.51,162.41000000000003 -710.042,166.044z"></path></g></g><g transform="matrix(1,0,0,1,960,350)" opacity="1" style="user-select: none;"><g opacity="1" transform="matrix(1,0,0,1,0,0)"><path fill="rgb(255,170,0)" fill-opacity="1" d="M0 0 M-669.134,162.53 C-692.267,164.764 -699.161,146.875 -692.91,131.292 C-688.952,121.449 -685.491,116.643 -687.39,109.385 C-687.39,109.385 -699.117,77.694 -699.117,77.694 C-700.096,73.955 -698.986,70.056 -696.357,67.398 C-694.9259999999999,65.938 -685.039,58.181999999999995 -670.084,60.913 C-670.084,60.913 -670.054,60.913 -670.054,60.913 C-670.054,60.913 -666.739,61.629 -666.739,61.629 C-666.739,61.629 -663.628,62.301 -663.628,62.301 C-661.788,63.133 -660.313,64.652 -659.641,66.492 C-659.641,66.507 -659.641,66.506 -659.641,66.521 C-659.3929999999999,67.178 -659.262,67.88 -659.247,68.61 C-659.174,79.899 -658.9259999999999,88.647 -659.189,96.256 C-659.218,96.679 -659.232,97.059 -659.247,97.439 C-659.568,104.434 -660.372,108.159 -659.846,112.248 C-659.788,112.628 -659.7139999999999,113.02199999999999 -659.641,113.416 C-657.713,124.72 -651.521,128.79500000000002 -650.601,138.346 C-649.345,151.285 -655.625,161.216 -669.134,162.53z"></path></g><g opacity="1" transform="matrix(1,0,0,1,0,0)"><path fill="rgb(255,170,0)" fill-opacity="1" d="M0 0 M-652.919,83.8 C-652.413,89.03 -656.242,93.681 -661.472,94.187 C-666.702,94.693 -671.3530000000001,90.864 -671.859,85.634 C-672.365,80.404 -668.5360000000001,75.753 -663.306,75.247 C-658.076,74.741 -653.425,78.57 -652.919,83.8z"></path></g><g opacity="1" transform="matrix(1,0,0,1,0,0)"><path fill="rgb(255,255,255)" fill-opacity="1" d="M0 0 M-671.909,86.782 C-671.909,86.782 -690.375,90.053 -690.375,90.053 C-694.763,81.981 -697.119,74.35600000000001 -696.36,67.4 C-695.724,66.75200000000001 -695.009,66.194 -694.205,65.714 C-694.205,65.714 -692.955,64.888 -692.955,64.888 C-686.457,60.59 -678.518,59.093 -670.904,60.734 C-670.904,60.734 -670.089,60.913 -670.089,60.913 C-679.0100000000001,60.031 -677.335,75.34899999999999 -671.909,86.782z"></path></g><g opacity="1" transform="matrix(1,0,0,1,0,0)"><path fill="rgb(255,255,255)" fill-opacity="1" d="M0 0 M-668.156,85.668 C-672.2009999999999,74.33500000000001 -675.4580000000001,61.263999999999996 -666.739,61.629 C-666.739,61.629 -663.628,62.301 -663.628,62.301 C-661.788,63.133 -660.313,64.652 -659.641,66.492 C-659.641,66.507 -659.641,66.506 -659.641,66.521 C-658.6039999999999,72.83 -663.3359999999999,84.412 -668.156,85.668z"></path></g></g><g transform="matrix(1,0,0,1,0,0)" opacity="1" style="user-select: none;"><g opacity="1" transform="matrix(1,0,0,1,355.5,426.5)"><g opacity="1" transform="matrix(-0.6261,-0.7797,0.7797,-0.6261,-26.5,-33)"></g><g opacity="1" transform="matrix(1,0,0,1,0,0)"><g opacity="1" transform="matrix(1,0,0,1,0,0)"></g></g><g opacity="1" transform="matrix(1,0,0,1,0,0)"><g opacity="1" transform="matrix(1,0,0,1,-200,-200)"></g></g><g opacity="1" transform="matrix(1,0,0,1,-135,0)"><g opacity="1" transform="matrix(1,0,0,1,0,0)"></g></g></g><g opacity="1" transform="matrix(1,0,0,1,0,0)"><g opacity="1" transform="matrix(1,0,0,1,355.5,426.5)"><path stroke-linecap="round" stroke-linejoin="round" fill-opacity="0" stroke="rgb(255,255,255)" stroke-opacity="1" stroke-width="12" d="M0 0 M-0.016297930470646094,0.02442327610120998 C-0.5331071484224381,0.7703269107887323 -12.933952957295165,18.37496639089634 -31.886211518026816,16.304551590144143 C-50.83847007875847,14.234136789391947 -59.14578899057244,-5.632739172807494 -59.489359732502535,-6.472633895549343"></path><g opacity="1" transform="matrix(-0.6261,-0.7797,0.7797,-0.6261,-26.5,-33)"></g></g></g></g><g style="display: none;"><g><g><g></g></g><g><g></g></g><g><g></g></g></g><g><path stroke-linecap="butt" stroke-linejoin="miter" fill-opacity="0" stroke-miterlimit="4" style="display: none;"></path><g></g></g></g><g style="display: none;"><g><g><g></g></g><g><g></g></g><g><g></g></g></g><g><path stroke-linecap="butt" stroke-linejoin="miter" fill-opacity="0" stroke-miterlimit="4" style="display: none;"></path><g></g></g></g><g transform="matrix(0.999,-0.0436,0.0436,0.999,956.5252,353.7529)" opacity="1" style="user-select: none;"><g opacity="1" transform="matrix(1,0,0,1,0,0)"><path stroke-linecap="round" stroke-linejoin="miter" fill-opacity="0" stroke-miterlimit="10" stroke="rgb(232,170,119)" stroke-opacity="1" stroke-width="3.634" d="M0 0 M-604.952,38.971 C-604.952,38.971 -597.881,29.538 -597.881,29.538"></path></g><g opacity="1" transform="matrix(1,0,0,1,0,0)"><g opacity="1" transform="matrix(1,0,0,1,0,0)"><path stroke-linecap="round" stroke-linejoin="miter" fill-opacity="0" stroke-miterlimit="10" stroke="rgb(60,60,59)" stroke-opacity="1" stroke-width="2.233" d="M0 0 M-573.075,-29.712 C-573.075,-29.712 -573.075,-19.457 -573.075,-19.457 C-573.075,-16.876 -575.167,-14.784 -577.748,-14.784 C-577.748,-14.784 -615.42,-14.784 -615.42,-14.784 C-618.001,-14.784 -620.093,-16.876 -620.093,-19.457 C-620.093,-19.457 -620.093,-29.712 -620.093,-29.712"></path></g><g opacity="1" transform="matrix(1,0,0,1,0,0)"><path stroke-linecap="butt" stroke-linejoin="miter" fill-opacity="0" stroke-miterlimit="10" stroke="rgb(60,60,59)" stroke-opacity="1" stroke-width="2.921" d="M0 0 M-596.584,-14.784 C-596.584,-14.784 -596.584,38.154 -596.584,38.154"></path></g><g opacity="1" transform="matrix(1,0,0,1,0,0)"><path fill="rgb(29,29,27)" fill-opacity="1" d="M0 0 M-596.547,50.807 C-596.547,50.807 -596.622,50.807 -596.622,50.807 C-598.6819999999999,50.807 -600.352,49.136 -600.352,47.076 C-600.352,47.076 -600.352,25.502 -600.352,25.502 C-600.352,25.502 -592.816,25.502 -592.816,25.502 C-592.816,25.502 -592.816,47.076 -592.816,47.076 C-592.816,49.136 -594.4870000000001,50.807 -596.547,50.807z"></path></g><g opacity="1" transform="matrix(1,0,0,1,0,0)"><path fill="rgb(12,117,100)" fill-opacity="1" d="M0 0 M-574.471,-23.085 C-574.471,-23.085 -618.698,-23.085 -618.698,-23.085 C-618.698,-23.085 -618.698,-34.994 -618.698,-34.994 C-618.698,-34.994 -574.471,-34.994 -574.471,-34.994 C-574.471,-34.994 -574.471,-23.085 -574.471,-23.085z"></path></g></g><g opacity="1" transform="matrix(1,0,0,1,0,0)"><path stroke-linecap="round" stroke-linejoin="miter" fill-opacity="0" stroke-miterlimit="10" stroke="rgb(255,187,131)" stroke-opacity="1" stroke-width="3.115" d="M0 0 M-598.303,33.489 C-598.303,33.489 -591.639,30.044 -591.639,30.044"></path></g><g opacity="1" transform="matrix(1,0,0,1,0,0)"><path stroke-linecap="round" stroke-linejoin="miter" fill-opacity="0" stroke-miterlimit="10" stroke="rgb(255,187,131)" stroke-opacity="1" stroke-width="3.115" d="M0 0 M-594.857,39.981 C-594.857,39.981 -591.314,37.96 -591.314,37.96"></path></g><g opacity="1" transform="matrix(1,0,0,1,0,0)"><path stroke-linecap="round" stroke-linejoin="miter" fill-opacity="0" stroke-miterlimit="10" stroke="rgb(255,187,131)" stroke-opacity="1" stroke-width="2.596" d="M0 0 M-593.249,43.01 C-593.249,43.01 -591.437,41.999 -591.437,41.999"></path></g><g opacity="1" transform="matrix(1,0,0,1,0,0)"><path stroke-linecap="round" stroke-linejoin="miter" fill-opacity="0" stroke-miterlimit="10" stroke="rgb(255,187,131)" stroke-opacity="1" stroke-width="3.115" d="M0 0 M-596.584,36.727 C-596.584,36.727 -591.056,33.916 -591.056,33.916"></path></g><g opacity="1" transform="matrix(1,0,0,1,0,0)"><path fill="rgb(255,187,131)" fill-opacity="1" d="M0 0 M-601.477,33.484 C-601.477,33.484 -597.345,31.29 -597.345,31.29 C-596.613,30.901999999999997 -595.79,30.979 -595.242,31.524 C-592.981,33.774 -591.312,38.704 -591.693,42.442 C-591.783,43.324 -592.3190000000001,44.123999999999995 -593.051,44.513 C-593.051,44.513 -597.19,46.71 -597.19,46.71 C-600.398,48.413000000000004 -603.796,47.536 -605.225,44.395 C-605.3290000000001,44.164 -605.428,43.92 -605.513,43.658 C-605.513,43.658 -605.981,43.163 -605.981,43.163 C-607.194,39.419999999999995 -607.819,36.952 -601.477,33.484z"></path></g></g><g transform="matrix(1,0,0,1,960,350)" opacity="1" style="user-select: none;"><g opacity="1" transform="matrix(1,0,0,1,0,0)"><path fill="rgb(29,29,27)" fill-opacity="1" d="M0 0 M-656.37,7.275 C-653.629,24.066000000000003 -664.7629999999999,43.287 -681.012,48.774 C-697.261,54.261 -712.472,43.934 -715.213,27.143 C-717.954,10.352 -707.003,-7.7059999999999995 -690.754,-13.193 C-674.505,-18.68 -659.111,-9.516 -656.37,7.275z"></path></g><g opacity="1" transform="matrix(1,0,0,1,0,0)"><path fill="rgb(244,55,69)" fill-opacity="1" d="M0 0 M-692.591,45.854 C-692.144,48.650999999999996 -693.931,51.260999999999996 -696.582,51.684 C-699.233,52.107 -701.743,50.184 -702.19,47.387 C-702.6370000000001,44.59 -700.8499999999999,41.979 -698.199,41.556 C-695.548,41.132999999999996 -693.038,43.057 -692.591,45.854z"></path></g></g><g transform="matrix(0.6954,-0.7186,0.7186,0.6954,712.1783,-137.6248)" opacity="1" style="user-select: none;"><g opacity="1" transform="matrix(1,0,0,1,0,0)"><path fill="rgb(29,29,27)" fill-opacity="1" d="M0 0 M-695.634,50.048 C-691.445,68.781 -718.299,69.249 -719.098,98.844 C-739.078,66.579 -720.1560000000001,50.758 -701.446,46.369 C-698.8290000000001,45.755 -696.221,47.425000000000004 -695.634,50.048z"></path></g></g><g transform="matrix(1,0,0,1,960,350)" opacity="1" style="user-select: none;"><g opacity="1" transform="matrix(1,0,0,1,0,0)"><path fill="rgb(29,29,27)" fill-opacity="1" d="M0 0 M-684.967,-11.775 C-667.7049999999999,-26.117 -646.77,-12.103 -652.956,6.397 C-658.917,-2.6289999999999996 -670.762,-11.809000000000001 -684.967,-11.775z"></path></g></g><g transform="matrix(1,0,0,1,1008.042,350.01)" opacity="1" style="user-select: none;"><g opacity="1" transform="matrix(1,0,0,1,0,0)"><path fill="rgb(218,218,218)" fill-opacity="1" d="M0 0 M-537.051,283.435 C-537.051,283.435 -594.432,283.435 -594.432,283.435 C-594.432,283.435 -594.432,239.344 -594.432,239.344 C-594.432,239.344 -537.051,239.344 -537.051,239.344 C-537.051,239.344 -537.051,283.435 -537.051,283.435z"></path></g><g opacity="1" transform="matrix(1,0,0,1,0,0)"><path fill="rgb(12,117,100)" fill-opacity="1" d="M0 0 M-594.432,239.344 C-594.432,239.344 -594.432,242.817 -594.432,242.817 C-594.432,242.817 -594.432,246.847 -594.432,246.847 C-594.432,246.847 -594.432,259.492 -594.432,259.492 C-594.432,261.41 -592.878,262.964 -590.96,262.964 C-589.042,262.964 -587.487,261.41 -587.487,259.492 C-587.487,259.492 -587.487,251.87 -587.487,251.87 C-587.063,252.20000000000002 -586.5369999999999,252.405 -585.958,252.405 C-585.155,252.405 -584.4499999999999,252.01999999999998 -583.992,251.432 C-583.992,251.432 -583.992,251.825 -583.992,251.825 C-583.992,254.29399999999998 -581.9910000000001,256.295 -579.522,256.295 C-578.783,256.295 -578.097,256.099 -577.483,255.782 C-577.483,255.782 -577.483,268.752 -577.483,268.752 C-577.483,270.095 -576.394,271.183 -575.051,271.183 C-573.7080000000001,271.183 -572.62,270.095 -572.62,268.752 C-572.62,268.752 -572.62,259.537 -572.62,259.537 C-572.032,260.022 -571.288,260.324 -570.466,260.324 C-568.586,260.324 -567.062,258.8 -567.062,256.92 C-567.062,256.92 -567.062,246.847 -567.062,246.847 C-567.062,246.847 -563.14,246.847 -563.14,246.847 C-563.153,246.95100000000002 -563.172,247.054 -563.172,247.162 C-563.172,247.162 -563.172,249.867 -563.172,249.867 C-563.172,251.26899999999998 -562.0360000000001,252.405 -560.634,252.405 C-559.232,252.405 -558.095,251.26899999999998 -558.095,249.867 C-558.095,249.867 -558.095,247.958 -558.095,247.958 C-557.734,248.301 -557.248,248.515 -556.711,248.515 C-555.717,248.515 -554.8969999999999,247.793 -554.732,246.847 C-554.732,246.847 -548.444,246.847 -548.444,246.847 C-548.444,246.847 -548.444,256.643 -548.444,256.643 C-548.444,258.13899999999995 -547.231,259.352 -545.735,259.352 C-545.07,259.352 -544.469,259.103 -543.998,258.706 C-543.998,258.706 -543.998,262.825 -543.998,262.825 C-543.998,264.743 -542.443,266.299 -540.525,266.299 C-538.607,266.299 -537.051,264.743 -537.051,262.825 C-537.051,262.825 -537.051,246.847 -537.051,246.847 C-537.051,246.847 -537.051,244.624 -537.051,244.624 C-537.051,244.624 -537.051,239.344 -537.051,239.344 C-537.051,239.344 -594.432,239.344 -594.432,239.344z"></path></g></g><g transform="matrix(1,0,0,1,0,0)" opacity="1" style="user-select: none;"><g opacity="1" transform="matrix(1,0,0,1,310.5,622.75)"><g opacity="1" transform="matrix(-0.7901,-0.613,-0.613,0.7901,-69.125,-53.625)"></g><g opacity="1" transform="matrix(1,0,0,1,0,0)"><g opacity="1" transform="matrix(1,0,0,1,0,0)"></g></g><g opacity="1" transform="matrix(1,0,0,1,0,0)"><g opacity="1" transform="matrix(1,0,0,1,-200,-200)"></g></g><g opacity="1" transform="matrix(1,0,0,1,-135,0)"><g opacity="1" transform="matrix(1,0,0,1,0,0)"></g></g></g><g opacity="1" transform="matrix(1,0,0,1,0,0)"><g opacity="1" transform="matrix(1,0,0,1,0,0)"><g opacity="1" transform="matrix(1,0,0,1,310.5,622.75)"><path stroke-linecap="round" stroke-linejoin="round" fill-opacity="0" stroke="rgb(255,170,0)" stroke-opacity="1" stroke-width="18" d="M0 0 M-15.233222055156567,-121.49180285636689 C-15.373064889881867,-122.15336840986556 -15.46111551090646,-122.56845766308368 -15.490138524973126,-122.70234815809542"></path><g opacity="1" transform="matrix(-0.7901,-0.613,-0.613,0.7901,-69.125,-53.625)"></g></g><g opacity="1" transform="matrix(1,0,0,1,310.5,622.75)"><path stroke-linecap="butt" stroke-linejoin="round" fill-opacity="0" stroke="rgb(255,170,0)" stroke-opacity="1" stroke-width="18" d="M0 0 M-0.0022934692795644196,-0.04860747510267771 C-0.06196403179943388,-1.5427776206913748 -1.507123818085475,-36.981418031859825 -4.637008633042143,-61.76808648579093 C-7.766893447998818,-86.55475493972205 -15.17651194580197,-121.24024577835678 -15.490138524973126,-122.70234815809542"></path><g opacity="1" transform="matrix(-0.7901,-0.613,-0.613,0.7901,-69.125,-53.625)"></g></g></g><g opacity="1" transform="matrix(1,0,0,1,0,0)"><g opacity="1" transform="matrix(1,0,0,1,310.5,622.75)"><path stroke-linecap="round" stroke-linejoin="round" fill-opacity="0" stroke="rgb(0,141,166)" stroke-opacity="1" stroke-width="25" d="M0 0"></path><g opacity="1" transform="matrix(-0.7901,-0.613,-0.613,0.7901,-69.125,-53.625)"></g></g><g opacity="1" transform="matrix(1,0,0,1,310.5,622.75)"><path stroke-linecap="butt" stroke-linejoin="round" fill-opacity="0" stroke="rgb(209,139,0)" stroke-opacity="1" stroke-width="21" d="M0 0 M-0.0022934692795644196,-0.04860747510267771 C-0.02068342714161986,-0.5159690155077854 -0.1750527711966896,-4.300985541973148 -0.4736041856252058,-10.040609837425137"></path><g opacity="1" transform="matrix(-0.7901,-0.613,-0.613,0.7901,-69.125,-53.625)"></g></g></g></g></g><g style="display: none;"><g><g><g></g></g><g><g></g></g><g><g></g></g></g><g><path stroke-linecap="butt" stroke-linejoin="miter" fill-opacity="0" stroke-miterlimit="4" style="display: none;"></path><g></g></g></g><g style="display: none;"><g><g><g></g></g><g><g></g></g><g><g></g></g></g><g><path stroke-linecap="butt" stroke-linejoin="miter" fill-opacity="0" stroke-miterlimit="4" style="display: none;"></path><g></g></g></g></g><g clip-path="url(#cp_xV1E2QtB)" transform="matrix(0.1567,0,0,0.1567,50.4995,76.332)" opacity="1"><g clip-path="url(#cp_1UwzQBMO)" transform="matrix(1,0,0,1,0,0)" opacity="0" style="display: none;"><g transform="matrix(1.02,0,0,1.02,133.68,403.32)" opacity="1" style="user-select: none; display: block;"><g opacity="1" transform="matrix(1,0,0,1,16,-266)"><path fill="rgb(241,182,24)" fill-opacity="1" d="M0 0 M0,-86 C47.46339999999999,-86 86,-47.46339999999999 86,0 C86,47.46339999999999 47.46339999999999,86 0,86 C-47.46339999999999,86 -86,47.46339999999999 -86,0 C-86,-47.46339999999999 -47.46339999999999,-86 0,-86z" style="display: block;"></path></g></g><g transform="matrix(0.7584,0,0,0.7584,137.8661,333.7264)" opacity="1" style="user-select: none; display: block;"><g opacity="1" transform="matrix(1.0769,0,0,1.0769,16,-266)"><path fill="rgb(255,205,71)" fill-opacity="1" d="M0 0 M0,-86 C47.46339999999999,-86 86,-47.46339999999999 86,0 C86,47.46339999999999 47.46339999999999,86 0,86 C-47.46339999999999,86 -86,47.46339999999999 -86,0 C-86,-47.46339999999999 -47.46339999999999,-86 0,-86z" style="display: block;"></path></g></g><g mask="url(#ly_fJo5y8zzZH)" style="mix-blend-mode: screen;"><g transform="matrix(0.9893,0.1456,-0.1456,0.9893,-23.7019,396.5068)" opacity="0" style="user-select: none; display: block;"><g opacity="1" transform="matrix(1,0,0,1,0,0)"><g opacity="1" transform="matrix(1,0,0,1,0,0)"><path stroke-linecap="butt" stroke-linejoin="miter" fill-opacity="0" stroke-miterlimit="4" stroke="rgb(255,255,255)" stroke-opacity="1" stroke-width="33" d="M0 0 M-74,-346.5 C-74,-346.5 55.5,-156 55.5,-156" style="display: block;"></path></g><g opacity="1" transform="matrix(1,0,0,1,0,0)"><path stroke-linecap="butt" stroke-linejoin="miter" fill-opacity="0" stroke-miterlimit="4" stroke="rgb(255,255,255)" stroke-opacity="1" stroke-width="23" d="M0 0 M-45.5,-362.5 C-45.5,-362.5 84,-173.5 84,-173.5" style="display: block;"></path></g></g></g></g><g transform="matrix(0,0,0,0,1.0012,73.0001)" opacity="1" style="user-select: none; display: block;"><path fill="rgb(255,255,255)" fill-opacity="1" d="M0 0 M25.64,0 C9.244,0 0,9.244 0,25.64 C0,9.244 -9.244,0 -25.64,0 C-9.244,0 0,-9.244 0,-25.64 C0,-9.244 9.244,0 25.64,0z" style="display: block;"></path></g></g></g></g></svg>