<svg viewBox="0 0 229.8 191.68" xmlns="http://www.w3.org/2000/svg" xmlns:xlink="http://www.w3.org/1999/xlink">
    <g>
        <path d="m199.72 4.37-69.21 135.77-25.38-34.66-16.57-22.61-6.06-8.28-4.92-6.71a8 8 0 0 0 -11.8-1.23l-11.78 10.55a8 8 0 0 0 -1.12 10.7l13.34 18.21 9.56 13 13 17.83 38.67 52.8a4.64 4.64 0 0 0 3.73 1.89h8.59a4.63 4.63 0 0 0 .65 0 5.11 5.11 0 0 0 1-.25l.26-.1a4.93 4.93 0 0 0 .77-.44 3 3 0 0 0 .35-.27 4.63 4.63 0 0 0 1.05-1.27 1 1 0 0 1 .08-.14l85-166.71a8 8 0 0 0 -2.44-10.13l-14.94-10.8a8 8 0 0 0 -4.68-1.52 8 8 0 0 0 -7.15 4.37m-94.12 25.45-21.66 42 .82 1.13 6.07 8.28 15.72 21.46 28.18-54.61a8 8 0 0 0 -2.39-10.14l-14.9-10.94a8 8 0 0 0 -4.72-1.55 8 8 0 0 0 -7.12 4.34m-90.22 50.29-12.72 11.41a8 8 0 0 0 -1.11 10.69l52.45 71.58a4.63 4.63 0 0 0 3.82 2h8.18a4.6 4.6 0 0 0 4.09-2.49l17.29-33.51-.83-1.13-13.03-17.81-8.73-11.92-7.19 13.94-30.41-41.53a8 8 0 0 0 -6.47-3.31 8 8 0 0 0 -5.34 2"
              fill="#008cde"/>
    </g>
</svg>