<?xml version="1.0" encoding="UTF-8"?>
<svg width="311px" height="116px" viewBox="0 0 311 116" version="1.1" xmlns="http://www.w3.org/2000/svg" xmlns:xlink="http://www.w3.org/1999/xlink">
    <!-- Generator: Sketch 47.1 (45422) - http://www.bohemiancoding.com/sketch -->
    <title>Group 2</title>
    <desc>Created with Sketch.</desc>
    <defs></defs>
    <g id="Page-1" stroke="none" stroke-width="1" fill="none" fill-rule="evenodd">
        <g id="Artboard" transform="translate(-702.000000, -311.000000)" fill="#008cde">
            <g id="Group-2" transform="translate(702.000000, 311.000000)">
                <g id="Group">
                    <path d="M10.7844059,25.1537349 L11.164834,67.1197238 L20.1680014,61.5642992 L20.1680014,14.7364004 C21.0506303,13.9554357 21.6932233,13.4029208 22.0957804,13.0788558 C23.423996,12.0096208 24.534801,11.2380242 25.330647,10.6866708 C26.2571237,10.0448178 27.6351202,9.13302422 29.462806,8.06883531 C29.7668401,7.89180833 30.2506418,7.63271095 30.9142111,7.29154316 L30.9142111,55.3883587 L42.239745,48.6379639 L42.239745,2.6927948 C43.1940685,2.41959875 43.9091618,2.2284519 44.385025,2.11935425 C45.0988198,1.95570777 45.1628898,1.84194924 47.746109,1.4186554 C48.8701256,1.23447076 49.9976919,1.04195275 51.1246338,0.899871826 C51.8759284,0.805151212 52.475333,0.745301155 52.9228479,0.720321655 L52.9228479,55.7225607 L6.24528503,83.0961761 C5.51693115,81.511617 5.0236908,80.4124603 4.76556396,79.7987061 C4.3835348,78.8903463 4.12747228,78.1293096 3.92952568,77.6023933 C3.29555574,75.9148216 2.87977415,74.4754412 2.5766449,73.3811798 C2.51289647,73.1510554 2.46702191,72.9326771 2.41081238,72.734375 C0.986215441,67.7085271 0.738279461,63.7260469 0.636198369,62.4370852 C0.218394415,57.1615414 0.920414537,51.8308266 1.09150299,49.8371061 C1.36329209,46.6699052 2.44446078,42.4904712 4.44179018,37.061483 C5.06502056,35.3674657 6.13684551,32.8770374 7.88738741,29.7837213 C8.26304883,29.1199042 8.8363658,28.1418821 9.62837219,26.9012146 C9.8569275,26.5431857 10.2422721,25.9606925 10.7844059,25.1537349 Z" id="Path"></path>
                    <path d="M63.9971381,0.819046021 L63.9971381,12.9144056 C74.7253314,15.5583052 81.8448371,18.2464249 85.3556552,20.9787644 C87.8284236,22.9032284 92.5314197,26.1037702 96.7168597,32.1914957 C97.888204,33.8952168 99.3381648,37.086153 101.066742,41.7643043 L70.3446048,24.591653 C68.1899407,24.977472 66.7884864,25.3870723 66.1402417,25.8204537 C65.4919971,26.2538351 64.6403434,27.3505414 63.5852807,29.1105727 L63.5852807,56.1204783 L109.925406,82.7634765 C111.078039,79.9665352 111.911705,77.8477129 112.426405,76.4070097 C112.941105,74.9663064 113.398587,73.4710591 113.798851,71.9212679 L74.5059791,49.8176576 L74.5059791,39.1663546 L115.281523,62.8030705 C115.386593,57.6349052 115.357396,54.1143321 115.193931,52.2413511 C115.020847,50.2581515 114.669844,48.4131141 114.435605,47.1686789 C113.190025,40.551315 110.994554,35.362064 108.957386,31.4764517 C107.807879,29.2839278 106.869071,27.5226771 105.785209,26.1142689 C103.663957,23.3578378 99.7608104,17.7975879 93.5854335,12.9144056 C91.9928884,11.6550997 90.3279334,10.2442433 88.3822513,9.16561452 C85.6908969,7.67360703 82.4928074,5.79185842 76.4154783,3.56558807 C74.731017,2.94852979 72.056125,2.10090283 68.3748932,1.43286133 C67.7147124,1.31305683 66.7454525,1.17124969 65.4507294,0.97984314 C65.1573243,0.936467345 64.6727939,0.882868305 63.9971381,0.819046021 Z" id="Path-2"></path>
                    <path d="M58.3687362,64.9092512 L104.617352,91.6729628 C103.144034,93.6781982 102.017888,95.1147824 101.238914,95.9827156 C96.0292707,101.787304 91.2839411,105.043626 88.0483658,107.045277 C77.3638996,113.655101 65.9584376,115.494335 59.3353557,115.494335 C55.8084102,115.494335 50.8136452,115.161512 45.2242716,114.067486 C42.9308223,113.618581 40.6477644,112.895842 38.259563,112.028344 C36.7684325,111.486701 35.2604251,110.856087 33.7343075,110.142856 C33.2365276,109.910219 32.738985,109.664667 32.2377386,109.41409 C31.7929169,109.19172 31.3438446,108.967452 30.9090945,108.713879 C28.1314438,107.09378 24.0896463,104.856876 19.5097416,100.731812 C18.2665068,99.6120463 17.0442541,98.262179 15.6942341,96.9173367 C14.7877052,96.0142846 13.4584972,94.4136325 11.70661,92.1153805 L58.3687362,64.9092512 Z M30.4007741,94.7234746 C32.6599314,97.4168722 34.8033818,99.2566971 36.8311254,100.242949 C44.2015212,103.827756 53.5691742,105.438095 58.0883807,105.370669 C62.4478959,105.305625 70.1084197,104.727777 77.4852642,101.179448 C79.7692694,100.080821 82.9232373,97.6476076 86.9471677,93.8798089 L58.7441526,77.7272506 L30.4007741,94.7234746 Z" id="Combined-Shape"></path>
                </g>
                <path d="M144.454499,38.005 L154.394499,38.005 C155.421171,38.005 156.278662,38.238331 156.966999,38.705 C157.655336,39.171669 158.104498,39.7899961 158.314499,40.56 L165.314499,67.16 C165.547834,68.0233377 165.781165,68.9449951 166.014499,69.925 C166.247834,70.9050049 166.422832,71.9316613 166.539499,73.005 C166.772834,71.9083279 167.029498,70.8758382 167.309499,69.9075 C167.589501,68.9391618 167.857831,68.0233377 168.114499,67.16 L176.374499,40.56 C176.5845,39.9066634 177.033662,39.3175026 177.721999,38.7925 C178.410336,38.2674974 179.244494,38.005 180.224499,38.005 L183.724499,38.005 C184.751171,38.005 185.596996,38.2324977 186.261999,38.6875 C186.927003,39.1425023 187.387831,39.7666627 187.644499,40.56 L195.834499,67.16 C196.091167,67.9766707 196.359498,68.8458287 196.639499,69.7675 C196.919501,70.6891713 197.164498,71.6749947 197.374499,72.725 C197.561167,71.6983282 197.753665,70.718338 197.951999,69.785 C198.150334,68.851662 198.354498,67.9766707 198.564499,67.16 L205.564499,40.56 C205.751167,39.8833299 206.194496,39.2883359 206.894499,38.775 C207.594503,38.2616641 208.434494,38.005 209.414499,38.005 L218.724499,38.005 L202.974499,89 L192.264499,89 L182.674499,57.395 C182.511165,56.9049975 182.342,56.3683362 182.166999,55.785 C181.991998,55.2016637 181.822833,54.5833366 181.659499,53.93 C181.496165,54.5833366 181.327,55.2016637 181.151999,55.785 C180.976998,56.3683362 180.807833,56.9049975 180.644499,57.395 L170.914499,89 L160.204499,89 L144.454499,38.005 Z M240.144499,37.445 C242.664512,37.445 244.933656,37.8124963 246.951999,38.5475 C248.970343,39.2825037 250.691159,40.3033268 252.114499,41.61 C253.53784,42.9166732 254.628662,44.4741576 255.386999,46.2825 C256.145336,48.0908424 256.524499,50.0799891 256.524499,52.25 C256.524499,54.116676 256.262002,55.8433254 255.736999,57.43 C255.211997,59.0166746 254.494504,60.5274928 253.584499,61.9625 C252.674495,63.3975072 251.618672,64.7858266 250.416999,66.1275 C249.215327,67.4691734 247.937839,68.8283264 246.584499,70.205 L236.609499,80.425 C237.892839,80.0516648 239.15866,79.7541678 240.406999,79.5325 C241.655339,79.3108322 242.827827,79.2 243.924499,79.2 L253.444499,79.2 C254.611172,79.2 255.532829,79.5208301 256.209499,80.1625 C256.886169,80.8041699 257.224499,81.6499948 257.224499,82.7 L257.224499,89 L221.384499,89 L221.384499,85.5 C221.384499,84.82333 221.524498,84.1000039 221.804499,83.33 C222.084501,82.5599961 222.574496,81.8600031 223.274499,81.23 L237.974499,66.425 C239.234505,65.1649937 240.331161,63.963339 241.264499,62.82 C242.197837,61.6766609 242.967829,60.5508389 243.574499,59.4425 C244.181169,58.3341611 244.636164,57.2258389 244.939499,56.1175 C245.242834,55.0091611 245.394499,53.8366728 245.394499,52.6 C245.394499,50.5699898 244.910337,49.0125054 243.941999,47.9275 C242.973661,46.8424946 241.497842,46.3 239.514499,46.3 C238.697828,46.3 237.951169,46.4166655 237.274499,46.65 C236.597829,46.8833345 235.991169,47.1983313 235.454499,47.595 C234.91783,47.9916687 234.457001,48.4583307 234.071999,48.995 C233.686997,49.5316694 233.377834,50.1149968 233.144499,50.745 C232.771164,51.7950052 232.298669,52.553331 231.726999,53.02 C231.15533,53.486669 230.379504,53.72 229.399499,53.72 C229.166165,53.72 228.915334,53.7083334 228.646999,53.685 C228.378665,53.6616665 228.104501,53.6266669 227.824499,53.58 L222.084499,52.565 C222.457834,50.0216539 223.175327,47.8050094 224.236999,45.915 C225.298671,44.0249905 226.616991,42.4500063 228.191999,41.19 C229.767007,39.9299937 231.569489,38.9908364 233.599499,38.3725 C235.629509,37.7541636 237.811154,37.445 240.144499,37.445 Z M310.144499,63.485 C310.144499,67.1716851 309.508672,70.5724844 308.236999,73.6875 C306.965326,76.8025156 305.174511,79.4974886 302.864499,81.7725 C300.554488,84.0475114 297.772015,85.820827 294.516999,87.0925 C291.261983,88.364173 287.651186,89 283.684499,89 L263.874499,89 L263.874499,38.005 L283.684499,38.005 C287.651186,38.005 291.261983,38.6466602 294.516999,39.93 C297.772015,41.2133397 300.554488,42.9866553 302.864499,45.25 C305.174511,47.5133446 306.965326,50.2024844 308.236999,53.3175 C309.508672,56.4325156 310.144499,59.8216483 310.144499,63.485 Z M298.034499,63.485 C298.034499,60.9649874 297.707836,58.6900101 297.054499,56.66 C296.401163,54.6299898 295.462005,52.9091737 294.236999,51.4975 C293.011993,50.0858263 291.512841,49.0008371 289.739499,48.2425 C287.966157,47.4841629 285.947844,47.105 283.684499,47.105 L275.774499,47.105 L275.774499,79.9 L283.684499,79.9 C285.947844,79.9 287.966157,79.5208371 289.739499,78.7625 C291.512841,78.0041629 293.011993,76.9191737 294.236999,75.5075 C295.462005,74.0958263 296.401163,72.3750101 297.054499,70.345 C297.707836,68.3149898 298.034499,66.028346 298.034499,63.485 Z" id="W2D"></path>
            </g>
        </g>
    </g>
</svg>