<?xml version="1.0" encoding="UTF-8"?>
<svg width="116px" height="116px" viewBox="0 0 116 116" version="1.1" xmlns="http://www.w3.org/2000/svg" xmlns:xlink="http://www.w3.org/1999/xlink">
    <!-- Generator: Sketch 47.1 (45422) - http://www.bohemiancoding.com/sketch -->
    <title>Group 2 Copy 2</title>
    <desc>Created with Sketch.</desc>
    <defs></defs>
    <g id="Page-1" stroke="none" stroke-width="1" fill="none" fill-rule="evenodd">
        <g id="Artboard" transform="translate(-702.000000, -457.000000)" fill="#008CDE">
            <g id="Group-2-Copy-2" transform="translate(702.000000, 457.000000)">
                <g id="Group-Copy-4">
                    <path d="M10.7844059,25.1537349 L11.164834,67.1197238 L20.1680014,61.5642992 L20.1680014,14.7364004 C21.0506303,13.9554357 21.6932233,13.4029208 22.0957804,13.0788558 C23.423996,12.0096208 24.534801,11.2380242 25.330647,10.6866708 C26.2571237,10.0448178 27.6351202,9.13302422 29.462806,8.06883531 C29.7668401,7.89180833 30.2506418,7.63271095 30.9142111,7.29154316 L30.9142111,55.3883587 L42.239745,48.6379639 L42.239745,2.6927948 C43.1940685,2.41959875 43.9091618,2.2284519 44.385025,2.11935425 C45.0988198,1.95570777 45.1628898,1.84194924 47.746109,1.4186554 C48.8701256,1.23447076 49.9976919,1.04195275 51.1246338,0.899871826 C51.8759284,0.805151212 52.475333,0.745301155 52.9228479,0.720321655 L52.9228479,55.7225607 L6.24528503,83.0961761 C5.51693115,81.511617 5.0236908,80.4124603 4.76556396,79.7987061 C4.3835348,78.8903463 4.12747228,78.1293096 3.92952568,77.6023933 C3.29555574,75.9148216 2.87977415,74.4754412 2.5766449,73.3811798 C2.51289647,73.1510554 2.46702191,72.9326771 2.41081238,72.734375 C0.986215441,67.7085271 0.738279461,63.7260469 0.636198369,62.4370852 C0.218394415,57.1615414 0.920414537,51.8308266 1.09150299,49.8371061 C1.36329209,46.6699052 2.44446078,42.4904712 4.44179018,37.061483 C5.06502056,35.3674657 6.13684551,32.8770374 7.88738741,29.7837213 C8.26304883,29.1199042 8.8363658,28.1418821 9.62837219,26.9012146 C9.8569275,26.5431857 10.2422721,25.9606925 10.7844059,25.1537349 Z" id="Path-Copy-4"></path>
                    <path d="M63.9971381,0.819046021 L63.9971381,12.9144056 C74.7253314,15.5583052 81.8448371,18.2464249 85.3556552,20.9787644 C87.8284236,22.9032284 92.5314197,26.1037702 96.7168597,32.1914957 C97.888204,33.8952168 99.3381648,37.086153 101.066742,41.7643043 L70.3446048,24.591653 C68.1899407,24.977472 66.7884864,25.3870723 66.1402417,25.8204537 C65.4919971,26.2538351 64.6403434,27.3505414 63.5852807,29.1105727 L63.5852807,56.1204783 L109.925406,82.7634765 C111.078039,79.9665352 111.911705,77.8477129 112.426405,76.4070097 C112.941105,74.9663064 113.398587,73.4710591 113.798851,71.9212679 L74.5059791,49.8176576 L74.5059791,39.1663546 L115.281523,62.8030705 C115.386593,57.6349052 115.357396,54.1143321 115.193931,52.2413511 C115.020847,50.2581515 114.669844,48.4131141 114.435605,47.1686789 C113.190025,40.551315 110.994554,35.362064 108.957386,31.4764517 C107.807879,29.2839278 106.869071,27.5226771 105.785209,26.1142689 C103.663957,23.3578378 99.7608104,17.7975879 93.5854335,12.9144056 C91.9928884,11.6550997 90.3279334,10.2442433 88.3822513,9.16561452 C85.6908969,7.67360703 82.4928074,5.79185842 76.4154783,3.56558807 C74.731017,2.94852979 72.056125,2.10090283 68.3748932,1.43286133 C67.7147124,1.31305683 66.7454525,1.17124969 65.4507294,0.97984314 C65.1573243,0.936467345 64.6727939,0.882868305 63.9971381,0.819046021 Z" id="Path-2-Copy-4"></path>
                    <path d="M58.3687362,64.9092512 L104.617352,91.6729628 C103.144034,93.6781982 102.017888,95.1147824 101.238914,95.9827156 C96.0292707,101.787304 91.2839411,105.043626 88.0483658,107.045277 C77.3638996,113.655101 65.9584376,115.494335 59.3353557,115.494335 C55.8084102,115.494335 50.8136452,115.161512 45.2242716,114.067486 C42.9308223,113.618581 40.6477644,112.895842 38.259563,112.028344 C36.7684325,111.486701 35.2604251,110.856087 33.7343075,110.142856 C33.2365276,109.910219 32.738985,109.664667 32.2377386,109.41409 C31.7929169,109.19172 31.3438446,108.967452 30.9090945,108.713879 C28.1314438,107.09378 24.0896463,104.856876 19.5097416,100.731812 C18.2665068,99.6120463 17.0442541,98.262179 15.6942341,96.9173367 C14.7877052,96.0142846 13.4584972,94.4136325 11.70661,92.1153805 L58.3687362,64.9092512 Z M30.4007741,94.7234746 C32.6599314,97.4168722 34.8033818,99.2566971 36.8311254,100.242949 C44.2015212,103.827756 53.5691742,105.438095 58.0883807,105.370669 C62.4478959,105.305625 70.1084197,104.727777 77.4852642,101.179448 C79.7692694,100.080821 82.9232373,97.6476076 86.9471677,93.8798089 L58.7441526,77.7272506 L30.4007741,94.7234746 Z" id="Combined-Shape-Copy-4"></path>
                </g>
            </g>
        </g>
    </g>
</svg>