<svg height="193" viewBox="0 0 979 193" width="979" xmlns="http://www.w3.org/2000/svg"><g fill="#fff" fill-rule="evenodd"><path d="m200.262 4.839-69.211 135.769-25.385-34.661-.017-.022-16.545-22.589-6.066-8.283v-.001l-4.913-6.707c-2.798-3.82-8.282-4.392-11.807-1.23l-11.768 10.555c-3.065 2.749-3.546 7.372-1.115 10.693l13.338 18.212 9.557 13.053 13.053 17.828 38.67 52.804c.873 1.185 2.254 1.887 3.725 1.887h8.596c.217 0 .432-.015.643-.044.329-.046.646-.137.953-.25.087-.032.176-.056.26-.093.272-.12.525-.273.768-.441.122-.085.243-.171.356-.268.418-.353.771-.784 1.043-1.277.026-.047.058-.089.082-.138l84.984-166.712c1.792-3.514.757-7.81-2.438-10.123l-14.931-10.812c-1.429-1.034-3.068-1.523-4.685-1.523-2.891 0-5.715 1.564-7.147 4.373m-94.126 25.449-21.66 41.978.826 1.128 6.067 8.284 15.718 21.46 28.188-54.616c1.81-3.507.795-7.81-2.392-10.139l-14.907-10.89c-1.434-1.047-3.083-1.543-4.711-1.543-2.878 0-5.69 1.549-7.129 4.338m-90.215 50.256-12.719 11.408c-3.065 2.748-3.546 7.371-1.114 10.692l52.414 71.579c.856 1.265 2.29 2.022 3.814 2.022h8.25c1.728 0 3.303-.963 4.095-2.494l17.285-33.508-.827-1.129-13.054-17.828-8.731-11.924-7.193 13.944-30.412-41.532c-1.579-2.156-4.013-3.277-6.468-3.277-1.896 0-3.804.669-5.34 2.047"/><path d="m315.826 159-16.068-67.392-16.38 67.392h-20.28l-29.328-103.584h23.088l17.004 67.08 14.352-67.08h22.776l15.756 67.08 16.848-67.08h22.152l-29.016 103.584zm103.584 0v-47.58c0-5.824029-1.01399-9.801989-3.042-11.934-2.02801-2.1320107-5.381977-3.198-10.062-3.198-2.496012 0-4.73199.4939951-6.708 1.482s-3.639993 2.339991-4.992 4.056-2.365997 3.691989-3.042 5.928-1.014 4.653987-1.014 7.254v43.992h-20.28v-104.832h20.28v38.064c.728004-1.6640083 1.845992-3.2499925 3.354-4.758s3.24999-2.7819948 5.226-3.822 4.159988-1.8719969 6.552-2.496 4.887987-.936 7.488-.936c7.90404 0 14.325975 2.1579784 19.266 6.474s7.41 10.3219615 7.41 18.018v54.288zm75.192-37.596c-1.040005 1.040005-2.54799 1.871997-4.524 2.496s-4.835981 1.299996-8.58 2.028c-5.824029 1.144006-9.827989 2.599991-12.012 4.368s-3.276 4.315983-3.276 7.644c0 5.720029 3.275967 8.58 9.828 8.58 2.600013 0 5.017989-.441996 7.254-1.326s4.159992-2.079992 5.772-3.588 2.911995-3.27599 3.9-5.304 1.482-4.185989 1.482-6.474zm1.404 37.596c-.624003-1.97601-1.039999-4.263987-1.248-6.864-2.392012 2.704014-5.56398 4.861992-9.516 6.474s-8.527974 2.418-13.728 2.418c-8.840044 0-15.313979-1.949981-19.422-5.85s-6.162-8.969969-6.162-15.21c0-5.512028.883991-9.905984 2.652-13.182s4.211984-5.849991 7.332-7.722 6.837978-3.249996 11.154-4.134 9.021975-1.689996 14.118-2.418 8.527991-1.689994 10.296-2.886 2.652-3.145986 2.652-5.85c0-2.496012-1.169988-4.445993-3.51-5.85s-5.48598-2.106-9.438-2.106c-4.680023 0-8.03399 1.0399896-10.062 3.12-2.02801 2.08001-3.301997 4.835983-3.822 8.268h-18.876c.104001-3.95202.753994-7.5919834 1.95-10.92s3.119987-6.187988 5.772-8.58 6.109979-4.2379935 10.374-5.538 9.463969-1.95 15.6-1.95c6.03203 0 11.153979.6759932 15.366 2.028s7.591987 3.3019873 10.14 5.85 4.393994 5.719981 5.538 9.516 1.716 8.085976 1.716 12.87v48.516zm70.512-50.544h18.876v21.84c0 4.05602-.597994 7.929982-1.794 11.622s-3.067987 6.967986-5.616 9.828-5.771981 5.121992-9.672 6.786-8.553973 2.496-13.962 2.496c-5.616028 0-10.39998-.831992-14.352-2.496s-7.201987-3.899986-9.75-6.708-4.393994-6.083981-5.538-9.828-1.716-7.695979-1.716-11.856v-68.64h19.968v20.748h42.432v14.352h-42.432v31.512c0 4.888024.909991 8.657987 2.73 11.31s4.809979 3.978 8.97 3.978c4.05602 0 7.04599-1.299987 8.97-3.9s2.886-6.291976 2.886-11.076zm72.384-2.964c-.520003-3.536018-1.845989-6.1099919-3.978-7.722s-5.381978-2.418-9.75-2.418c-4.160021 0-7.305989.4939951-9.438 1.482s-3.198 2.677988-3.198 5.07c0 2.08001 1.065989 3.743994 3.198 4.992s5.22598 2.443994 9.282 3.588c6.656033 1.872009 12.271977 3.457993 16.848 4.758 4.576023 1.300006 8.241986 2.833991 10.998 4.602s4.731994 3.977987 5.928 6.63 1.794 6.213978 1.794 10.686c0 6.864034-2.859971 12.557977-8.58 17.082s-14.195944 6.786-25.428 6.786c-5.512028 0-10.503978-.623994-14.976-1.872s-8.293984-3.041988-11.466-5.382-5.615991-5.147984-7.332-8.424-2.625999-6.94198-2.73-10.998h20.904c0 3.640018 1.429986 6.44799 4.29 8.424s6.577977 2.964 11.154 2.964c3.848019 0 7.149986-.597994 9.906-1.794s4.134-3.041988 4.134-5.538c0-2.808014-1.01399-4.835994-3.042-6.084s-5.121979-2.339995-9.282-3.276c-7.488037-1.664008-13.519977-3.405991-18.096-5.226s-8.137987-3.821989-10.686-6.006-4.263996-4.575987-5.148-7.176-1.326-5.511984-1.326-8.736c0-2.9120146.597994-5.667987 1.794-8.268s3.093987-4.8879901 5.694-6.864 5.979979-3.561994 10.14-4.758 9.25597-1.794 15.288-1.794c11.024055 0 19.083975 2.2359776 24.18 6.708s7.903997 10.6599605 8.424 18.564zm23.244 53.508c0-4.784024.389996-9.255979 1.17-13.416s2.287989-8.26798 4.524-12.324 5.38198-8.163979 9.438-12.324 9.411967-8.631976 16.068-13.416c3.744019-2.600013 6.837988-4.93999 9.282-7.02 2.444012-2.0800104 4.393993-4.0559906 5.85-5.928s2.495997-3.7439906 3.12-5.616.936-3.8999891.936-6.084c0-2.600013-.363996-4.7839912-1.092-6.552s-1.741993-3.1719948-3.042-4.212c-1.300006-1.0400052-2.833991-1.7679979-4.602-2.184s-3.63999-.624-5.616-.624c-4.680023 0-8.371986 1.3259867-11.076 3.978s-4.056 7.4619652-4.056 14.43h-19.5c0-11.2320562 2.937971-19.9939685 8.814-26.286s14.169946-9.438 24.882-9.438c5.200026 0 9.957978.6239938 14.274 1.872s8.007985 3.1199875 11.076 5.616 5.459991 5.641981 7.176 9.438 2.574 8.2419745 2.574 13.338c0 3.9520198-.519995 7.5399839-1.56 10.764s-2.729988 6.3959844-5.07 9.516c-2.340012 3.120016-5.433981 6.291984-9.282 9.516s-8.527972 6.81198-14.04 10.764c-3.95202 2.912015-7.279986 6.057983-9.984 9.438s-4.159999 6.421986-4.368 9.126h44.616v17.628zm111.54-14.508c4.888024 0 8.969984-2.02798 12.246-6.084s4.914-9.359967 4.914-15.912c0-16.640083-5.667943-24.96-17.004-24.96-11.648058 0-17.472 7.903921-17.472 23.712 0 6.864034 1.611984 12.453978 4.836 16.77s7.383975 6.474 12.48 6.474zm16.848 14.508-.156-9.36c-4.680023 7.592038-11.803952 11.388-21.372 11.388-4.888024 0-9.35998-.935991-13.416-2.808s-7.539985-4.575982-10.452-8.112-5.199992-7.851975-6.864-12.948-2.496-10.867968-2.496-17.316c0-5.824029.701993-11.153976 2.106-15.99 1.404007-4.8360242 3.457986-9.0219823 6.162-12.558s6.005981-6.2659904 9.906-8.19c3.90002-1.9240096 8.345975-2.886 13.338-2.886 9.464047 0 17.055971 4.00396 22.776 12.012v-38.064h19.968v104.832zm65.364-14.976c12.376062 0 18.564-7.799922 18.564-23.4 0-15.496077-6.187938-23.244-18.564-23.244s-18.564 7.747923-18.564 23.244c0 15.600078 6.187938 23.4 18.564 23.4zm0 17.004c-6.240031 0-11.803976-.98799-16.692-2.964s-9.021983-4.731982-12.402-8.268-5.953991-7.799975-7.722-12.792-2.652-10.45197-2.652-16.38c0-6.03203.909991-11.543975 2.73-16.536s4.445983-9.2559823 7.878-12.792 7.565976-6.2659904 12.402-8.19 10.321969-2.886 16.458-2.886c6.03203 0 11.439976.9619904 16.224 2.886s8.865983 4.6279826 12.246 8.112 5.979991 7.721975 7.8 12.714 2.73 10.555969 2.73 16.692-.909991 11.673975-2.73 16.614-4.419983 9.177982-7.8 12.714-7.487976 6.26599-12.324 8.19-10.21797 2.886-16.146 2.886zm83.304-17.004c12.376062 0 18.564-7.799922 18.564-23.4 0-15.496077-6.187938-23.244-18.564-23.244s-18.564 7.747923-18.564 23.244c0 15.600078 6.187938 23.4 18.564 23.4zm0 17.004c-6.240031 0-11.803976-.98799-16.692-2.964s-9.021983-4.731982-12.402-8.268-5.953991-7.799975-7.722-12.792-2.652-10.45197-2.652-16.38c0-6.03203.909991-11.543975 2.73-16.536s4.445983-9.2559823 7.878-12.792 7.565976-6.2659904 12.402-8.19 10.321969-2.886 16.458-2.886c6.03203 0 11.439976.9619904 16.224 2.886s8.865983 4.6279826 12.246 8.112 5.979991 7.721975 7.8 12.714 2.73 10.555969 2.73 16.692-.909991 11.673975-2.73 16.614-4.419983 9.177982-7.8 12.714-7.487976 6.26599-12.324 8.19-10.21797 2.886-16.146 2.886z"/></g></svg>