<?xml version="1.0" encoding="UTF-8"?>
<svg width="1331px" height="267px" viewBox="0 0 1331 267" version="1.1" xmlns="http://www.w3.org/2000/svg" xmlns:xlink="http://www.w3.org/1999/xlink">
    <!-- Generator: Sketch 47.1 (45422) - http://www.bohemiancoding.com/sketch -->
    <title>Group 3</title>
    <desc>Created with Sketch.</desc>
    <defs></defs>
    <g id="Page-1" stroke="none" stroke-width="1" fill="none" fill-rule="evenodd">
        <g id="Artboard" transform="translate(-290.000000, -1002.000000)" fill="#FFFFFF">
            <g id="Group-3" transform="translate(290.000000, 1001.000000)">
                <polygon id="Path-8" points="0.867405962 140.615918 78.144148 245.634398 95.6278757 245.634398 100.389856 241.511709 123.293539 194.55789 91.3088814 150.887747 81.4171578 169.404468 37.4297511 110.14752 26.4897422 108.033457 1.0896113 131.062034"></polygon>
                <polygon id="Path-9" points="149.219722 145.0612 190.746309 66.4213632 190.280588 56.4867144 160.698803 34.925087 149.543209 38.66124 116.812458 101.183981"></polygon>
                <polygon id="Path-10" points="202.368924 263.660107 320.835605 30.9893164 320.835605 21.555322 293.317376 0.994558052 280.875981 1.36744756 182.17663 193.845157 106.554972 90.4736337 95.2596653 90.1772646 72.1708773 111.523762 72.1708773 121.485143 179.633891 267.839537 198.143177 267.839537"></polygon>
                <path d="M434.6685,219 L412.9355,127.848 L390.7805,219 L363.3505,219 L323.6825,78.896 L354.9105,78.896 L377.9095,169.626 L397.3215,78.896 L428.1275,78.896 L449.4385,169.626 L472.2265,78.896 L502.1885,78.896 L462.9425,219 L434.6685,219 Z M574.7725,219 L574.7725,154.645 C574.7725,146.767627 573.401014,141.387181 570.658,138.5035 C567.914986,135.619819 563.378532,134.178 557.0485,134.178 C553.672483,134.178 550.64818,134.84616 547.9755,136.1825 C545.30282,137.51884 543.052176,139.347488 541.2235,141.6685 C539.394824,143.989512 538.023338,146.662152 537.109,149.6865 C536.194662,152.710848 535.7375,155.981316 535.7375,159.498 L535.7375,219 L508.3075,219 L508.3075,77.208 L535.7375,77.208 L535.7375,128.692 C536.722172,126.441322 538.234323,124.296177 540.274,122.2565 C542.313677,120.216823 544.66982,118.493674 547.3425,117.087 C550.01518,115.680326 552.96915,114.555004 556.2045,113.711 C559.43985,112.866996 562.815816,112.445 566.3325,112.445 C577.02322,112.445 585.7093,115.363804 592.391,121.2015 C599.0727,127.039196 602.4135,135.162615 602.4135,145.572 L602.4135,219 L574.7725,219 Z M676.4745,168.149 C675.067826,169.555674 673.02818,170.680996 670.3555,171.525 C667.68282,172.369004 663.814525,173.283328 658.7505,174.268 C650.873127,175.815341 645.457515,177.784655 642.5035,180.176 C639.549485,182.567345 638.0725,186.013644 638.0725,190.515 C638.0725,198.251705 642.503456,202.12 651.3655,202.12 C654.882184,202.12 658.152652,201.522173 661.177,200.3265 C664.201348,199.130827 666.803656,197.513177 668.984,195.4735 C671.164344,193.433823 672.92266,191.042514 674.259,188.2995 C675.59534,185.556486 676.2635,182.637682 676.2635,179.543 L676.4745,168.149 Z M678.3735,219 C677.529496,216.32732 676.966835,213.232684 676.6855,209.716 C673.45015,213.373352 669.15986,216.292156 663.8145,218.4725 C658.46914,220.652844 652.279869,221.743 645.2465,221.743 C633.289774,221.743 624.533361,219.105526 618.977,213.8305 C613.420639,208.555474 610.6425,201.698042 610.6425,193.258 C610.6425,185.802629 611.838155,179.859522 614.2295,175.4285 C616.620845,170.997478 619.926479,167.516013 624.1465,164.984 C628.366521,162.451987 633.395304,160.588173 639.233,159.3925 C645.070696,158.196827 651.435799,157.106672 658.3285,156.122 C665.221201,155.137328 669.863155,153.836175 672.2545,152.2185 C674.645845,150.600825 675.8415,147.963352 675.8415,144.306 C675.8415,140.929983 674.259016,138.292509 671.094,136.3935 C667.928984,134.494491 663.67386,133.545 658.3285,133.545 C651.998468,133.545 647.462014,134.951653 644.719,137.765 C641.975986,140.578347 640.252837,144.305977 639.5495,148.948 L614.0185,148.948 C614.159167,143.60264 615.038325,138.679356 616.656,134.178 C618.273675,129.676644 620.875982,125.80835 624.463,122.573 C628.050018,119.33765 632.727138,116.840842 638.4945,115.0825 C644.261862,113.324158 651.295125,112.445 659.5945,112.445 C667.753207,112.445 674.680972,113.359324 680.378,115.188 C686.075028,117.016676 690.646649,119.654149 694.093,123.1005 C697.539351,126.546851 700.036159,130.837141 701.5835,135.9715 C703.130841,141.105859 703.9045,146.908301 703.9045,153.379 L703.9045,219 L678.3735,219 Z M773.7455,150.636 L799.2765,150.636 L799.2765,180.176 C799.2765,185.662027 798.467675,190.901808 796.85,195.8955 C795.232325,200.889192 792.700351,205.320147 789.254,209.1885 C785.807649,213.056853 781.447026,216.116322 776.172,218.367 C770.896974,220.617678 764.602203,221.743 757.2875,221.743 C749.691462,221.743 743.22086,220.617678 737.8755,218.367 C732.53014,216.116322 728.134351,213.092019 724.688,209.294 C721.241649,205.495981 718.744841,201.065025 717.1975,196.001 C715.650159,190.936975 714.8765,185.591695 714.8765,179.965 L714.8765,87.125 L741.8845,87.125 L741.8845,115.188 L799.2765,115.188 L799.2765,134.6 L741.8845,134.6 L741.8845,177.222 C741.8845,183.833366 743.115321,188.932482 745.577,192.5195 C748.038679,196.106518 752.082805,197.9 757.7095,197.9 C763.195527,197.9 767.239654,196.141684 769.842,192.625 C772.444346,189.108316 773.7455,184.114699 773.7455,177.644 L773.7455,150.636 Z M871.6495,146.627 C870.946163,141.844309 869.152681,138.362844 866.269,136.1825 C863.385319,134.002156 858.98953,132.912 853.0815,132.912 C847.454805,132.912 843.199681,133.58016 840.316,134.9165 C837.432319,136.25284 835.9905,138.53865 835.9905,141.774 C835.9905,144.587347 837.432319,146.837992 840.316,148.526 C843.199681,150.214008 847.384473,151.831659 852.8705,153.379 C861.873212,155.911013 869.469136,158.056158 875.6585,159.8145 C881.847864,161.572842 886.806315,163.647655 890.534,166.039 C894.261685,168.430345 896.934325,171.419482 898.552,175.0065 C900.169675,178.593518 900.9785,183.411303 900.9785,189.46 C900.9785,198.744046 897.110205,206.445469 889.3735,212.5645 C881.636795,218.683531 870.172576,221.743 854.9805,221.743 C847.525129,221.743 840.773197,220.899008 834.7245,219.211 C828.675803,217.522992 823.506355,215.096516 819.216,211.9315 C814.925645,208.766484 811.620012,204.968522 809.299,200.5375 C806.977988,196.106478 805.747167,191.148027 805.6065,185.662 L833.8805,185.662 C833.8805,190.585358 835.814647,194.38332 839.683,197.056 C843.551353,199.72868 848.580136,201.065 854.7695,201.065 C859.974193,201.065 864.440315,200.256175 868.168,198.6385 C871.895685,197.020825 873.7595,194.524017 873.7595,191.148 C873.7595,187.349981 872.388014,184.607008 869.645,182.919 C866.901986,181.230992 862.717195,179.754006 857.0905,178.488 C846.962449,176.237322 838.803864,173.881179 832.6145,171.4195 C826.425136,168.957821 821.607351,166.250015 818.161,163.296 C814.714649,160.341985 812.393673,157.106684 811.198,153.59 C810.002327,150.073316 809.4045,146.134688 809.4045,141.774 C809.4045,137.835314 810.213325,134.107684 811.831,130.591 C813.448675,127.074316 816.015816,123.97968 819.5325,121.307 C823.049184,118.63432 827.620805,116.489175 833.2475,114.8715 C838.874195,113.253825 845.766793,112.445 853.9255,112.445 C868.836241,112.445 879.737799,115.469303 886.6305,121.518 C893.523201,127.566697 897.321163,135.93628 898.0245,146.627 L871.6495,146.627 Z M903.0885,219 C903.0885,212.529301 903.615995,206.480695 904.671,200.854 C905.726005,195.227305 907.765652,189.671027 910.79,184.185 C913.814348,178.698973 918.069473,173.142695 923.5555,167.516 C929.041527,161.889305 936.285788,155.840699 945.2885,149.37 C950.352525,145.853316 954.537317,142.688347 957.843,139.875 C961.148683,137.061653 963.786157,134.389013 965.7555,131.857 C967.724843,129.324987 969.131496,126.793013 969.9755,124.261 C970.819504,121.728987 971.2415,118.986015 971.2415,116.032 C971.2415,112.515316 970.749172,109.561345 969.7645,107.17 C968.779828,104.778655 967.408342,102.879674 965.65,101.473 C963.891658,100.066326 961.816845,99.0816695 959.4255,98.519 C957.034155,97.9563305 954.50218,97.675 951.8295,97.675 C945.499468,97.675 940.505852,99.4684821 936.8485,103.0555 C933.191148,106.642518 931.3625,113.148286 931.3625,122.573 L904.9875,122.573 C904.9875,107.380924 908.961294,95.5298759 916.909,87.0195 C924.856706,78.5091241 936.074761,74.254 950.5635,74.254 C957.596869,74.254 964.032304,75.0979916 969.87,76.786 C975.707696,78.4740084 980.701313,81.0059831 984.851,84.382 C989.000687,87.7580169 992.235988,92.013141 994.557,97.1475 C996.878012,102.281859 998.0385,108.295299 998.0385,115.188 C998.0385,120.53336 997.335174,125.386312 995.9285,129.747 C994.521826,134.107688 992.236016,138.397979 989.071,142.618 C985.905984,146.838021 981.721193,151.128312 976.5165,155.489 C971.311807,159.849688 964.981871,164.70264 957.5265,170.048 C952.18114,173.986686 947.679852,178.24181 944.0225,182.8135 C940.365148,187.38519 938.395835,191.499648 938.1145,195.157 L998.4605,195.157 L998.4605,219 L903.0885,219 Z M1053.9535,199.377 C1060.56487,199.377 1066.08598,196.634027 1070.517,191.148 C1074.94802,185.661973 1077.1635,178.488044 1077.1635,169.626 C1077.1635,147.119221 1069.49724,135.866 1054.1645,135.866 C1038.40975,135.866 1030.5325,146.55656 1030.5325,167.938 C1030.5325,177.222046 1032.71281,184.782804 1037.0735,190.6205 C1041.43419,196.458196 1047.0608,199.377 1053.9535,199.377 Z M1076.7415,219 L1076.5305,206.34 C1070.20047,216.608718 1060.5649,221.743 1047.6235,221.743 C1041.01213,221.743 1034.96353,220.477013 1029.4775,217.945 C1023.99147,215.412987 1019.27919,211.755691 1015.3405,206.973 C1011.40181,202.190309 1008.30718,196.352701 1006.0565,189.46 C1003.80582,182.567299 1002.6805,174.760377 1002.6805,166.039 C1002.6805,158.161627 1003.62999,150.952533 1005.529,144.4115 C1007.42801,137.870467 1010.20615,132.208691 1013.8635,127.426 C1017.52085,122.643309 1021.98697,118.950846 1027.262,116.3485 C1032.53703,113.746154 1038.55047,112.445 1045.3025,112.445 C1058.10323,112.445 1068.37179,117.860613 1076.1085,128.692 L1076.1085,77.208 L1103.1165,77.208 L1103.1165,219 L1076.7415,219 Z M1165.1505,198.744 C1181.88992,198.744 1190.2595,188.194105 1190.2595,167.094 C1190.2595,146.134562 1181.88992,135.655 1165.1505,135.655 C1148.41108,135.655 1140.0415,146.134562 1140.0415,167.094 C1140.0415,188.194105 1148.41108,198.744 1165.1505,198.744 Z M1165.1505,221.743 C1156.71046,221.743 1149.18487,220.40668 1142.5735,217.734 C1135.96213,215.06132 1130.37069,211.333691 1125.799,206.551 C1121.22731,201.768309 1117.74585,196.001034 1115.3545,189.249 C1112.96315,182.496966 1111.7675,175.11204 1111.7675,167.094 C1111.7675,158.935293 1112.99832,151.480034 1115.46,144.728 C1117.92168,137.975966 1121.47348,132.208691 1126.1155,127.426 C1130.75752,122.643309 1136.34897,118.950846 1142.89,116.3485 C1149.43103,113.746154 1156.85113,112.445 1165.1505,112.445 C1173.30921,112.445 1180.6238,113.746154 1187.0945,116.3485 C1193.5652,118.950846 1199.08631,122.608143 1203.658,127.3205 C1208.22969,132.032857 1211.74632,137.764966 1214.208,144.517 C1216.66968,151.269034 1217.9005,158.794625 1217.9005,167.094 C1217.9005,175.393375 1216.66968,182.8838 1214.208,189.5655 C1211.74632,196.2472 1208.22969,201.979309 1203.658,206.762 C1199.08631,211.544691 1193.53003,215.237154 1186.989,217.8395 C1180.44797,220.441846 1173.16854,221.743 1165.1505,221.743 Z M1277.8245,198.744 C1294.56392,198.744 1302.9335,188.194105 1302.9335,167.094 C1302.9335,146.134562 1294.56392,135.655 1277.8245,135.655 C1261.08508,135.655 1252.7155,146.134562 1252.7155,167.094 C1252.7155,188.194105 1261.08508,198.744 1277.8245,198.744 Z M1277.8245,221.743 C1269.38446,221.743 1261.85887,220.40668 1255.2475,217.734 C1248.63613,215.06132 1243.04469,211.333691 1238.473,206.551 C1233.90131,201.768309 1230.41985,196.001034 1228.0285,189.249 C1225.63715,182.496966 1224.4415,175.11204 1224.4415,167.094 C1224.4415,158.935293 1225.67232,151.480034 1228.134,144.728 C1230.59568,137.975966 1234.14748,132.208691 1238.7895,127.426 C1243.43152,122.643309 1249.02297,118.950846 1255.564,116.3485 C1262.10503,113.746154 1269.52513,112.445 1277.8245,112.445 C1285.98321,112.445 1293.2978,113.746154 1299.7685,116.3485 C1306.2392,118.950846 1311.76031,122.608143 1316.332,127.3205 C1320.90369,132.032857 1324.42032,137.764966 1326.882,144.517 C1329.34368,151.269034 1330.5745,158.794625 1330.5745,167.094 C1330.5745,175.393375 1329.34368,182.8838 1326.882,189.5655 C1324.42032,196.2472 1320.90369,201.979309 1316.332,206.762 C1311.76031,211.544691 1306.20403,215.237154 1299.663,217.8395 C1293.12197,220.441846 1285.84254,221.743 1277.8245,221.743 Z" id="Whats2doo"></path>
            </g>
        </g>
    </g>
</svg>