<?xml version="1.0" encoding="utf-8"?>
<!-- Generator: Adobe Illustrator 16.0.0, SVG Export Plug-In . SVG Version: 6.00 Build 0)  -->
<!DOCTYPE svg PUBLIC "-//W3C//DTD SVG 1.1//EN" "http://www.w3.org/Graphics/SVG/1.1/DTD/svg11.dtd" [
	<!ENTITY ns_flows "http://ns.adobe.com/Flows/1.0/">
	<!ENTITY ns_extend "http://ns.adobe.com/Extensibility/1.0/">
	<!ENTITY ns_ai "http://ns.adobe.com/AdobeIllustrator/10.0/">
	<!ENTITY ns_graphs "http://ns.adobe.com/Graphs/1.0/">
]>
<svg version="1.1" id="Layer_1" xmlns:x="&ns_extend;" xmlns:i="&ns_ai;" xmlns:graph="&ns_graphs;"
	 xmlns="http://www.w3.org/2000/svg" xmlns:xlink="http://www.w3.org/1999/xlink" xmlns:a="http://ns.adobe.com/AdobeSVGViewerExtensions/3.0/"
	 x="0px" y="0px" width="200px" height="200px" viewBox="0 0 200 200" enable-background="new 0 0 200 200" xml:space="preserve">
<g>
	<g>
		<path fill="#9DE8F7" d="M200,172.939c0,1.807-0.69,3.616-2.067,4.992c-1.38,1.378-3.187,2.068-4.991,2.068H7.059
			c-1.806,0-3.613-0.69-4.991-2.068C0.689,176.556,0,174.746,0,172.939V56h200V172.939z"/>
		<path fill="#EFEFEF" d="M200,56H0V27.057c0-1.805,0.689-3.611,2.068-4.99C3.446,20.688,5.253,20,7.059,20h185.882
			c1.805,0,3.611,0.688,4.991,2.067c1.377,1.379,2.067,3.186,2.067,4.99V56z"/>
	</g>
	<g>
		<polygon fill="#FFFFFF" points="73.701,143.235 48.463,117.998 73.701,92.762 80.356,99.417 61.774,117.998 80.356,136.582 		"/>
		<polygon fill="#FFFFFF" points="126.299,143.235 119.644,136.582 138.226,117.998 119.644,99.417 126.299,92.762 151.536,117.998 
					"/>
		
			<rect x="95.294" y="81.311" transform="matrix(0.9621 0.2729 -0.2729 0.9621 35.9912 -22.8084)" fill="#FFFFFF" width="9.413" height="73.374"/>
	</g>
	<g>
		<path fill="#D65A38" d="M23.529,38.001c0,3.245-2.633,5.882-5.882,5.882c-3.25,0-5.883-2.637-5.883-5.882
			c0-3.25,2.634-5.884,5.883-5.884C20.896,32.118,23.529,34.751,23.529,38.001z"/>
		<path fill="#F5B947" d="M41.177,38.001c0,3.245-2.633,5.882-5.883,5.882c-3.249,0-5.882-2.637-5.882-5.882
			c0-3.25,2.633-5.884,5.882-5.884C38.543,32.118,41.177,34.751,41.177,38.001z"/>
		<path fill="#71BF8C" d="M58.823,38.001c0,3.245-2.632,5.882-5.882,5.882c-3.249,0-5.882-2.637-5.882-5.882
			c0-3.25,2.633-5.884,5.882-5.884C56.191,32.118,58.823,34.751,58.823,38.001z"/>
	</g>
</g>
</svg>
