<?xml version="1.0" encoding="utf-8"?>
<!-- Generator: Adobe Illustrator 16.0.0, SVG Export Plug-In . SVG Version: 6.00 Build 0)  -->
<!DOCTYPE svg PUBLIC "-//W3C//DTD SVG 1.1//EN" "http://www.w3.org/Graphics/SVG/1.1/DTD/svg11.dtd" [
	<!ENTITY ns_flows "http://ns.adobe.com/Flows/1.0/">
	<!ENTITY ns_extend "http://ns.adobe.com/Extensibility/1.0/">
	<!ENTITY ns_ai "http://ns.adobe.com/AdobeIllustrator/10.0/">
	<!ENTITY ns_graphs "http://ns.adobe.com/Graphs/1.0/">
]>
<svg version="1.1" id="Layer_1" xmlns:x="&ns_extend;" xmlns:i="&ns_ai;" xmlns:graph="&ns_graphs;"
	 xmlns="http://www.w3.org/2000/svg" xmlns:xlink="http://www.w3.org/1999/xlink" xmlns:a="http://ns.adobe.com/AdobeSVGViewerExtensions/3.0/"
	 x="0px" y="0px" width="200px" height="200px" viewBox="0 0 200 200" enable-background="new 0 0 200 200" xml:space="preserve">
<g>
	<g>
		<g>
			<path fill="#EFEFEF" d="M200,172.939c0,1.807-0.69,3.613-2.068,4.992c-1.379,1.378-3.184,2.068-4.99,2.068H7.059
				c-1.807,0-3.612-0.69-4.99-2.068C0.69,176.553,0,174.746,0,172.939V56h200V172.939z"/>
			<path fill="#D9D8D7" d="M200,56H0V27.057c0-1.805,0.69-3.613,2.069-4.99C3.447,20.688,5.252,20,7.059,20h185.882
				c1.807,0,3.611,0.688,4.99,2.067c1.378,1.377,2.068,3.186,2.068,4.99V56z"/>
		</g>
		<g>
			<circle fill="#D65A38" cx="17.646" cy="37.998" r="5.882"/>
			<circle fill="#F5B947" cx="35.295" cy="37.998" r="5.882"/>
			<circle fill="#71BF8C" cx="52.941" cy="37.998" r="5.882"/>
		</g>
	</g>
	<g>
		<g>
			<rect x="17.646" y="153.613" fill="#CCCBCA" width="164.707" height="7.915"/>
			<rect x="17.646" y="137.786" fill="#CCCBCA" width="164.707" height="7.914"/>
			<rect x="17.646" y="121.956" fill="#CCCBCA" width="164.707" height="7.914"/>
			<rect x="17.646" y="106.126" fill="#3F4A5A" width="164.707" height="7.915"/>
		</g>
	</g>
	<g>
		<g>
			<polygon fill="#F8C963" points="27.331,71.854 30.322,77.917 37.015,78.89 32.169,83.607 33.314,90.27 27.331,87.123 
				21.346,90.27 22.49,83.607 17.646,78.89 24.337,77.917 			"/>
			<polygon fill="#F8C963" points="51.779,71.854 54.771,77.917 61.458,78.89 56.618,83.607 57.76,90.27 51.779,87.123 
				45.791,90.27 46.935,83.607 42.093,78.89 48.783,77.917 			"/>
			<polygon fill="#F8C963" points="76.222,71.854 79.214,77.917 85.905,78.89 81.061,83.607 82.206,90.27 76.222,87.123 
				70.236,90.27 71.38,83.607 66.544,78.89 73.236,77.917 			"/>
			<polygon fill="#F8C963" points="100.67,71.854 103.662,77.917 110.35,78.89 105.513,83.607 106.653,90.27 100.67,87.123 
				94.678,90.27 95.825,83.607 90.988,78.89 97.682,77.917 			"/>
			<polygon fill="#CCCBCA" points="125.112,71.854 128.112,77.917 134.798,78.89 129.959,83.607 131.104,90.27 125.112,87.123 
				119.129,90.27 120.275,83.607 115.439,78.89 122.122,77.917 			"/>
		</g>
	</g>
	<polygon fill="#E66847" points="154.118,56 154.118,90.27 168.235,76.152 182.354,90.272 182.354,56 	"/>
</g>
</svg>
