<?xml version="1.0" encoding="utf-8"?>
<!-- Generator: Adobe Illustrator 16.0.0, SVG Export Plug-In . SVG Version: 6.00 Build 0)  -->
<!DOCTYPE svg PUBLIC "-//W3C//DTD SVG 1.1//EN" "http://www.w3.org/Graphics/SVG/1.1/DTD/svg11.dtd" [
	<!ENTITY ns_flows "http://ns.adobe.com/Flows/1.0/">
	<!ENTITY ns_extend "http://ns.adobe.com/Extensibility/1.0/">
	<!ENTITY ns_ai "http://ns.adobe.com/AdobeIllustrator/10.0/">
	<!ENTITY ns_graphs "http://ns.adobe.com/Graphs/1.0/">
]>
<svg version="1.1" id="Layer_1" xmlns:x="&ns_extend;" xmlns:i="&ns_ai;" xmlns:graph="&ns_graphs;"
	 xmlns="http://www.w3.org/2000/svg" xmlns:xlink="http://www.w3.org/1999/xlink" xmlns:a="http://ns.adobe.com/AdobeSVGViewerExtensions/3.0/"
	 x="0px" y="0px" width="200px" height="200px" viewBox="0 0 200 200" enable-background="new 0 0 200 200" xml:space="preserve">
<g>
	<g>
		<ellipse fill="#F5B947" cx="99.999" cy="159.753" rx="60.366" ry="40.247"/>
		<rect x="39.632" y="148.484" fill="#F5B947" width="120.733" height="11.269"/>
		<ellipse fill="#FAD97F" cx="99.999" cy="148.484" rx="60.366" ry="40.246"/>
		<path fill="#F8C963" d="M100,178.265c-27.051,0-49.903-13.636-49.903-29.78c0-16.143,22.852-29.78,49.903-29.78
			c27.048,0,49.906,13.638,49.906,29.78C149.906,164.629,127.048,178.265,100,178.265z"/>
		<path fill="#F5B947" d="M58.142,148.484c0-15.335,20.628-28.399,45.886-29.671c-1.332-0.066-2.673-0.109-4.027-0.109
			c-27.051,0-49.903,13.638-49.903,29.78c0,16.145,22.852,29.78,49.903,29.78c1.354,0,2.695-0.042,4.027-0.107
			C78.77,176.885,58.142,163.821,58.142,148.484z"/>
		<g>
			<path fill="#F8C963" d="M77.787,187.136c-0.674-0.178-1.346-0.355-2.012-0.547v8.766c0.667,0.197,1.338,0.39,2.012,0.57V187.136z
				"/>
			<path fill="#F8C963" d="M154.717,174.577c0.769-1.225,1.436-2.484,2.014-3.77v-6.205c-0.617,0.974-1.296,1.923-2.014,2.856
				V174.577z"/>
			<path fill="#F8C963" d="M82.434,188.208c-0.679-0.135-1.346-0.28-2.014-0.432v8.808c0.667,0.154,1.335,0.311,2.014,0.45V188.208z
				"/>
			<path fill="#F8C963" d="M91.722,189.551c-0.677-0.061-1.348-0.129-2.015-0.205v8.841c0.667,0.078,1.336,0.151,2.015,0.214
				V189.551z"/>
			<path fill="#F8C963" d="M87.075,189.011c-0.672-0.098-1.343-0.202-2.013-0.313v8.829c0.667,0.114,1.341,0.214,2.013,0.313
				V189.011z"/>
			<path fill="#F8C963" d="M68.5,184.084c-0.68-0.273-1.346-0.561-2.012-0.852v8.669c0.661,0.299,1.334,0.589,2.012,0.872V184.084z"
				/>
			<path fill="#F8C963" d="M73.145,185.781c-0.679-0.225-1.348-0.459-2.012-0.696v8.724c0.661,0.247,1.335,0.481,2.012,0.71V185.781
				z"/>
			<path fill="#F8C963" d="M145.43,184.727c0.69-0.549,1.364-1.106,2.012-1.678v-8.169c-0.65,0.528-1.321,1.046-2.012,1.553V184.727
				z"/>
			<path fill="#F8C963" d="M150.075,180.505c0.703-0.739,1.38-1.488,2.009-2.258v-7.695c-0.644,0.686-1.309,1.355-2.009,2.01
				V180.505z"/>
			<path fill="#F8C963" d="M54.57,184.727v-8.294c-0.69-0.507-1.36-1.024-2.012-1.553v8.169
				C53.207,183.62,53.877,184.178,54.57,184.727z"/>
			<path fill="#F8C963" d="M63.857,182.015c-0.682-0.335-1.351-0.68-2.012-1.031v8.57c0.658,0.368,1.33,0.725,2.012,1.073V182.015z"
				/>
			<path fill="#F8C963" d="M59.212,179.502c-0.684-0.41-1.354-0.828-2.008-1.257v8.417c0.652,0.454,1.323,0.896,2.008,1.328V179.502
				z"/>
			<path fill="#F8C963" d="M101.01,198.774v-8.854c-0.341,0.005-0.671,0.019-1.01,0.019c-0.338,0-0.669-0.014-1.009-0.019v8.854
				c0.34,0.003,0.67,0.017,1.009,0.017C100.339,198.791,100.669,198.777,101.01,198.774z"/>
			<path fill="#F8C963" d="M136.143,190.627c0.684-0.349,1.354-0.705,2.012-1.073v-8.57c-0.66,0.352-1.328,0.696-2.012,1.031
				V190.627z"/>
			<path fill="#F8C963" d="M140.788,187.99c0.685-0.432,1.355-0.874,2.009-1.328v-8.417c-0.653,0.43-1.324,0.847-2.009,1.257V187.99
				z"/>
			<path fill="#F8C963" d="M131.501,192.773c0.675-0.283,1.351-0.573,2.009-0.872v-8.669c-0.658,0.291-1.328,0.578-2.009,0.852
				V192.773z"/>
			<path fill="#F8C963" d="M47.916,178.247c0.63,0.77,1.305,1.519,2.013,2.258v-7.941c-0.701-0.656-1.372-1.326-2.013-2.012V178.247
				z"/>
			<path fill="#F8C963" d="M43.27,170.808c0.577,1.285,1.245,2.542,2.013,3.77v-7.118c-0.717-0.934-1.399-1.883-2.013-2.856V170.808
				z"/>
			<path fill="#F8C963" d="M126.855,194.519c0.679-0.229,1.352-0.463,2.012-0.708v-8.726c-0.667,0.237-1.333,0.472-2.012,0.696
				V194.519z"/>
			<path fill="#F8C963" d="M112.925,197.84c0.676-0.099,1.35-0.198,2.014-0.313v-8.829c-0.669,0.11-1.338,0.215-2.014,0.313V197.84z
				"/>
			<path fill="#F8C963" d="M108.285,198.401c0.672-0.063,1.341-0.137,2.008-0.215v-8.841c-0.667,0.076-1.336,0.145-2.008,0.205
				V198.401z"/>
			<path fill="#F8C963" d="M103.64,198.711c0.674-0.029,1.341-0.061,2.012-0.101v-8.854c-0.671,0.042-1.338,0.076-2.012,0.101
				V198.711z"/>
			<path fill="#F8C963" d="M122.214,195.925c0.674-0.181,1.346-0.373,2.009-0.57v-8.766c-0.658,0.191-1.338,0.369-2.009,0.547
				V195.925z"/>
			<path fill="#F8C963" d="M117.568,197.034c0.679-0.14,1.345-0.296,2.012-0.45v-8.808c-0.667,0.151-1.338,0.297-2.012,0.432
				V197.034z"/>
			<path fill="#F8C963" d="M96.362,189.856c-0.67-0.024-1.346-0.059-2.013-0.101v8.854c0.667,0.04,1.343,0.071,2.013,0.101V189.856z
				"/>
		</g>
	</g>
	<g>
		<ellipse fill="#F5B947" cx="110.701" cy="141.712" rx="60.368" ry="40.246"/>
		<rect x="50.333" y="130.446" fill="#F5B947" width="120.735" height="11.266"/>
		<path fill="#FAD97F" d="M171.068,130.446c0,22.227-27.025,40.244-60.368,40.244c-33.34,0-60.367-18.018-60.367-40.244
			c0-22.23,27.027-40.248,60.367-40.248C144.043,90.199,171.068,108.216,171.068,130.446z"/>
		<path fill="#F8C963" d="M110.7,160.225c-27.048,0-49.902-13.636-49.902-29.778c0-16.145,22.854-29.782,49.902-29.782
			c27.051,0,49.905,13.638,49.905,29.782C160.605,146.589,137.751,160.225,110.7,160.225z"/>
		<path fill="#F5B947" d="M68.841,130.446c0-15.336,20.628-28.402,45.885-29.671c-1.331-0.068-2.672-0.111-4.026-0.111
			c-27.048,0-49.902,13.638-49.902,29.782c0,16.143,22.854,29.778,49.902,29.778c1.354,0,2.695-0.042,4.026-0.109
			C89.47,158.846,68.841,145.781,68.841,130.446z"/>
		<g>
			<path fill="#F8C963" d="M88.49,169.095c-0.674-0.176-1.351-0.354-2.012-0.547v8.767c0.666,0.198,1.332,0.389,2.012,0.569V169.095
				z"/>
			<path fill="#F8C963" d="M165.42,156.536c0.764-1.226,1.436-2.483,2.009-3.77v-6.204c-0.612,0.974-1.296,1.921-2.009,2.854
				V156.536z"/>
			<path fill="#F8C963" d="M93.135,170.169c-0.679-0.137-1.349-0.283-2.015-0.435v8.809c0.67,0.155,1.336,0.312,2.015,0.451V170.169
				z"/>
			<path fill="#F8C963" d="M102.419,171.511c-0.674-0.061-1.345-0.127-2.012-0.204v8.84c0.667,0.078,1.338,0.151,2.012,0.213
				V171.511z"/>
			<path fill="#F8C963" d="M97.777,170.97c-0.674-0.098-1.344-0.201-2.012-0.313v8.832c0.661,0.113,1.338,0.211,2.012,0.313V170.97z
				"/>
			<path fill="#F8C963" d="M79.203,166.043c-0.682-0.273-1.351-0.558-2.012-0.85v8.667c0.658,0.3,1.332,0.59,2.012,0.873V166.043z"
				/>
			<path fill="#F8C963" d="M83.845,167.739c-0.681-0.222-1.348-0.456-2.014-0.695v8.725c0.664,0.247,1.338,0.481,2.014,0.709
				V167.739z"/>
			<path fill="#F8C963" d="M156.133,166.687c0.69-0.549,1.361-1.107,2.009-1.679v-8.169c-0.653,0.529-1.325,1.045-2.009,1.553
				V166.687z"/>
			<path fill="#F8C963" d="M160.775,162.464c0.703-0.738,1.378-1.487,2.012-2.259v-7.692c-0.644,0.684-1.314,1.353-2.012,2.009
				V162.464z"/>
			<path fill="#F8C963" d="M65.269,166.687v-8.295c-0.687-0.508-1.359-1.023-2.013-1.553v8.169
				C63.903,165.579,64.58,166.138,65.269,166.687z"/>
			<path fill="#F8C963" d="M74.558,163.975c-0.681-0.335-1.35-0.681-2.014-1.032v8.571c0.659,0.368,1.333,0.726,2.014,1.072V163.975
				z"/>
			<path fill="#F8C963" d="M69.916,161.462c-0.685-0.409-1.356-0.829-2.013-1.257v8.416c0.656,0.454,1.326,0.896,2.013,1.328
				V161.462z"/>
			<path fill="#F8C963" d="M111.707,180.732v-8.853c-0.336,0.003-0.668,0.017-1.007,0.017s-0.667-0.014-1.008-0.017v8.853
				c0.341,0.007,0.669,0.018,1.008,0.018S111.371,180.739,111.707,180.732z"/>
			<path fill="#F8C963" d="M146.846,172.586c0.681-0.347,1.354-0.704,2.009-1.072v-8.571c-0.657,0.352-1.328,0.697-2.009,1.032
				V172.586z"/>
			<path fill="#F8C963" d="M151.488,169.949c0.684-0.433,1.354-0.874,2.012-1.328v-8.416c-0.658,0.428-1.328,0.848-2.012,1.257
				V169.949z"/>
			<path fill="#F8C963" d="M142.199,174.733c0.68-0.283,1.351-0.573,2.014-0.873v-8.667c-0.663,0.292-1.328,0.576-2.014,0.85
				V174.733z"/>
			<path fill="#F8C963" d="M58.613,160.205c0.632,0.771,1.309,1.521,2.015,2.259v-7.939c-0.7-0.657-1.371-1.328-2.015-2.012V160.205
				z"/>
			<path fill="#F8C963" d="M53.973,152.767c0.575,1.284,1.245,2.543,2.013,3.77v-7.119c-0.723-0.934-1.403-1.881-2.013-2.854
				V152.767z"/>
			<path fill="#F8C963" d="M137.559,176.478c0.674-0.228,1.352-0.462,2.007-0.708v-8.726c-0.662,0.239-1.333,0.474-2.007,0.695
				V176.478z"/>
			<path fill="#F8C963" d="M123.623,179.802c0.678-0.102,1.352-0.199,2.014-0.313v-8.832c-0.666,0.111-1.336,0.215-2.014,0.313
				V179.802z"/>
			<path fill="#F8C963" d="M118.981,180.361c0.677-0.063,1.343-0.137,2.015-0.215v-8.84c-0.672,0.077-1.338,0.144-2.015,0.204
				V180.361z"/>
			<path fill="#F8C963" d="M114.341,180.671c0.673-0.028,1.343-0.061,2.011-0.102v-8.854c-0.668,0.042-1.338,0.074-2.011,0.103
				V180.671z"/>
			<path fill="#F8C963" d="M132.91,177.884c0.681-0.181,1.348-0.374,2.016-0.571v-8.765c-0.663,0.192-1.338,0.371-2.016,0.547
				V177.884z"/>
			<path fill="#F8C963" d="M128.266,178.994c0.685-0.14,1.351-0.296,2.013-0.451v-8.809c-0.662,0.151-1.333,0.298-2.013,0.435
				V178.994z"/>
			<path fill="#F8C963" d="M107.064,171.818c-0.674-0.028-1.348-0.061-2.014-0.103v8.854c0.666,0.041,1.34,0.073,2.014,0.102
				V171.818z"/>
		</g>
	</g>
	<g>
		<path fill="#F5B947" d="M149.668,123.672c0,22.229-27.027,40.247-60.368,40.247c-33.343,0-60.369-18.019-60.369-40.247
			c0-22.225,27.025-40.244,60.369-40.244C122.641,83.428,149.668,101.447,149.668,123.672z"/>
		<rect x="28.932" y="112.405" fill="#F5B947" width="120.736" height="11.267"/>
		<path fill="#FAD97F" d="M149.668,112.405c0,22.227-27.027,40.244-60.368,40.244c-33.343,0-60.369-18.018-60.369-40.244
			c0-22.228,27.025-40.247,60.369-40.247C122.641,72.158,149.668,90.177,149.668,112.405z"/>
		<path fill="#F8C963" d="M89.3,142.186c-27.051,0-49.905-13.638-49.905-29.78c0-16.142,22.854-29.782,49.905-29.782
			c27.047,0,49.903,13.64,49.903,29.782C139.203,128.548,116.348,142.186,89.3,142.186z"/>
		<path fill="#F5B947" d="M47.441,112.405c0-15.335,20.625-28.401,45.884-29.671c-1.328-0.068-2.671-0.111-4.025-0.111
			c-27.051,0-49.905,13.64-49.905,29.782c0,16.143,22.854,29.78,49.905,29.78c1.354,0,2.697-0.044,4.025-0.11
			C68.066,140.806,47.441,127.739,47.441,112.405z"/>
		<g>
			<path fill="#F8C963" d="M67.09,151.055c-0.677-0.176-1.351-0.354-2.015-0.545v8.765c0.667,0.198,1.336,0.391,2.015,0.571V151.055
				z"/>
			<path fill="#F8C963" d="M144.019,138.496c0.764-1.226,1.435-2.483,2.009-3.77v-6.204c-0.61,0.973-1.291,1.92-2.009,2.854V138.496
				z"/>
			<path fill="#F8C963" d="M71.735,152.129c-0.681-0.137-1.35-0.283-2.015-0.433v8.809c0.667,0.152,1.334,0.309,2.015,0.449V152.129
				z"/>
			<path fill="#F8C963" d="M81.019,153.47c-0.674-0.059-1.344-0.127-2.012-0.205v8.843c0.667,0.077,1.334,0.151,2.012,0.214V153.47z
				"/>
			<path fill="#F8C963" d="M76.377,152.93c-0.674-0.096-1.344-0.202-2.013-0.313v8.831c0.664,0.114,1.339,0.214,2.013,0.313V152.93z
				"/>
			<path fill="#F8C963" d="M57.801,148.005c-0.682-0.273-1.349-0.562-2.013-0.852v8.667c0.661,0.3,1.333,0.589,2.013,0.872V148.005z
				"/>
			<path fill="#F8C963" d="M62.441,149.7c-0.677-0.225-1.344-0.457-2.008-0.696v8.724c0.661,0.248,1.334,0.482,2.008,0.712V149.7z"
				/>
			<path fill="#F8C963" d="M134.731,148.646c0.688-0.547,1.359-1.106,2.007-1.676v-8.171c-0.647,0.53-1.321,1.047-2.007,1.553
				V148.646z"/>
			<path fill="#F8C963" d="M139.372,144.424c0.703-0.739,1.384-1.487,2.015-2.258v-7.695c-0.645,0.686-1.314,1.354-2.015,2.011
				V144.424z"/>
			<path fill="#F8C963" d="M43.87,148.646v-8.294c-0.687-0.506-1.363-1.022-2.013-1.553v8.171
				C42.505,147.539,43.178,148.099,43.87,148.646z"/>
			<path fill="#F8C963" d="M53.158,145.935c-0.684-0.336-1.351-0.679-2.013-1.032v8.571c0.659,0.367,1.33,0.726,2.013,1.074V145.935
				z"/>
			<path fill="#F8C963" d="M48.513,143.421c-0.684-0.408-1.355-0.83-2.01-1.256v8.418c0.654,0.452,1.326,0.895,2.01,1.328V143.421z"
				/>
			<path fill="#F8C963" d="M90.306,162.693v-8.853c-0.338,0.004-0.667,0.015-1.006,0.015s-0.67-0.011-1.007-0.015v8.853
				c0.337,0.005,0.669,0.019,1.007,0.019S89.968,162.698,90.306,162.693z"/>
			<path fill="#F8C963" d="M125.443,154.548c0.68-0.349,1.357-0.707,2.013-1.074v-8.571c-0.662,0.354-1.333,0.696-2.013,1.032
				V154.548z"/>
			<path fill="#F8C963" d="M130.09,151.911c0.686-0.434,1.351-0.876,2.008-1.328v-8.418c-0.657,0.43-1.322,0.848-2.008,1.256
				V151.911z"/>
			<path fill="#F8C963" d="M120.801,156.692c0.678-0.283,1.348-0.572,2.009-0.872v-8.667c-0.661,0.29-1.328,0.578-2.009,0.852
				V156.692z"/>
			<path fill="#F8C963" d="M37.215,142.166c0.627,0.771,1.307,1.519,2.01,2.258v-7.941c-0.698-0.655-1.369-1.326-2.01-2.012V142.166
				z"/>
			<path fill="#F8C963" d="M32.572,134.727c0.574,1.286,1.245,2.542,2.013,3.77v-7.119c-0.72-0.935-1.401-1.882-2.013-2.854V134.727
				z"/>
			<path fill="#F8C963" d="M116.159,158.439c0.674-0.229,1.348-0.464,2.01-0.708v-8.728c-0.665,0.239-1.336,0.472-2.01,0.696
				V158.439z"/>
			<path fill="#F8C963" d="M102.224,161.761c0.677-0.099,1.351-0.198,2.015-0.313v-8.831c-0.667,0.11-1.338,0.217-2.015,0.313
				V161.761z"/>
			<path fill="#F8C963" d="M97.585,162.321c0.67-0.063,1.341-0.137,2.008-0.214v-8.843c-0.667,0.078-1.338,0.146-2.008,0.205
				V162.321z"/>
			<path fill="#F8C963" d="M92.939,162.63c0.674-0.027,1.341-0.059,2.012-0.101v-8.854c-0.67,0.041-1.338,0.077-2.012,0.103V162.63z
				"/>
			<path fill="#F8C963" d="M111.514,159.846c0.678-0.181,1.345-0.375,2.012-0.571v-8.767c-0.662,0.192-1.338,0.371-2.012,0.547
				V159.846z"/>
			<path fill="#F8C963" d="M106.869,160.954c0.68-0.141,1.346-0.297,2.012-0.449v-8.809c-0.666,0.149-1.337,0.296-2.012,0.433
				V160.954z"/>
			<path fill="#F8C963" d="M85.664,153.777c-0.674-0.025-1.348-0.062-2.012-0.103v8.854c0.664,0.042,1.338,0.073,2.012,0.101
				V153.777z"/>
		</g>
	</g>
	<g>
		<ellipse fill="#F5B947" cx="95.72" cy="105.632" rx="60.368" ry="40.247"/>
		<rect x="35.352" y="94.365" fill="#F5B947" width="120.736" height="11.267"/>
		<ellipse fill="#FAD97F" cx="95.72" cy="94.365" rx="60.368" ry="40.244"/>
		<path fill="#F8C963" d="M95.72,124.144c-27.051,0-49.904-13.636-49.904-29.778c0-16.144,22.854-29.782,49.904-29.782
			c27.049,0,49.902,13.638,49.902,29.782C145.622,110.508,122.769,124.144,95.72,124.144z"/>
		<path fill="#F5B947" d="M53.861,94.365c0-15.337,20.626-28.402,45.885-29.671c-1.328-0.068-2.671-0.11-4.026-0.11
			c-27.051,0-49.904,13.638-49.904,29.782c0,16.143,22.854,29.778,49.904,29.778c1.355,0,2.698-0.042,4.026-0.107
			C74.487,122.767,53.861,109.7,53.861,94.365z"/>
		<g>
			<path fill="#F8C963" d="M73.509,133.015c-0.677-0.176-1.349-0.355-2.013-0.546v8.765c0.666,0.199,1.336,0.39,2.013,0.571V133.015
				z"/>
			<path fill="#F8C963" d="M150.439,120.456c0.762-1.225,1.433-2.484,2.012-3.77v-6.205c-0.615,0.974-1.295,1.923-2.012,2.856
				V120.456z"/>
			<path fill="#F8C963" d="M78.154,134.089c-0.68-0.137-1.348-0.282-2.015-0.434v8.809c0.669,0.153,1.334,0.31,2.015,0.449V134.089z
				"/>
			<path fill="#F8C963" d="M87.438,135.432c-0.674-0.061-1.345-0.129-2.012-0.207v8.843c0.667,0.076,1.336,0.151,2.012,0.212
				V135.432z"/>
			<path fill="#F8C963" d="M82.796,134.89c-0.674-0.097-1.344-0.2-2.012-0.313v8.831c0.664,0.114,1.338,0.212,2.012,0.313V134.89z"
				/>
			<path fill="#F8C963" d="M64.222,129.964c-0.68-0.274-1.351-0.562-2.015-0.853v8.669c0.664,0.299,1.335,0.589,2.015,0.872V129.964
				z"/>
			<path fill="#F8C963" d="M68.864,131.66c-0.681-0.225-1.348-0.456-2.012-0.696v8.726c0.661,0.245,1.334,0.479,2.012,0.708V131.66z
				"/>
			<path fill="#F8C963" d="M141.152,130.605c0.688-0.547,1.364-1.106,2.012-1.678v-8.169c-0.652,0.53-1.328,1.046-2.012,1.553
				V130.605z"/>
			<path fill="#F8C963" d="M145.798,126.384c0.698-0.737,1.378-1.488,2.009-2.258v-7.695c-0.645,0.686-1.315,1.355-2.009,2.01
				V126.384z"/>
			<path fill="#F8C963" d="M50.29,130.605v-8.294c-0.687-0.507-1.361-1.022-2.014-1.553v8.169
				C48.925,129.499,49.598,130.059,50.29,130.605z"/>
			<path fill="#F8C963" d="M59.577,127.894c-0.682-0.333-1.348-0.679-2.012-1.031v8.57c0.657,0.368,1.33,0.725,2.012,1.073V127.894z
				"/>
			<path fill="#F8C963" d="M54.934,125.381c-0.686-0.407-1.356-0.828-2.01-1.257v8.418c0.654,0.453,1.325,0.896,2.01,1.328V125.381z
				"/>
			<path fill="#F8C963" d="M96.726,144.653v-8.853c-0.335,0.003-0.666,0.017-1.006,0.017c-0.339,0-0.669-0.014-1.006-0.017v8.853
				c0.337,0.005,0.667,0.018,1.006,0.018C96.06,144.671,96.39,144.658,96.726,144.653z"/>
			<path fill="#F8C963" d="M131.863,136.506c0.681-0.349,1.356-0.705,2.014-1.073v-8.57c-0.662,0.353-1.333,0.698-2.014,1.031
				V136.506z"/>
			<path fill="#F8C963" d="M136.511,133.87c0.684-0.433,1.351-0.875,2.009-1.328v-8.418c-0.658,0.43-1.325,0.85-2.009,1.257V133.87z
				"/>
			<path fill="#F8C963" d="M127.222,138.652c0.676-0.283,1.347-0.573,2.009-0.872v-8.669c-0.662,0.291-1.328,0.578-2.009,0.853
				V138.652z"/>
			<path fill="#F8C963" d="M43.635,124.126c0.627,0.77,1.307,1.521,2.013,2.258v-7.941c-0.701-0.656-1.371-1.326-2.013-2.012
				V124.126z"/>
			<path fill="#F8C963" d="M38.991,116.687c0.574,1.285,1.246,2.542,2.013,3.77v-7.118c-0.719-0.934-1.401-1.883-2.013-2.856
				V116.687z"/>
			<path fill="#F8C963" d="M122.575,140.397c0.677-0.229,1.351-0.463,2.015-0.707v-8.727c-0.667,0.24-1.338,0.472-2.015,0.696
				V140.397z"/>
			<path fill="#F8C963" d="M108.645,143.721c0.679-0.101,1.35-0.198,2.015-0.313v-8.831c-0.669,0.112-1.336,0.216-2.015,0.313
				V143.721z"/>
			<path fill="#F8C963" d="M104.004,144.28c0.674-0.062,1.343-0.137,2.012-0.213v-8.843c-0.669,0.078-1.338,0.146-2.012,0.207
				V144.28z"/>
			<path fill="#F8C963" d="M99.359,144.59c0.675-0.026,1.341-0.059,2.013-0.101v-8.854c-0.672,0.042-1.338,0.076-2.013,0.104V144.59
				z"/>
			<path fill="#F8C963" d="M117.935,141.805c0.676-0.182,1.343-0.374,2.007-0.571v-8.766c-0.66,0.191-1.336,0.371-2.007,0.547
				V141.805z"/>
			<path fill="#F8C963" d="M113.288,142.913c0.681-0.14,1.348-0.296,2.013-0.449v-8.809c-0.665,0.151-1.336,0.297-2.013,0.434
				V142.913z"/>
			<path fill="#F8C963" d="M92.083,135.739c-0.672-0.028-1.346-0.063-2.012-0.104v8.854c0.666,0.042,1.339,0.074,2.012,0.101
				V135.739z"/>
		</g>
	</g>
	<g>
		<ellipse fill="#F5B947" cx="106.419" cy="87.591" rx="60.366" ry="40.248"/>
		<rect x="46.052" y="76.325" fill="#F5B947" width="120.733" height="11.267"/>
		<ellipse fill="#FAD97F" cx="106.419" cy="76.325" rx="60.366" ry="40.245"/>
		<path fill="#F8C963" d="M106.42,106.104c-27.05,0-49.901-13.636-49.901-29.779c0-16.144,22.852-29.782,49.901-29.782
			c27.047,0,49.905,13.638,49.905,29.782C156.325,92.467,133.467,106.104,106.42,106.104z"/>
		<path fill="#F5B947" d="M64.561,76.325c0-15.335,20.628-28.401,45.886-29.671c-1.331-0.068-2.673-0.111-4.026-0.111
			c-27.05,0-49.901,13.638-49.901,29.782c0,16.143,22.852,29.779,49.901,29.779c1.354,0,2.695-0.042,4.026-0.107
			C85.189,104.727,64.561,91.66,64.561,76.325z"/>
		<g>
			<path fill="#F8C963" d="M84.208,114.974c-0.672-0.176-1.346-0.354-2.013-0.543v8.763c0.669,0.198,1.338,0.389,2.013,0.569
				V114.974z"/>
			<path fill="#F8C963" d="M161.138,102.415c0.767-1.224,1.435-2.483,2.014-3.769v-6.205c-0.617,0.973-1.296,1.922-2.014,2.856
				V102.415z"/>
			<path fill="#F8C963" d="M88.854,116.048c-0.679-0.137-1.348-0.281-2.014-0.433v8.807c0.666,0.155,1.335,0.312,2.014,0.451
				V116.048z"/>
			<path fill="#F8C963" d="M98.142,117.39c-0.676-0.059-1.348-0.127-2.014-0.204v8.843c0.666,0.075,1.336,0.15,2.014,0.21V117.39z"
				/>
			<path fill="#F8C963" d="M93.496,116.849c-0.672-0.098-1.343-0.2-2.015-0.313v8.832c0.667,0.113,1.343,0.211,2.015,0.313V116.849z
				"/>
			<path fill="#F8C963" d="M74.919,111.924c-0.681-0.275-1.345-0.56-2.009-0.852v8.667c0.658,0.3,1.332,0.59,2.009,0.873V111.924z"
				/>
			<path fill="#F8C963" d="M79.565,113.62c-0.679-0.224-1.349-0.458-2.013-0.697v8.726c0.663,0.246,1.334,0.48,2.013,0.708V113.62z"
				/>
			<path fill="#F8C963" d="M151.85,112.565c0.694-0.549,1.365-1.107,2.013-1.679v-8.169c-0.652,0.531-1.323,1.049-2.013,1.553
				V112.565z"/>
			<path fill="#F8C963" d="M156.496,108.343c0.703-0.738,1.379-1.487,2.008-2.256v-7.695c-0.643,0.684-1.31,1.354-2.008,2.008
				V108.343z"/>
			<path fill="#F8C963" d="M60.99,112.565v-8.295c-0.688-0.504-1.361-1.021-2.012-1.553v8.169
				C59.626,111.458,60.296,112.017,60.99,112.565z"/>
			<path fill="#F8C963" d="M70.278,109.854c-0.682-0.334-1.353-0.677-2.013-1.032v8.571c0.658,0.368,1.332,0.726,2.013,1.072
				V109.854z"/>
			<path fill="#F8C963" d="M65.632,107.341c-0.682-0.407-1.351-0.829-2.009-1.257v8.416c0.654,0.454,1.325,0.897,2.009,1.328
				V107.341z"/>
			<path fill="#F8C963" d="M107.427,126.614v-8.855c-0.337,0.005-0.669,0.018-1.007,0.018s-0.668-0.013-1.006-0.018v8.855
				c0.338,0.004,0.668,0.015,1.006,0.015S107.09,126.618,107.427,126.614z"/>
			<path fill="#F8C963" d="M142.563,118.465c0.685-0.347,1.355-0.704,2.013-1.072v-8.571c-0.662,0.355-1.328,0.698-2.013,1.032
				V118.465z"/>
			<path fill="#F8C963" d="M147.207,115.828c0.688-0.431,1.357-0.874,2.009-1.328v-8.416c-0.651,0.43-1.321,0.85-2.009,1.257
				V115.828z"/>
			<path fill="#F8C963" d="M137.92,120.612c0.678-0.282,1.352-0.571,2.009-0.873v-8.667c-0.657,0.292-1.328,0.576-2.009,0.852
				V120.612z"/>
			<path fill="#F8C963" d="M54.336,106.087c0.63,0.769,1.306,1.518,2.012,2.256v-7.939c-0.7-0.658-1.37-1.328-2.012-2.012V106.087z"
				/>
			<path fill="#F8C963" d="M49.692,98.646c0.575,1.286,1.245,2.543,2.01,3.769v-7.117c-0.717-0.934-1.399-1.883-2.01-2.856V98.646z"
				/>
			<path fill="#F8C963" d="M133.275,122.356c0.68-0.228,1.351-0.462,2.012-0.706v-8.728c-0.666,0.239-1.332,0.474-2.012,0.697
				V122.356z"/>
			<path fill="#F8C963" d="M119.346,125.681c0.674-0.102,1.346-0.199,2.012-0.313v-8.832c-0.67,0.112-1.338,0.215-2.012,0.313
				V125.681z"/>
			<path fill="#F8C963" d="M114.704,126.24c0.674-0.062,1.341-0.137,2.01-0.212v-8.843c-0.669,0.077-1.336,0.146-2.01,0.204V126.24z
				"/>
			<path fill="#F8C963" d="M110.059,126.55c0.674-0.026,1.343-0.059,2.012-0.102v-8.853c-0.669,0.041-1.338,0.077-2.012,0.103
				V126.55z"/>
			<path fill="#F8C963" d="M128.633,123.763c0.676-0.181,1.348-0.371,2.009-0.569v-8.767c-0.657,0.192-1.338,0.371-2.009,0.547
				V123.763z"/>
			<path fill="#F8C963" d="M123.988,124.873c0.68-0.14,1.344-0.296,2.012-0.451v-8.807c-0.668,0.151-1.338,0.296-2.012,0.433
				V124.873z"/>
			<path fill="#F8C963" d="M102.785,117.698c-0.672-0.025-1.346-0.062-2.015-0.103v8.853c0.669,0.043,1.343,0.075,2.015,0.102
				V117.698z"/>
		</g>
	</g>
	<g>
		<ellipse fill="#F5B947" cx="91.439" cy="69.552" rx="60.365" ry="40.246"/>
		<rect x="31.074" y="58.285" fill="#F5B947" width="120.73" height="11.268"/>
		<ellipse fill="#FAD97F" cx="91.439" cy="58.285" rx="60.365" ry="40.244"/>
		<path fill="#F8C963" d="M91.44,88.065c-27.049,0-49.903-13.638-49.903-29.78S64.392,28.502,91.44,28.502
			c27.05,0,49.904,13.64,49.904,29.782S118.49,88.065,91.44,88.065z"/>
		<path fill="#F5B947" d="M49.58,58.285c0-15.335,20.629-28.402,45.886-29.671c-1.33-0.068-2.673-0.111-4.025-0.111
			c-27.049,0-49.903,13.64-49.903,29.782s22.854,29.78,49.903,29.78c1.353,0,2.695-0.044,4.025-0.109
			C70.208,86.686,49.58,73.62,49.58,58.285z"/>
		<g>
			<path fill="#F8C963" d="M69.229,96.934c-0.674-0.176-1.349-0.353-2.013-0.543v8.764c0.669,0.197,1.334,0.39,2.013,0.57V96.934z"
				/>
			<path fill="#F8C963" d="M146.16,84.376c0.764-1.226,1.435-2.483,2.009-3.77v-6.206c-0.616,0.974-1.297,1.924-2.009,2.858V84.376z
				"/>
			<path fill="#F8C963" d="M73.874,98.008c-0.677-0.137-1.348-0.28-2.015-0.433v8.809c0.669,0.152,1.338,0.309,2.015,0.449V98.008z"
				/>
			<path fill="#F8C963" d="M83.159,99.349c-0.675-0.059-1.346-0.127-2.013-0.204v8.841c0.667,0.078,1.338,0.151,2.013,0.214V99.349z
				"/>
			<path fill="#F8C963" d="M78.516,98.81c-0.674-0.098-1.344-0.203-2.012-0.314v8.831c0.664,0.114,1.338,0.214,2.012,0.313V98.81z"
				/>
			<path fill="#F8C963" d="M59.941,93.883c-0.684-0.273-1.351-0.56-2.015-0.851v8.667c0.661,0.3,1.336,0.589,2.015,0.872V93.883z"/>
			<path fill="#F8C963" d="M64.583,95.58c-0.68-0.223-1.346-0.458-2.012-0.695v8.726c0.661,0.244,1.338,0.479,2.012,0.708V95.58z"/>
			<path fill="#F8C963" d="M136.872,94.525c0.69-0.547,1.36-1.105,2.009-1.677v-8.17c-0.651,0.531-1.322,1.048-2.009,1.554V94.525z"
				/>
			<path fill="#F8C963" d="M141.514,90.303c0.703-0.739,1.381-1.488,2.014-2.256v-7.695c-0.643,0.684-1.313,1.354-2.014,2.01V90.303
				z"/>
			<path fill="#F8C963" d="M46.009,94.525v-8.293c-0.688-0.506-1.361-1.023-2.013-1.554v8.17
				C44.644,93.419,45.317,93.978,46.009,94.525z"/>
			<path fill="#F8C963" d="M55.296,91.815c-0.68-0.334-1.351-0.681-2.012-1.032v8.569c0.656,0.368,1.332,0.726,2.012,1.074V91.815z"
				/>
			<path fill="#F8C963" d="M50.653,89.3c-0.683-0.407-1.354-0.827-2.011-1.257v8.418c0.655,0.453,1.326,0.896,2.011,1.328V89.3z"/>
			<path fill="#F8C963" d="M92.448,108.574V99.72c-0.342,0.003-0.671,0.016-1.008,0.016c-0.34,0-0.67-0.013-1.007-0.016v8.854
				c0.337,0.003,0.667,0.017,1.007,0.017C91.777,108.591,92.106,108.577,92.448,108.574z"/>
			<path fill="#F8C963" d="M127.585,100.426c0.681-0.348,1.351-0.706,2.009-1.072v-8.571c-0.661,0.352-1.328,0.698-2.009,1.032
				V100.426z"/>
			<path fill="#F8C963" d="M132.227,97.79c0.684-0.433,1.355-0.875,2.012-1.328v-8.418c-0.656,0.43-1.328,0.85-2.012,1.257V97.79z"
				/>
			<path fill="#F8C963" d="M122.939,102.571c0.681-0.281,1.352-0.571,2.012-0.872v-8.667c-0.66,0.292-1.331,0.578-2.012,0.851
				V102.571z"/>
			<path fill="#F8C963" d="M39.355,88.047c0.629,0.768,1.304,1.517,2.012,2.256v-7.939c-0.698-0.658-1.37-1.327-2.012-2.012V88.047z
				"/>
			<path fill="#F8C963" d="M34.71,80.605c0.577,1.286,1.248,2.544,2.013,3.771v-7.117c-0.719-0.935-1.399-1.885-2.013-2.858V80.605z
				"/>
			<path fill="#F8C963" d="M118.298,104.318c0.675-0.229,1.351-0.464,2.009-0.708v-8.726c-0.663,0.238-1.334,0.472-2.009,0.695
				V104.318z"/>
			<path fill="#F8C963" d="M104.363,107.64c0.68-0.099,1.352-0.198,2.016-0.313v-8.831c-0.669,0.111-1.336,0.216-2.016,0.314V107.64
				z"/>
			<path fill="#F8C963" d="M99.724,108.2c0.674-0.063,1.343-0.136,2.012-0.214v-8.841c-0.669,0.077-1.338,0.145-2.012,0.204V108.2z"
				/>
			<path fill="#F8C963" d="M95.082,108.509c0.672-0.025,1.341-0.059,2.008-0.101v-8.854c-0.667,0.042-1.336,0.078-2.008,0.104
				V108.509z"/>
			<path fill="#F8C963" d="M113.652,105.725c0.679-0.181,1.348-0.373,2.012-0.571v-8.765c-0.659,0.192-1.338,0.37-2.012,0.545
				V105.725z"/>
			<path fill="#F8C963" d="M109.008,106.833c0.684-0.141,1.349-0.297,2.013-0.449v-8.809c-0.664,0.153-1.336,0.296-2.013,0.433
				V106.833z"/>
			<path fill="#F8C963" d="M87.803,99.658c-0.674-0.026-1.346-0.062-2.012-0.104v8.854c0.666,0.042,1.338,0.075,2.012,0.101V99.658z
				"/>
		</g>
	</g>
	<g>
		<ellipse fill="#F5B947" cx="106.419" cy="51.512" rx="60.366" ry="40.246"/>
		<rect x="46.052" y="40.244" fill="#F5B947" width="120.733" height="11.268"/>
		<ellipse fill="#FAD97F" cx="106.419" cy="40.244" rx="60.366" ry="40.244"/>
		<path fill="#F8C963" d="M106.42,70.024c-27.05,0-49.901-13.638-49.901-29.78S79.37,10.462,106.42,10.462
			c27.047,0,49.905,13.639,49.905,29.782S133.467,70.024,106.42,70.024z"/>
		<path fill="#F5B947" d="M64.561,40.244c0-15.335,20.628-28.402,45.886-29.671c-1.331-0.066-2.673-0.11-4.026-0.11
			c-27.05,0-49.901,13.639-49.901,29.782s22.852,29.78,49.901,29.78c1.354,0,2.695-0.042,4.026-0.109
			C85.189,68.646,64.561,55.58,64.561,40.244z"/>
		<g>
			<path fill="#F8C963" d="M84.208,78.893c-0.672-0.176-1.346-0.353-2.013-0.545v8.765c0.669,0.198,1.338,0.391,2.013,0.571V78.893z
				"/>
			<path fill="#F8C963" d="M161.138,66.334c0.767-1.224,1.435-2.483,2.014-3.768v-6.206c-0.617,0.973-1.296,1.922-2.014,2.858
				V66.334z"/>
			<path fill="#F8C963" d="M88.854,79.967c-0.679-0.137-1.348-0.28-2.014-0.433v8.809c0.666,0.154,1.335,0.309,2.014,0.449V79.967z"
				/>
			<path fill="#F8C963" d="M98.142,81.31c-0.676-0.06-1.348-0.128-2.014-0.203v8.839c0.666,0.078,1.336,0.151,2.014,0.213V81.31z"/>
			<path fill="#F8C963" d="M93.496,80.77c-0.672-0.098-1.343-0.202-2.015-0.314v8.832c0.667,0.114,1.343,0.213,2.015,0.313V80.77z"
				/>
			<path fill="#F8C963" d="M74.919,75.843c-0.681-0.273-1.345-0.56-2.009-0.85v8.665c0.658,0.3,1.332,0.589,2.009,0.873V75.843z"/>
			<path fill="#F8C963" d="M79.565,77.539c-0.679-0.221-1.349-0.456-2.013-0.695v8.724c0.663,0.246,1.334,0.48,2.013,0.71V77.539z"
				/>
			<path fill="#F8C963" d="M151.85,76.484c0.694-0.547,1.365-1.107,2.013-1.676v-8.171c-0.652,0.531-1.323,1.048-2.013,1.555V76.484
				z"/>
			<path fill="#F8C963" d="M156.496,72.262c0.703-0.737,1.379-1.487,2.008-2.256v-7.695c-0.643,0.684-1.31,1.354-2.008,2.01V72.262z
				"/>
			<path fill="#F8C963" d="M60.99,76.484v-8.292c-0.688-0.506-1.361-1.024-2.012-1.555v8.171
				C59.626,75.377,60.296,75.938,60.99,76.484z"/>
			<path fill="#F8C963" d="M70.278,73.773c-0.682-0.334-1.353-0.679-2.013-1.03v8.569c0.658,0.368,1.332,0.726,2.013,1.074V73.773z"
				/>
			<path fill="#F8C963" d="M65.632,71.26c-0.682-0.407-1.351-0.827-2.009-1.256v8.418c0.654,0.452,1.325,0.895,2.009,1.328V71.26z"
				/>
			<path fill="#F8C963" d="M107.427,90.532V81.68c-0.337,0.003-0.669,0.016-1.007,0.016s-0.668-0.013-1.006-0.016v8.853
				c0.338,0.005,0.668,0.018,1.006,0.018S107.09,90.537,107.427,90.532z"/>
			<path fill="#F8C963" d="M142.563,82.386c0.685-0.349,1.355-0.707,2.013-1.073v-8.571c-0.662,0.352-1.328,0.696-2.013,1.03V82.386
				z"/>
			<path fill="#F8C963" d="M147.207,79.75c0.688-0.433,1.357-0.876,2.009-1.328v-8.418c-0.651,0.43-1.321,0.85-2.009,1.256V79.75z"
				/>
			<path fill="#F8C963" d="M137.92,84.531c0.678-0.28,1.352-0.57,2.009-0.873v-8.665c-0.657,0.29-1.328,0.576-2.009,0.85V84.531z"/>
			<path fill="#F8C963" d="M54.336,70.006c0.63,0.769,1.306,1.519,2.012,2.256v-7.939c-0.7-0.657-1.37-1.328-2.012-2.012V70.006z"/>
			<path fill="#F8C963" d="M49.692,62.565c0.575,1.286,1.245,2.546,2.01,3.77v-7.116c-0.717-0.936-1.399-1.885-2.01-2.858V62.565z"
				/>
			<path fill="#F8C963" d="M133.275,86.278c0.68-0.229,1.351-0.464,2.012-0.708v-8.726c-0.666,0.239-1.332,0.474-2.012,0.695V86.278
				z"/>
			<path fill="#F8C963" d="M119.346,89.6c0.674-0.099,1.346-0.199,2.012-0.313v-8.832c-0.67,0.112-1.338,0.217-2.012,0.314V89.6z"/>
			<path fill="#F8C963" d="M114.704,90.16c0.674-0.062,1.341-0.135,2.01-0.213v-8.839c-0.669,0.075-1.336,0.143-2.01,0.203V90.16z"
				/>
			<path fill="#F8C963" d="M110.059,90.469c0.674-0.026,1.343-0.059,2.012-0.101v-8.854c-0.669,0.042-1.338,0.078-2.012,0.104
				V90.469z"/>
			<path fill="#F8C963" d="M128.633,87.684c0.676-0.181,1.348-0.373,2.009-0.571v-8.767c-0.657,0.194-1.338,0.371-2.009,0.547
				V87.684z"/>
			<path fill="#F8C963" d="M123.988,88.792c0.68-0.14,1.344-0.295,2.012-0.449v-8.809c-0.668,0.153-1.338,0.296-2.012,0.433V88.792z
				"/>
			<path fill="#F8C963" d="M102.785,81.618c-0.672-0.026-1.346-0.062-2.015-0.104v8.854c0.669,0.042,1.343,0.075,2.015,0.101V81.618
				z"/>
		</g>
	</g>
</g>
</svg>
