<?xml version="1.0" encoding="utf-8"?>
<!-- Generator: Adobe Illustrator 16.0.0, SVG Export Plug-In . SVG Version: 6.00 Build 0)  -->
<!DOCTYPE svg PUBLIC "-//W3C//DTD SVG 1.1//EN" "http://www.w3.org/Graphics/SVG/1.1/DTD/svg11.dtd" [
	<!ENTITY ns_flows "http://ns.adobe.com/Flows/1.0/">
	<!ENTITY ns_extend "http://ns.adobe.com/Extensibility/1.0/">
	<!ENTITY ns_ai "http://ns.adobe.com/AdobeIllustrator/10.0/">
	<!ENTITY ns_graphs "http://ns.adobe.com/Graphs/1.0/">
]>
<svg version="1.1" id="Layer_1" xmlns:x="&ns_extend;" xmlns:i="&ns_ai;" xmlns:graph="&ns_graphs;"
	 xmlns="http://www.w3.org/2000/svg" xmlns:xlink="http://www.w3.org/1999/xlink" xmlns:a="http://ns.adobe.com/AdobeSVGViewerExtensions/3.0/"
	 x="0px" y="0px" width="200px" height="200px" viewBox="0 0 200 200" enable-background="new 0 0 200 200" xml:space="preserve">
<g>
	<g>
		<polygon fill="#E6E5E5" points="178.158,124.994 171.842,124.994 171.842,103.152 111.998,103.152 111.998,96.837 178.158,96.837 
					"/>
		<polygon fill="#E6E5E5" points="28.158,124.994 21.842,124.994 21.842,96.837 87.999,96.837 87.999,103.152 28.158,103.152 		"/>
		<path fill="#E6E5E5" d="M100,116.467L83.534,100L100,83.534L116.463,100L100,116.467z M92.467,100l7.533,7.533l7.533-7.533
			L100,92.465L92.467,100z"/>
		<rect x="96.842" y="111.995" fill="#E6E5E5" width="6.316" height="12.999"/>
		<rect x="96.842" y="74.994" fill="#E6E5E5" width="6.316" height="12.999"/>
	</g>
	<path fill="#3F4A5A" d="M137.5,68.684c0,3.473-2.843,6.316-6.316,6.316H68.816c-3.473,0-6.316-2.843-6.316-6.316V31.316
		c0-3.475,2.843-6.316,6.316-6.316h62.368c3.474,0,6.316,2.841,6.316,6.316V68.684z"/>
	<path fill="#E6E5E5" d="M125,168.684c0,3.474-2.843,6.316-6.316,6.316H81.316c-3.473,0-6.316-2.843-6.316-6.316v-37.367
		c0-3.476,2.843-6.316,6.316-6.316h37.368c3.474,0,6.316,2.841,6.316,6.316V168.684z"/>
	<path fill="#E6E5E5" d="M50,168.684c0,3.474-2.843,6.316-6.316,6.316H6.316C2.843,175,0,172.157,0,168.684v-37.367
		C0,127.841,2.843,125,6.316,125h37.368c3.473,0,6.316,2.841,6.316,6.316V168.684z"/>
	<path fill="#E6E5E5" d="M200,168.684c0,3.474-2.843,6.316-6.316,6.316h-37.367c-3.474,0-6.316-2.843-6.316-6.316v-37.367
		c0-3.476,2.843-6.316,6.316-6.316h37.367c3.474,0,6.316,2.841,6.316,6.316V168.684z"/>
	<g>
		<rect x="76.878" y="53.54" fill="#E6E5E5" width="23.122" height="7.083"/>
		<rect x="76.878" y="39.376" fill="#E6E5E5" width="46.242" height="7.083"/>
	</g>
	<g>
		<rect x="12.368" y="153.54" fill="#CCCBCA" width="25.263" height="7.082"/>
		<rect x="12.369" y="139.377" fill="#CCCBCA" width="25.263" height="7.082"/>
	</g>
	<g>
		<rect x="87.368" y="153.54" fill="#CCCBCA" width="25.264" height="7.082"/>
		<rect x="87.369" y="139.377" fill="#CCCBCA" width="25.263" height="7.082"/>
	</g>
	<g>
		<rect x="162.368" y="153.54" fill="#CCCBCA" width="25.264" height="7.082"/>
		<rect x="162.368" y="139.377" fill="#CCCBCA" width="25.264" height="7.082"/>
	</g>
</g>
</svg>
