<svg enable-background="new 0 0 200 200" height="200" viewBox="0 0 200 200" width="200" xmlns="http://www.w3.org/2000/svg"><path d="m170.623 100.005c0 19.504-7.914 37.163-20.699 49.935l20.785 20.788c18.105-18.108 29.286-43.108 29.286-70.723z" fill="#d9d8d7"/><path d="m99.995 29.385c38.992 0 70.628 31.615 70.628 70.61v.01h29.372c0-55.222-44.774-100-100.008-100v29.38z" fill="#3f4a5a"/><path d="m99.974 29.385v-29.385c-13.535 0-26.457 2.707-38.226 7.636l11.237 27.128c8.323-3.451 17.412-5.371 26.989-5.379z" fill="#d65a38"/><path d="m149.892 149.957c-12.774 12.77-30.41 20.666-49.896 20.666-38.994 0-70.622-31.621-70.622-70.628 0-29.414 18.01-54.62 43.611-65.231l-11.237-27.128c-36.251 14.977-61.743 50.725-61.743 92.384 0 55.188 44.793 99.98 99.969 99.98 27.625 0 52.64-11.168 70.735-29.233z" fill="#f67656"/><circle cx="100" cy="100.001" fill="#e6e5e5" r="47.057"/><g fill="#3f4a5a"><path d="m96.471 71.716h7.057v56.569h-7.057z" transform="matrix(.7071 .7071 -.7071 .7071 100.0005 -41.4211)"/><path d="m112.459 123.532c-6.104 0-11.069-4.969-11.069-11.077 0-6.102 4.966-11.066 11.069-11.066 6.104 0 11.068 4.965 11.068 11.066 0 6.108-4.964 11.077-11.068 11.077zm0-15.085c-2.212 0-4.011 1.798-4.011 4.008 0 2.217 1.799 4.018 4.011 4.018s4.012-1.801 4.012-4.018c0-2.21-1.8-4.008-4.012-4.008z"/><path d="m87.543 98.613c-6.105 0-11.07-4.969-11.07-11.072 0-6.105 4.965-11.072 11.07-11.072 6.103 0 11.069 4.967 11.069 11.072 0 6.104-4.966 11.072-11.069 11.072zm0-15.085c-2.213 0-4.014 1.8-4.014 4.014 0 2.213 1.8 4.013 4.014 4.013 2.21 0 4.01-1.8 4.01-4.013 0-2.214-1.8-4.014-4.01-4.014z"/></g></svg>