<?xml version="1.0" encoding="utf-8"?>
<!-- Generator: Adobe Illustrator 16.0.0, SVG Export Plug-In . SVG Version: 6.00 Build 0)  -->
<!DOCTYPE svg PUBLIC "-//W3C//DTD SVG 1.1//EN" "http://www.w3.org/Graphics/SVG/1.1/DTD/svg11.dtd" [
	<!ENTITY ns_flows "http://ns.adobe.com/Flows/1.0/">
	<!ENTITY ns_extend "http://ns.adobe.com/Extensibility/1.0/">
	<!ENTITY ns_ai "http://ns.adobe.com/AdobeIllustrator/10.0/">
	<!ENTITY ns_graphs "http://ns.adobe.com/Graphs/1.0/">
]>
<svg version="1.1" id="Layer_1" xmlns:x="&ns_extend;" xmlns:i="&ns_ai;" xmlns:graph="&ns_graphs;"
	 xmlns="http://www.w3.org/2000/svg" xmlns:xlink="http://www.w3.org/1999/xlink" xmlns:a="http://ns.adobe.com/AdobeSVGViewerExtensions/3.0/"
	 x="0px" y="0px" width="200px" height="200px" viewBox="0 0 200 200" enable-background="new 0 0 200 200" xml:space="preserve">
<g>
	<g>
		<rect x="23.101" y="46.527" fill="#E6E5E5" width="152.15" height="150.791"/>
		<rect x="23.101" y="12.28" fill="#F67656" width="152.15" height="34.25"/>
		<rect y="46.527" fill="#CCCBCA" width="23.101" height="150.791"/>
		<rect y="12.28" fill="#D65A38" width="23.101" height="34.25"/>
		<path fill="#EFEFEF" d="M175.251,46.527v122.298H47.848c-13.67,0-24.748-11.084-24.748-24.756V46.527H175.251z"/>
		<path fill="#CCCBCA" d="M72.598,144.069c0,13.672-11.084,24.756-24.75,24.756h127.403c13.67,0,24.744-11.081,24.749-24.753
			L72.598,144.069z"/>
	</g>
	<g>
		<path fill="#3F4A5A" d="M157.049,21.885v-4.432c2.852,0,5.173-2.319,5.173-5.172c0-2.85-2.321-5.167-5.173-5.167
			c-2.848,0-5.164,2.317-5.164,5.167h-4.432c0-5.292,4.307-9.598,9.596-9.598c5.297,0,9.604,4.307,9.604,9.598
			C166.652,17.577,162.346,21.885,157.049,21.885z"/>
		<path fill="#3F4A5A" d="M133.898,21.885v-4.432c2.85,0,5.169-2.319,5.169-5.172c0-2.85-2.319-5.167-5.169-5.167
			c-2.849,0-5.17,2.317-5.17,5.167h-4.43c0-5.292,4.307-9.598,9.6-9.598s9.6,4.307,9.6,9.598
			C143.498,17.577,139.191,21.885,133.898,21.885z"/>
		<path fill="#3F4A5A" d="M110.75,21.885v-4.432c2.852,0,5.173-2.319,5.173-5.172c0-2.85-2.321-5.167-5.173-5.167
			s-5.169,2.317-5.169,5.167h-4.431c0-5.292,4.307-9.598,9.6-9.598c5.295,0,9.604,4.307,9.604,9.598
			C120.354,17.577,116.045,21.885,110.75,21.885z"/>
		<path fill="#3F4A5A" d="M87.596,21.885v-4.432c2.852,0,5.172-2.319,5.172-5.172c0-2.85-2.321-5.167-5.172-5.167
			s-5.171,2.317-5.171,5.167h-4.431c0-5.292,4.307-9.598,9.602-9.598c5.296,0,9.603,4.307,9.603,9.598
			C97.199,17.577,92.892,21.885,87.596,21.885z"/>
		<path fill="#3F4A5A" d="M64.448,21.885v-4.432c2.852,0,5.171-2.319,5.171-5.172c0-2.85-2.319-5.167-5.171-5.167
			s-5.171,2.317-5.171,5.167h-4.432c0-5.292,4.309-9.598,9.603-9.598s9.603,4.307,9.603,9.598
			C74.051,17.577,69.743,21.885,64.448,21.885z"/>
		<path fill="#3F4A5A" d="M41.297,21.885v-4.432c2.848,0,5.169-2.319,5.169-5.172c0-2.85-2.321-5.167-5.169-5.167
			c-2.852,0-5.173,2.317-5.173,5.167h-4.43c0-5.292,4.307-9.598,9.603-9.598c5.293,0,9.6,4.307,9.6,9.598
			C50.897,17.577,46.59,21.885,41.297,21.885z"/>
	</g>
	<g>
		<rect x="41.281" y="70.316" fill="#F67656" width="49.961" height="49.964"/>
		<g>
			<path fill="#3F4A5A" d="M109.482,88.558H91.242V70.316h18.241V88.558z M93.622,86.178h13.481V72.695H93.622V86.178z"/>
			<path fill="#3F4A5A" d="M125.345,88.558h-18.242V70.316h18.242V88.558z M109.482,86.178h13.483V72.695h-13.483V86.178z"/>
			<path fill="#3F4A5A" d="M141.209,88.558h-18.243V70.316h18.243V88.558z M125.345,86.178h13.488V72.695h-13.488V86.178z"/>
			<path fill="#3F4A5A" d="M157.065,88.558h-18.232V70.316h18.232V88.558z M141.209,86.178h13.483V72.695h-13.483V86.178z"/>
			<path fill="#3F4A5A" d="M109.482,104.417H91.242V86.178h18.241V104.417z M93.622,102.041h13.481V88.558H93.622V102.041z"/>
			<path fill="#3F4A5A" d="M125.345,104.417h-18.242V86.178h18.242V104.417z M109.482,102.041h13.483V88.558h-13.483V102.041z"/>
			<path fill="#3F4A5A" d="M141.209,104.417h-18.243V86.178h18.243V104.417z M125.345,102.041h13.488V88.558h-13.488V102.041z"/>
			<path fill="#3F4A5A" d="M157.065,104.417h-18.232V86.178h18.232V104.417z M141.209,102.041h13.483V88.558h-13.483V102.041z"/>
			<path fill="#3F4A5A" d="M109.482,120.28H91.242v-18.239h18.241V120.28z M93.622,117.9h13.481v-13.483H93.622V117.9z"/>
			<path fill="#3F4A5A" d="M125.345,120.28h-18.242v-18.239h18.242V120.28z M109.482,117.9h13.483v-13.483h-13.483V117.9z"/>
			<path fill="#3F4A5A" d="M141.209,120.28h-18.243v-18.239h18.243V120.28z M125.345,117.9h13.488v-13.483h-13.488V117.9z"/>
			<path fill="#3F4A5A" d="M157.065,120.28h-18.232v-18.239h18.232V120.28z M141.209,117.9h13.483v-13.483h-13.483V117.9z"/>
		</g>
	</g>
</g>
</svg>
