<?xml version="1.0" encoding="utf-8"?>
<!-- Generator: Adobe Illustrator 16.0.0, SVG Export Plug-In . SVG Version: 6.00 Build 0)  -->
<!DOCTYPE svg PUBLIC "-//W3C//DTD SVG 1.1//EN" "http://www.w3.org/Graphics/SVG/1.1/DTD/svg11.dtd" [
	<!ENTITY ns_flows "http://ns.adobe.com/Flows/1.0/">
	<!ENTITY ns_extend "http://ns.adobe.com/Extensibility/1.0/">
	<!ENTITY ns_ai "http://ns.adobe.com/AdobeIllustrator/10.0/">
	<!ENTITY ns_graphs "http://ns.adobe.com/Graphs/1.0/">
]>
<svg version="1.1" id="Layer_1" xmlns:x="&ns_extend;" xmlns:i="&ns_ai;" xmlns:graph="&ns_graphs;"
	 xmlns="http://www.w3.org/2000/svg" xmlns:xlink="http://www.w3.org/1999/xlink" xmlns:a="http://ns.adobe.com/AdobeSVGViewerExtensions/3.0/"
	 x="0px" y="0px" width="200px" height="200px" viewBox="0 0 200 200" enable-background="new 0 0 200 200" xml:space="preserve">
<g>
	<path fill="#E6E5E5" d="M192.993,192.993l-3.794-3.797c8.156-8.154,7.038-25.587-3.071-47.825
		c-10.621-23.374-29.753-49.524-53.865-73.635c-24.11-24.11-50.26-43.241-73.633-53.864C36.391,3.764,18.959,2.647,10.806,10.801
		L7.01,7.008c9.971-9.972,29.092-9.271,53.841,1.977c23.944,10.885,50.654,30.399,75.208,54.956
		c24.557,24.557,44.073,51.264,54.957,75.208C202.267,163.899,202.967,183.021,192.993,192.993z"/>
	<g>
		<g>
			<path fill="#E6E5E5" d="M7.01,192.993c-1.144-1.144-2.167-2.433-3.037-3.831l4.555-2.84c0.656,1.051,1.422,2.018,2.278,2.874
				L7.01,192.993z"/>
			<path fill="#E6E5E5" d="M0.606,180.226c-0.4-2.143-0.603-4.46-0.603-6.896c0-0.757,0.019-1.526,0.058-2.31l5.36,0.268
				c-0.034,0.691-0.051,1.373-0.051,2.042c0,2.104,0.172,4.09,0.514,5.906L0.606,180.226z M6.481,163.152l-5.263-1.06
				c0.552-2.736,1.301-5.63,2.228-8.602l5.125,1.595C7.698,157.886,6.995,160.601,6.481,163.152z M11.396,147.176l-4.984-1.992
				c1.044-2.615,2.225-5.321,3.509-8.043l4.854,2.292C13.537,142.055,12.4,144.66,11.396,147.176z M18.59,131.861l-4.733-2.533
				c1.336-2.498,2.78-5.057,4.289-7.604l4.619,2.734C21.295,126.939,19.89,129.431,18.59,131.861z M27.242,117.221l-4.513-2.908
				c1.544-2.393,3.159-4.805,4.845-7.232l4.41,3.063C30.333,112.52,28.751,114.879,27.242,117.221z M36.96,103.216l-4.31-3.2
				c1.702-2.293,3.464-4.595,5.284-6.902l4.215,3.323C40.362,98.702,38.632,100.964,36.96,103.216z M47.532,89.809l-4.12-3.44
				c1.836-2.197,3.722-4.395,5.657-6.592l4.027,3.551C51.19,85.486,49.336,87.649,47.532,89.809z M58.828,76.991l-3.935-3.652
				c1.951-2.103,3.945-4.199,5.984-6.289l3.843,3.749C62.711,72.856,60.749,74.92,58.828,76.991z M70.761,64.755l-3.75-3.843
				c2.09-2.04,4.186-4.035,6.289-5.986l3.652,3.934C74.882,60.78,72.818,62.746,70.761,64.755z M83.288,53.127l-3.549-4.026
				c2.194-1.934,4.393-3.822,6.591-5.658l3.439,4.121C87.609,49.368,85.448,51.223,83.288,53.127z M96.398,42.179l-3.327-4.212
				c2.308-1.821,4.609-3.584,6.903-5.288l3.201,4.31C100.923,38.662,98.662,40.39,96.398,42.179z M110.099,32.012l-3.063-4.406
				c2.428-1.688,4.839-3.302,7.232-4.847l2.91,4.511C114.835,28.783,112.474,30.365,110.099,32.012z M124.413,22.79l-2.734-4.619
				c2.551-1.51,5.109-2.956,7.603-4.29l2.534,4.729C129.391,19.913,126.898,21.319,124.413,22.79z M139.382,14.795L137.09,9.94
				c2.719-1.284,5.423-2.466,8.044-3.512l1.992,4.985C144.607,12.419,142.002,13.557,139.382,14.795z M155.039,8.583l-1.602-5.122
				c2.962-0.928,5.855-1.68,8.6-2.233l1.064,5.26C160.54,7.006,157.825,7.712,155.039,8.583z M179.188,5.872
				c-2.391-0.443-5.078-0.594-7.954-0.451l-0.269-5.358c3.299-0.173,6.403,0.01,9.202,0.532L179.188,5.872z"/>
			<path fill="#E6E5E5" d="M189.201,10.803c-0.856-0.856-1.823-1.623-2.874-2.279l2.838-4.556c1.398,0.871,2.688,1.895,3.831,3.037
				L189.201,10.803z"/>
		</g>
	</g>
	<g>
		<path fill="#FAD97F" d="M176.227,100.021c0,42.088-34.119,76.206-76.225,76.206c-42.118,0-76.223-34.118-76.223-76.206
			c0-42.076,34.105-76.248,76.223-76.248C142.107,23.773,176.227,57.945,176.227,100.021z"/>
		<path fill="#F5B947" d="M160.943,100.021c0,33.696-27.255,60.951-60.942,60.951c-33.702,0-60.96-27.255-60.96-60.951
			c0-33.684,27.258-60.975,60.96-60.975C133.688,39.046,160.943,66.336,160.943,100.021z"/>
		<g>
			<path fill="#FAD97F" d="M106.401,105.049H93.604c-5.34,0-10.379-2.09-14.112-5.885c-3.76-3.688-5.854-8.707-5.854-14.098
				c0-5.358,2.095-10.362,5.854-14.15c3.698-3.716,8.732-5.804,14.112-5.804h27.709v10.08H93.604c-2.667,0-5.188,1.014-6.971,2.84
				c-1.924,1.89-2.939,4.375-2.939,7.034c0,2.663,1.016,5.137,2.9,6.976c1.898,1.931,4.342,2.962,7.01,2.962h12.798V105.049z"/>
			<path fill="#FAD97F" d="M106.401,134.911H78.681v-10.042h27.721c2.64,0,5.11-1.035,7.013-2.913
				c1.818-1.813,2.913-4.313,2.913-6.995c0-2.67-1.03-5.137-2.886-6.95c-1.93-1.917-4.4-2.962-7.04-2.962H93.604V95.004h12.798
				c5.335,0,10.37,2.078,14.127,5.857c3.743,3.676,5.82,8.728,5.82,14.099c0,5.365-2.064,10.402-5.82,14.135
				C116.697,132.854,111.675,134.911,106.401,134.911z"/>
			<rect x="94.982" y="61.646" fill="#FAD97F" width="10.055" height="76.771"/>
		</g>
	</g>
	<g>
		<g>
			<path fill="#E6E5E5" d="M189.164,196.028l-2.841-4.554c1.052-0.654,2.019-1.422,2.874-2.278l3.798,3.797
				C191.851,194.138,190.562,195.159,189.164,196.028z"/>
			<path fill="#E6E5E5" d="M173.332,200c-0.758,0-1.528-0.02-2.311-0.059l0.265-5.361c2.868,0.142,5.556-0.013,7.951-0.462
				l0.986,5.276C178.085,199.795,175.768,200,173.332,200z M162.093,198.782c-2.734-0.55-5.628-1.299-8.602-2.227l1.597-5.125
				c2.798,0.872,5.511,1.575,8.065,2.09L162.093,198.782z M145.184,193.591c-2.599-1.038-5.306-2.22-8.041-3.509l2.286-4.857
				c2.642,1.245,5.246,2.383,7.746,3.379L145.184,193.591z M129.33,186.143c-2.497-1.334-5.057-2.779-7.604-4.286l2.733-4.619
				c2.48,1.468,4.973,2.874,7.402,4.173L129.33,186.143z M114.315,177.271c-2.394-1.545-4.806-3.159-7.234-4.846l3.063-4.409
				c2.376,1.649,4.737,3.232,7.08,4.741L114.315,177.271z M100.018,167.352c-2.292-1.703-4.596-3.466-6.901-5.285l3.323-4.215
				c2.266,1.787,4.524,3.517,6.777,5.19L100.018,167.352z M86.373,156.587c-2.197-1.835-4.396-3.721-6.592-5.654l3.55-4.028
				c2.16,1.904,4.321,3.758,6.482,5.563L86.373,156.587z M73.342,145.105c-2.103-1.949-4.201-3.944-6.289-5.982l3.748-3.843
				c2.056,2.007,4.123,3.972,6.191,5.894L73.342,145.105z M60.915,132.987c-2.038-2.09-4.033-4.187-5.983-6.289l3.934-3.652
				c1.922,2.07,3.887,4.134,5.892,6.191L60.915,132.987z M49.105,120.262c-1.935-2.196-3.821-4.393-5.656-6.589l4.119-3.442
				c1.805,2.158,3.661,4.321,5.564,6.481L49.105,120.262z M37.972,106.927c-1.821-2.306-3.585-4.607-5.288-6.9l4.31-3.2
				c1.673,2.249,3.402,4.512,5.19,6.773L37.972,106.927z M27.609,92.967c-1.687-2.429-3.304-4.84-4.848-7.233l4.512-2.91
				c1.51,2.344,3.091,4.704,4.744,7.077L27.609,92.967z M18.174,78.324c-1.515-2.557-2.958-5.116-4.291-7.603l4.733-2.534
				c1.294,2.418,2.7,4.909,4.177,7.401L18.174,78.324z M9.944,62.909c-1.284-2.718-2.466-5.425-3.513-8.043l4.984-1.992
				c1.007,2.518,2.145,5.124,3.382,7.744L9.944,62.909z M3.463,46.565c-0.926-2.962-1.678-5.856-2.233-8.6l5.26-1.064
				c0.519,2.562,1.225,5.275,2.096,8.063L3.463,46.565z M0.063,29.037c-0.04-0.801-0.06-1.592-0.06-2.367
				c0-2.415,0.199-4.713,0.594-6.837l5.276,0.981C5.54,22.613,5.37,24.583,5.37,26.67c0,0.687,0.018,1.387,0.054,2.1L0.063,29.037z"
				/>
			<path fill="#E6E5E5" d="M8.528,13.676l-4.555-2.838c0.87-1.396,1.893-2.686,3.037-3.832l3.796,3.797
				C9.95,11.661,9.184,12.627,8.528,13.676z"/>
		</g>
	</g>
	<path fill="#E6E5E5" d="M26.682,199.993c-8.324,0-15.001-2.329-19.672-7.002l3.796-3.793c8.154,8.155,25.587,7.035,47.823-3.071
		c23.375-10.625,49.523-29.755,73.633-53.867c24.112-24.112,43.244-50.263,53.867-73.634c10.108-22.236,11.229-39.667,3.071-47.822
		l3.795-3.797c9.974,9.972,9.271,29.094-1.98,53.843c-10.884,23.941-30.4,50.65-54.957,75.206
		c-24.554,24.556-51.262,44.074-75.208,54.958C47.695,196.992,36.128,199.993,26.682,199.993z"/>
</g>
</svg>
